<svg width="24" height="24" viewBox="0 0 24 24" fill="none" xmlns="http://www.w3.org/2000/svg">
<g clip-path="url(#clip0_124_292098)">
<path d="M16.5787 17.8799C17.7524 16.7062 18.4408 15.1432 18.5198 13.4899L18.7116 13.3545L18.531 13.0949C18.5141 11.7971 18.1304 10.5444 17.4082 9.47234L16.985 8.84036L16.3586 9.96325C16.3248 10.0253 16.2909 10.0874 16.2571 10.1438C15.9016 9.82782 15.5122 9.55698 15.1003 9.32563L14.9987 9.2692L15.0157 9.13378L15.8056 8.18018L15.2245 7.93754C15.1962 7.92626 15.1511 7.90933 15.089 7.8924V7.11936L15.8903 6.17704L15.2978 5.93441C14.9987 5.81027 14.6884 5.70306 14.3724 5.61278V5.50557C14.3724 4.12876 13.2495 3.00588 11.8727 3.00588H11.8614H11.8502C10.4621 3.00024 9.33919 4.12312 9.33919 5.49992V5.60713C9.0232 5.69742 8.71285 5.80463 8.41379 5.92876L7.82132 6.17704L8.62257 7.11936V7.8924C8.5605 7.90933 8.521 7.92626 8.48715 7.93754L7.90596 8.18018L8.69593 9.13378L8.71285 9.2692L8.61129 9.32563C8.19937 9.55698 7.81003 9.82782 7.45455 10.1438C7.42069 10.0817 7.38683 10.0197 7.35298 9.96325L6.72665 8.84036L6.30345 9.47234C5.58683 10.5444 5.19749 11.7971 5.18056 13.0949L5 13.3545L5.19185 13.4899C5.27085 15.1488 5.95925 16.7062 7.13292 17.8799C7.2232 17.9701 7.32476 18.0661 7.43198 18.162L7.45455 18.1789C7.35862 18.4159 7.25141 18.636 7.12727 18.8335L6.88464 19.2341L8.17116 20.0184L8.41379 19.6178C8.521 19.4429 8.62257 19.251 8.7185 19.0535C9.16426 19.2905 9.6326 19.4767 10.1235 19.6065L10.3041 21.0002H13.4075L13.5937 19.6065C14.079 19.4767 14.553 19.2905 14.9987 19.0535C15.089 19.251 15.1906 19.4429 15.3034 19.6178L15.5461 20.0184L16.8326 19.2341L16.59 18.8335C16.4715 18.636 16.3586 18.4159 16.2627 18.1789L16.2853 18.162C16.3868 18.0661 16.4884 17.9701 16.5787 17.8799ZM15.8113 15.4817C15.8226 15.1827 15.8564 14.878 15.9129 14.5789L15.9467 14.5733C16.0144 14.5564 16.432 14.4491 16.9116 14.2799C16.7423 15.1375 16.3868 15.888 15.8508 16.5031C15.8113 16.1645 15.8 15.8259 15.8113 15.4817ZM16.4828 12.8692C16.5843 12.6491 16.7028 12.4178 16.8495 12.1469L16.9003 12.0567C16.9455 12.2485 16.9737 12.4516 16.9962 12.6491C16.8439 12.7225 16.669 12.7958 16.4828 12.8692ZM14.5078 17.5977C14.2878 17.7275 14.0564 17.846 13.8194 17.9419L14.2144 15.0303C14.2539 15.0247 14.2934 15.0134 14.3386 15.0078C14.3273 15.1488 14.316 15.2899 14.3103 15.431C14.2821 16.1532 14.3498 16.9037 14.5078 17.5977ZM14.4288 13.456L14.773 10.9112C15.0382 11.0918 15.2809 11.2949 15.4953 11.498C15.247 11.9607 14.9085 12.6379 14.6658 13.4053C14.5868 13.4165 14.5078 13.4391 14.4288 13.456ZM12.279 18.3087C11.9912 18.3313 11.7204 18.3313 11.4382 18.3087L11.3875 17.8347L11.6245 15.2391C11.6922 15.2391 11.7712 15.2448 11.8614 15.2448C11.9517 15.2448 12.0251 15.2448 12.0928 15.2391L12.3298 17.8347L12.279 18.3087ZM11.8558 13.7438C11.8163 13.7438 11.7768 13.7438 11.7317 13.7438L11.8614 12.2542L11.9912 13.7438C11.9348 13.7438 11.8953 13.7438 11.8558 13.7438ZM8.93856 10.9112L9.28276 13.456C9.20376 13.4391 9.12477 13.4222 9.04577 13.4053C8.80314 12.6379 8.46458 11.9607 8.2163 11.498C8.42508 11.2949 8.67335 11.0918 8.93856 10.9112ZM9.40125 15.431C9.39561 15.2899 9.38433 15.1488 9.37304 15.0078C9.41254 15.0134 9.45204 15.0247 9.49718 15.0303L9.89216 17.9419C9.65517 17.846 9.42382 17.7275 9.20376 17.5977C9.36176 16.9037 9.42947 16.1532 9.40125 15.431ZM6.71536 12.6491C6.73793 12.4516 6.76614 12.2542 6.81129 12.0567L6.86207 12.1469C7.00878 12.4122 7.12727 12.6491 7.22884 12.8692C7.07085 12.8071 6.89028 12.7338 6.71536 12.6491ZM7.75925 14.5733L7.7931 14.5789C7.84953 14.878 7.88339 15.177 7.89467 15.4817C7.90596 15.8203 7.89467 16.1645 7.85517 16.5031C7.31912 15.888 6.96364 15.1375 6.79436 14.2799C7.27398 14.4491 7.69154 14.562 7.75925 14.5733Z" fill="#223E63"/>
<path d="M16.4207 17.7215C17.5887 16.5535 18.2545 15.013 18.2997 13.3654L18.3956 13.2977L18.2997 13.1623C18.2997 11.8814 17.9216 10.6456 17.2163 9.59612L16.9962 9.26885L16.5505 10.0701C16.4715 10.2112 16.3868 10.3579 16.3078 10.4989C15.9072 10.1152 15.4614 9.78797 14.9818 9.52276L14.7448 9.39298L14.79 9.04314L15.4389 8.2701L15.1342 8.14596C15.089 8.12903 14.9931 8.10082 14.8633 8.06132V7.04001L15.5179 6.27261L15.2132 6.14283C14.869 6.00176 14.5135 5.87762 14.1467 5.7817V5.77041C14.1467 5.77041 14.1467 5.58421 14.1467 5.50521C14.1467 4.24126 13.1254 3.22559 11.8671 3.22559C11.8614 3.22559 11.8558 3.22559 11.8501 3.22559C11.8445 3.22559 11.8389 3.22559 11.8332 3.22559C10.5862 3.22559 9.56488 4.24126 9.56488 5.49957C9.56488 5.58421 9.56488 5.76477 9.56488 5.76477V5.77606C9.20375 5.87762 8.84826 5.99612 8.49842 6.13718L8.19372 6.26697L8.84826 7.03436V8.05568C8.71848 8.08954 8.62256 8.12339 8.57741 8.14032L8.27271 8.2701L8.91033 9.0375L8.95547 9.38734L8.71848 9.51712C8.23886 9.78233 7.79309 10.1096 7.39246 10.4933C7.31347 10.3522 7.22883 10.2055 7.14983 10.0645L6.70406 9.2632L6.484 9.59048C5.77867 10.6456 5.40061 11.8757 5.40061 13.1566L5.30469 13.292L5.40061 13.3598C5.4514 15.0074 6.11723 16.5478 7.27961 17.7159C7.36989 17.8061 7.46582 17.8964 7.56738 17.9867L7.70281 18.1109C7.58995 18.4156 7.45453 18.6977 7.30218 18.946L7.17804 19.1547L8.08086 19.7021L8.205 19.4933C8.34607 19.2619 8.47585 19.0024 8.59434 18.7259C9.13039 19.0362 9.7003 19.2676 10.3041 19.4143L10.4846 20.7629H11.8389H13.1931L13.3737 19.4143C13.9774 19.2676 14.553 19.0362 15.0834 18.7259C15.1962 19.0024 15.3316 19.2563 15.4727 19.4933L15.5969 19.7021L16.4997 19.1547L16.3755 18.946C16.2232 18.6977 16.0878 18.4156 15.9749 18.1109L16.1103 17.9867C16.2345 17.9021 16.3304 17.8118 16.4207 17.7215ZM6.73792 11.4695L7.05955 12.0394C7.26832 12.4231 7.47146 12.8293 7.64074 13.2582C7.42632 13.1848 6.92977 13.0043 6.47836 12.7786C6.50657 12.3328 6.59685 11.8927 6.73792 11.4695ZM8.01879 16.9936C7.18368 16.198 6.67585 15.1767 6.51785 13.9409C7.13854 14.1836 7.74795 14.3416 7.81002 14.3585L7.99058 14.398C8.06394 14.7366 8.10908 15.0977 8.126 15.4814C8.14293 15.9892 8.10343 16.5027 8.01879 16.9936ZM7.9398 11.4525C8.23886 11.1478 8.63384 10.8262 9.04575 10.5667L9.11347 10.5215L9.54795 13.7322C9.3166 13.687 9.08525 13.6419 8.87083 13.5855C8.6282 12.7842 8.27271 12.0676 7.9398 11.4525ZM8.94983 17.7046C9.13039 16.9823 9.20375 16.2036 9.17553 15.4419C9.16425 15.2049 9.14732 14.9623 9.11347 14.7253C9.30531 14.7704 9.50281 14.8099 9.69466 14.8438L10.163 18.2858C9.73415 18.1391 9.32789 17.9472 8.94983 17.7046ZM11.8389 9.79361H11.8671L12.2226 13.9579C12.0476 13.9635 11.9517 13.9692 11.8501 13.9692C11.7486 13.9692 11.6527 13.9692 11.4777 13.9579L11.8389 9.79361ZM10.4508 12.6883L10.8063 10.7754L10.9304 13.924C10.8288 13.9127 10.7216 13.9071 10.6144 13.8958L10.4508 12.6883ZM10.716 14.951L11.0037 14.9848L11.0263 16.4745L10.716 14.951ZM12.3128 19.719H11.8501H11.3874L11.3762 19.5892C11.5342 19.6005 11.6921 19.6061 11.8558 19.6061C12.0138 19.6061 12.1774 19.6005 12.3354 19.5892L12.3128 19.719ZM12.4821 18.5115C12.2677 18.534 12.0589 18.5453 11.8558 18.5453C11.6527 18.5453 11.4495 18.534 11.2295 18.5115L11.1561 17.8344L11.4157 15.0074C11.568 15.013 11.6809 15.0187 11.8558 15.0187C12.0251 15.0187 12.1436 15.013 12.2959 15.0074L12.5555 17.8344L12.4821 18.5115ZM12.6853 16.4745L12.7078 14.9848L12.9956 14.951L12.6853 16.4745ZM13.0972 13.8958C12.99 13.9071 12.8827 13.9184 12.7812 13.924L12.9053 10.7754L13.2608 12.6883L13.0972 13.8958ZM16.652 12.0394L16.9737 11.4695C17.1147 11.8927 17.205 12.3328 17.2332 12.7786C16.7818 13.0099 16.2853 13.1848 16.0708 13.2582C16.2401 12.8293 16.4432 12.4231 16.652 12.0394ZM13.5486 18.2801L14.0169 14.8381C14.2144 14.8043 14.4063 14.7648 14.5981 14.7196C14.5642 14.9566 14.5473 15.1993 14.536 15.4362C14.5078 16.2036 14.5868 16.9823 14.7617 17.6989C14.378 17.9472 13.9718 18.1391 13.5486 18.2801ZM14.8407 13.5911C14.6207 13.6419 14.395 13.6927 14.1636 13.7378L14.5981 10.5272L14.6658 10.5723C15.0777 10.8319 15.4727 11.1535 15.7718 11.4582C15.4389 12.0676 15.0834 12.7842 14.8407 13.5911ZM15.6928 16.9936C15.6081 16.5027 15.5686 15.9836 15.5856 15.4757C15.6025 15.092 15.6476 14.7309 15.721 14.3924L15.9016 14.3529C15.9636 14.3416 16.573 14.1779 17.1937 13.9353C17.0357 15.1767 16.5279 16.2036 15.6928 16.9936Z" fill="#72A3CD"/>
<path d="M18.0514 13.1682C18.0514 11.9268 17.6846 10.7362 17.0075 9.72621L16.7536 10.1833C16.6407 10.3808 16.5279 10.5839 16.415 10.7757C16.3924 10.8152 16.3699 10.8491 16.3529 10.8886C16.3134 10.8491 16.274 10.8096 16.2345 10.7701C15.8169 10.3525 15.3542 10.0083 14.8576 9.73185L14.7843 10.3638C15.2301 10.646 15.704 11.024 16.0539 11.419C15.6476 12.1525 15.2639 12.9256 15.0213 13.7889C14.6602 13.8792 14.2708 13.9638 13.8645 14.0315L14.5586 8.93624L15.0326 8.36633C14.9141 8.31555 14.1297 8.11806 13.5993 7.99392L13.6896 6.6679C13.8081 6.69611 13.921 6.72433 14.0395 6.75818V7.66665C14.2313 7.71743 14.4232 7.76821 14.6094 7.83028V6.94439L15.1059 6.35756C14.6602 6.17135 14.2031 6.02464 13.7291 5.92307V5.42652V5.42088C13.7178 4.39392 12.8827 3.56445 11.8558 3.56445C10.8288 3.56445 9.9937 4.39392 9.98241 5.42088V5.91743C9.51408 6.02464 9.05138 6.17135 8.60561 6.35191L9.10216 6.95003V7.83593C9.28837 7.77386 9.48022 7.72307 9.67207 7.67229V6.76383C9.79056 6.72997 9.90342 6.70176 10.0219 6.67354L10.1122 7.99956C9.58179 8.1237 8.79746 8.32119 8.67896 8.37198L9.15295 8.94188L9.84699 14.0372C9.44636 13.9695 9.05138 13.8905 8.69025 13.7945C8.44762 12.9256 8.06392 12.1582 7.65765 11.4246C8.00749 11.0297 8.48147 10.6516 8.92724 10.3695L8.85389 9.73749C8.35734 10.014 7.889 10.3638 7.47708 10.7757C7.43759 10.8152 7.39809 10.8547 7.35859 10.8942C7.33602 10.8547 7.31345 10.8209 7.29652 10.7814C7.18367 10.5895 7.07081 10.3864 6.95796 10.1889L6.70404 9.73185C6.02693 10.7419 5.66016 11.9268 5.66016 13.1739C5.66016 13.1964 5.66016 13.219 5.66016 13.2416C5.67708 14.8723 6.32034 16.3958 7.47144 17.5525C7.56172 17.6428 7.65765 17.7275 7.74793 17.8121L7.92849 17.2366C6.89025 16.2886 6.34291 15.0472 6.24135 13.5576C6.95796 13.8848 7.81564 14.1049 7.86078 14.1162C7.81564 13.9469 7.72536 13.6535 7.68586 13.5293C7.68586 13.5293 6.89025 13.2811 6.2357 12.9199C6.26956 12.209 6.4332 11.5319 6.70404 10.9112C6.73226 10.9619 6.76611 11.0071 6.79433 11.0635C6.85075 11.1594 6.90154 11.2554 6.95796 11.3513L7.26266 11.9043C7.84386 12.9764 8.31784 14.071 8.36862 15.4704C8.4194 16.7908 8.10342 18.1394 7.52787 19.0817L8.01313 19.3808C8.19934 19.0761 8.35734 18.7431 8.48712 18.382C9.11345 18.7883 9.77928 19.0704 10.5072 19.2284L10.6821 20.5375H11.8388H13.0125L13.1874 19.2284C13.9153 19.0704 14.5812 18.7883 15.2075 18.382C15.3373 18.7375 15.5009 19.0761 15.6815 19.3808L16.1667 19.0817C15.5912 18.1394 15.2808 16.7908 15.326 15.4704C15.3768 14.071 15.8508 12.9764 16.4319 11.9043L16.7366 11.3513C16.7931 11.2554 16.8439 11.1594 16.9003 11.0635C16.9285 11.0127 16.9624 10.9619 16.9906 10.9112C17.2614 11.5319 17.425 12.209 17.4589 12.9199C16.8044 13.2754 16.0087 13.5293 16.0087 13.5293C15.9692 13.6591 15.8733 13.9525 15.8338 14.1162C15.8846 14.1049 16.7423 13.8848 17.4533 13.5576C17.3517 15.0416 16.8044 16.2886 15.7661 17.2366L15.9467 17.8121C16.0426 17.7275 16.1329 17.6428 16.2232 17.5525C17.3743 16.4014 18.0175 14.8723 18.0345 13.2416C18.0457 13.2134 18.0514 13.1908 18.0514 13.1682ZM13.289 7.92621C13.2382 7.91492 13.1931 7.90928 13.1592 7.90364C12.736 7.819 12.3297 7.77386 11.8896 7.77386L11.9178 6.44784C12.3636 6.45348 12.8094 6.49862 13.2495 6.57762L13.289 7.92621ZM13.2439 5.44345V5.83279C12.8207 5.43781 12.6909 4.9864 12.6627 4.65348C12.8376 4.72684 13.0012 4.8284 13.1536 4.95254C13.21 5.10489 13.2439 5.26853 13.2439 5.44345ZM12.6627 4.31492C12.8376 4.43906 12.9787 4.59706 13.0802 4.7889C12.9448 4.69298 12.8037 4.61398 12.657 4.55191C12.6514 4.45599 12.657 4.37699 12.6627 4.31492ZM11.9743 4.19643C11.9743 4.15129 11.9799 4.10615 11.9968 4.061C12.1661 4.07793 12.3297 4.12872 12.4765 4.20207C12.4765 4.28671 12.4821 4.38263 12.4934 4.48984C12.3241 4.43906 12.1548 4.40521 11.9743 4.40521V4.19643ZM12.5047 4.59141C12.5611 4.95254 12.7134 5.41524 13.1028 5.81022C12.7247 5.75379 12.3354 5.72558 11.9461 5.71994L11.9743 4.49549C12.1548 4.50677 12.3354 4.53499 12.5047 4.59141ZM11.2351 4.20207C11.3818 4.12872 11.5454 4.07793 11.7147 4.061C11.726 4.10615 11.7316 4.15129 11.7373 4.19643L11.7429 4.41649C11.5624 4.43342 11.3874 4.47856 11.2182 4.54627C11.2294 4.41649 11.2351 4.298 11.2351 4.20207ZM11.0489 4.31492C11.0545 4.38828 11.0602 4.49549 11.0545 4.61963C10.8796 4.70991 10.7103 4.8284 10.558 4.96383C10.6482 4.69862 10.8232 4.47292 11.0489 4.31492ZM10.5072 5.12182C10.6708 4.95818 10.8514 4.82276 11.0432 4.72119C11.0037 5.04282 10.8627 5.46602 10.4677 5.83279V5.44909V5.44345C10.4677 5.3306 10.479 5.22339 10.5072 5.12182ZM11.1956 4.64784C11.3705 4.57448 11.5511 4.5237 11.7373 4.50677L11.7655 5.71994C11.3705 5.72558 10.9868 5.75379 10.6087 5.81022C10.9755 5.43781 11.1335 5.00332 11.1956 4.64784ZM10.4508 6.57762C10.8909 6.49862 11.3366 6.45348 11.7824 6.44784L11.8106 7.77386C11.3761 7.7795 10.9699 7.819 10.541 7.90364C10.5128 7.90928 10.4677 7.91492 10.4113 7.92621L10.4508 6.57762ZM9.70592 8.75568C9.85828 8.71053 10.005 8.67668 10.1573 8.64282L10.3435 11.4698L10.4056 8.59204C10.874 8.50176 11.3536 8.45662 11.8332 8.45097L11.8558 9.44408L11.8783 8.45097C12.358 8.45662 12.8319 8.50176 13.3059 8.59204L13.368 11.4698L13.5542 8.64282C13.7066 8.67668 13.8589 8.71618 14.0056 8.75568L13.2834 14.1162C12.8263 14.1726 12.262 14.2065 11.8558 14.2065C11.4495 14.2065 10.8852 14.1726 10.4282 14.1162L9.70592 8.75568ZM8.68461 17.8065C8.88774 17.0673 8.97802 16.2604 8.94981 15.4422C8.93853 15.0754 8.89339 14.7312 8.83132 14.3983C9.19244 14.4942 9.55922 14.5676 9.92599 14.6297L10.4677 18.619C9.81878 18.4554 9.22066 18.1732 8.68461 17.8065ZM12.5329 19.9619H11.8558H11.1787L11.1053 19.3187C11.3423 19.3469 11.6075 19.3638 11.8558 19.3638C12.0984 19.3638 12.3636 19.3469 12.6062 19.3187L12.5329 19.9619ZM12.6909 18.7319C12.4257 18.7713 12.1266 18.7883 11.8558 18.7883C11.5793 18.7883 11.2859 18.7657 11.0207 18.7319L10.4733 14.7087C10.9924 14.7651 11.5454 14.7764 11.8501 14.7764C12.1548 14.7764 12.7078 14.7651 13.2269 14.7087L12.6909 18.7319ZM13.2439 18.619L13.7855 14.6297C14.1523 14.5732 14.5191 14.4942 14.8802 14.3983C14.8182 14.7312 14.7787 15.0754 14.7617 15.4422C14.7335 16.2547 14.8238 17.0673 15.0269 17.8065C14.4909 18.1732 13.8871 18.4554 13.2439 18.619Z" fill="#223E63"/>
</g>
<defs>
<clipPath id="clip0_124_292098">
<rect width="13.7116" height="18" fill="white" transform="translate(5 3)"/>
</clipPath>
</defs>
</svg>
