<svg width="24" height="24" viewBox="0 0 24 24" fill="none" xmlns="http://www.w3.org/2000/svg">
<path d="M10.1258 13.3284C9.0599 12.7956 8.25426 11.8259 7.91135 10.5856C7.82872 10.2817 7.76675 9.95292 7.75022 9.62827C7.74609 9.55336 7.74609 9.50341 7.74609 9.42849C7.74609 9.32444 7.75436 9.21206 7.76262 9.11217C7.80393 8.55445 7.9444 8.02586 8.1675 7.54721C8.42365 6.99365 8.78722 6.50252 9.23342 6.10296C9.59699 5.77832 10.0225 5.52026 10.4811 5.33297C10.9314 5.14984 11.4231 5.0333 11.9437 5.01249C11.9726 5.01249 11.9974 5.00832 12.0263 5.00416C12.0593 5.00416 12.0924 5 12.1254 5C12.1585 5 12.1915 5 12.2246 5.00416C12.2576 5.00416 12.2866 5.00832 12.3196 5.01249C12.7575 5.0333 13.1748 5.1207 13.5673 5.25805C13.9474 5.39124 14.311 5.57853 14.6374 5.80329C14.6663 5.8241 14.6993 5.84491 14.7283 5.86572C14.782 5.90734 14.8315 5.9448 14.8852 5.98642C14.91 6.00723 14.9348 6.0322 14.9596 6.05302C15.348 6.39015 15.6744 6.79387 15.9264 7.25587C15.9264 7.25587 15.3397 6.71479 14.344 7.00198C14.344 7.00198 16.1288 7.68873 16.4139 8.6918C16.4139 8.6918 15.7529 7.79278 14.7654 7.88435C14.7654 7.88435 16.3602 9.35357 16.3437 10.5814L16.2114 11.4221L15.7157 11.0226L15.9181 11.6261L10.1258 13.3284Z" fill="white"/>
<path d="M16.2127 11.4269C15.9648 9.5623 14.7171 8.8922 14.1593 8.72155C15.0889 9.25014 15.6136 10.1408 15.6797 10.761C15.4607 10.274 15.093 9.85781 14.4816 9.74127C15.155 10.1658 15.374 10.6736 15.4731 11.2147C14.8989 10.2324 13.6759 9.86197 12.6266 10.0618C12.6266 10.0618 13.1595 9.73711 13.6057 9.74959C13.5727 9.49154 12.8579 9.529 12.1886 9.33755C11.6185 9.17522 11.5069 8.87555 11.4821 8.69658C11.573 8.83809 11.8498 8.95047 12.1556 8.91717C12.4282 8.88387 12.7133 8.71739 12.7257 8.32199C12.7257 8.32199 13.0645 8.16383 13.1389 8.01399C13.0521 8.08891 12.0358 8.33448 11.4036 8.38026C11.1764 8.38442 11.1268 8.16383 10.8128 8.23458C10.8128 8.08475 10.9161 7.91826 11.0773 7.80589C11.9614 7.20654 13.395 7.78508 14.4031 8.47599C14.4031 8.47599 13.5024 7.552 12.4076 7.34389C11.2136 7.11498 10.4575 7.74762 10.5567 8.33864C10.0733 8.45934 9.57341 8.92133 9.72627 9.42495C9.8874 9.94938 10.2923 10.145 10.2923 10.145C10.0113 9.68716 10.9079 9.29176 12.0936 9.69133C11.6846 9.60808 10.3708 9.59976 10.5154 10.1533C10.7178 10.0076 11.2219 10.1117 11.3623 10.5779C11.6061 11.3687 11.0897 12.7338 10.0279 13.3373C10.6517 13.6786 11.3623 13.8743 12.1225 13.8743C12.4282 13.8743 12.7257 13.8451 13.0108 13.7827L13.3124 13.7036C13.2297 13.4747 13.0769 13.2999 12.5522 13.1376C13.7834 13.0626 14.1552 14.2697 14.1552 14.2697C14.6716 14.0324 14.9195 13.5663 14.8865 13.0252L15.5144 13.6204C15.6921 13.2291 15.721 12.3967 15.4236 11.8473L15.9359 12.4342C15.9648 12.0762 15.9524 11.5893 15.783 11.1814L16.2127 11.4269Z" fill="#450504"/>
<path d="M11.7344 8.56242C11.9575 8.53328 12.1847 8.47501 12.35 8.4209C12.3004 8.54161 12.1434 8.65816 11.974 8.67065L11.7344 8.56242Z" fill="white"/>
<path d="M13.6057 9.74933C13.1554 9.73684 12.6266 10.0615 12.6266 10.0615C13.676 9.86171 14.8989 10.2321 15.4732 11.2144C15.3781 10.6733 15.155 10.1655 14.4816 9.74101C15.0931 9.86171 15.4649 10.2738 15.6797 10.7607C15.6095 10.1447 15.0889 9.25404 14.1594 8.72545C14.3659 8.78788 14.6634 8.92107 14.9733 9.15415C14.7956 8.88777 14.5973 8.65469 14.3866 8.45908C14.3701 8.44659 14.3535 8.4341 14.337 8.42578C14.3288 8.41745 14.3164 8.41329 14.3081 8.40497C14.18 8.32173 14.0478 8.23848 13.9115 8.16357C12.9117 7.73487 12.2465 7.66411 11.7879 7.71406C11.3954 7.75568 11.0608 7.92216 11.0029 8.226C11.1641 8.25513 11.2384 8.38 11.4119 8.38C12.0441 8.33421 13.0604 8.08865 13.1472 8.01373C13.0728 8.16357 12.734 8.32173 12.734 8.32173C12.7216 8.71713 12.4365 8.88777 12.1639 8.91691C11.8581 8.9502 11.5813 8.83783 11.4904 8.69632C11.5152 8.87945 11.6268 9.17496 12.1969 9.33728C12.8538 9.52874 13.5727 9.48712 13.6057 9.74933Z" fill="#BC1237"/>
<path d="M12.7422 12.8299C13.8619 12.7841 14.3701 13.167 14.3495 13.7956C15.1428 12.8965 13.8165 12.4136 12.7422 12.8299Z" fill="#BC1237"/>
<path d="M12.515 10.8771C14.0891 10.9686 14.5684 11.8552 14.5684 11.8552C14.5684 11.8552 13.4529 11.5763 12.4365 12.6626C13.9073 11.9925 14.9195 12.4753 15.3823 12.9956C15.2418 11.364 14.0808 10.9145 14.0808 10.9145C14.0808 10.9145 14.7254 10.9104 15.5062 11.5638C14.9237 10.3818 13.1843 10.3485 12.515 10.8771Z" fill="#BC1237"/>
<path d="M10.297 10.1322C10.297 9.92822 10.4747 9.88243 10.6069 9.85746C10.8961 9.59522 11.7762 9.61187 12.0985 9.67847C10.9127 9.27472 10.0161 9.67431 10.297 10.1322Z" fill="#BC1237"/>
<path d="M15.1633 8.15161C15.7996 8.23069 16.2003 8.45128 16.4441 8.75095C16.1962 7.53145 15.2831 7.11524 14.3825 7.01119C14.8948 6.94459 15.4815 6.99454 15.9524 7.2734C15.6798 6.77811 15.3162 6.34108 14.8824 5.9873C14.399 6.416 14.0478 7.06529 13.833 7.75204C14.5064 8.20987 14.9444 8.77176 15.122 9.06727C15.4856 9.37111 16.0351 9.80397 16.3408 10.5823C16.3739 10.4616 16.4028 10.3409 16.4234 10.216C16.5474 9.30867 16.1094 8.47625 15.1633 8.15161Z" fill="#FFD200"/>
<path d="M10.589 7.62676C10.8699 7.28963 11.3574 7.09401 11.9234 7.09401C11.9565 7.09401 11.9895 7.09401 12.0267 7.09401V5.00879C11.0269 5.0296 10.1097 5.3917 9.38672 5.97856C9.804 6.43223 10.2089 7.08569 10.4568 7.83903C10.4898 7.76411 10.5353 7.69335 10.589 7.62676Z" fill="#FFD200"/>
<path d="M13.6593 7.63971C13.9072 6.89047 14.3039 6.26194 14.7294 5.86651C14.027 5.34204 13.1635 5.0257 12.2256 5.00488V7.11108C12.3 7.11941 12.3743 7.12773 12.4446 7.14438C12.9032 7.24844 13.3081 7.42743 13.6593 7.63971Z" fill="#FFD200"/>
<path d="M9.63515 8.78808C9.77561 8.53419 10.0483 8.3136 10.354 8.19706C10.1309 7.35631 9.69712 6.60297 9.23439 6.10352C8.32134 6.91097 7.74707 8.09301 7.74707 9.4124C7.74707 9.41656 7.74707 9.42488 7.74707 9.42905H9.54012C9.47815 9.22094 9.51946 8.99619 9.63515 8.78808Z" fill="#FFD200"/>
<path d="M10.7512 10.2657C10.6066 10.2657 10.4868 10.349 10.4454 10.4239C10.2513 10.3448 9.85464 10.1242 9.62328 9.62891H7.75586C7.82196 11.0524 8.56149 12.301 9.66046 13.0585C10.2389 12.7214 11.4618 11.8556 11.1932 10.6195C11.1395 10.3698 10.9247 10.2657 10.7512 10.2657Z" fill="#FFD200"/>
<path d="M10.7139 8.89701C10.8337 8.84706 10.999 8.81377 11.2427 8.86371C11.2427 8.86371 11.1849 8.80128 11.1684 8.70138C11.1684 8.69722 10.8543 8.75549 10.7139 8.89701Z" fill="#FFD200"/>
<path d="M11.0779 7.79757C10.9168 7.90579 10.8135 8.07643 10.8135 8.22627C10.8878 8.20962 10.9457 8.20962 10.9953 8.21794C11.0572 7.91411 11.3877 7.75179 11.7802 7.706C12.243 7.65606 12.904 7.72681 13.9079 8.15551C12.9701 7.62692 11.8257 7.28979 11.0779 7.79757Z" fill="#FFD200"/>
<path d="M23 15.8544L22.6116 14.9221H12.2747H12.2706L11.0518 15.0636L10.3495 14.918H8.70103L7.96563 15.534L7.95737 14.9221H5.75944L5.17277 15.4923L4.92901 14.9221H1.59493L1.99568 15.7004L1.59906 16.408L2.09897 16.999L1 17.5359L1.38836 18.4683H3.61521L5.20169 18.3101L5.66854 17.7482L6.74272 18.3018L6.74685 18.3059L7.75906 18.4849L8.91587 18.2477L9.0646 17.9022L11.151 18.4683H15.0428L16.1294 18.231L16.2616 17.9313L19.0792 18.5931L19.2073 18.4683H21.3598L22.4133 17.2446L22.0374 16.3164L23 15.8544Z" fill="#450504"/>
<path d="M4.16899 16.3213H2.92542L2.77669 16.1423L2.99152 15.7635H4.29293L4.15246 16.2089L5.07791 15.7594L4.80523 15.1143H1.90908L2.21068 15.7011H2.21481L1.83058 16.3879L2.31809 16.9664H3.55753L3.63603 17.1495L3.21875 17.6365L2.02889 17.6282L2.16936 17.1828L1.24805 17.6282L1.51659 18.2733H3.60711L4.52842 17.2078L4.16899 16.3213Z" fill="#FFD200"/>
<path d="M21.8438 16.3213H20.6044L20.4515 16.1423L20.6663 15.7635H21.9677L21.8314 16.2089L22.7527 15.7594L22.4842 15.1143H19.5839L19.8896 15.7011L19.5095 16.3879L19.9929 16.9664H21.2323L21.3108 17.1495L20.8936 17.6365L19.7037 17.6282L19.8442 17.1828L18.9229 17.6282L19.1914 18.2733H21.286L22.2032 17.2078L21.8438 16.3213Z" fill="#FFD200"/>
<path d="M15.1298 15.7709L15.6958 15.1133H12.5064L12.7625 15.6918L11.6016 18.2723H14.2002L14.7828 17.6189H12.7873L13.5888 15.7709H15.1298Z" fill="#FFD200"/>
<path d="M14.7 16.9868L15.0016 16.3291H13.9686L13.2373 16.9868H14.7Z" fill="#FFD200"/>
<path d="M12.1845 15.1133L11.0855 15.2756L10.2633 16.1913L9.44531 16.8489H10.0692L10.6517 18.1017L11.5234 18.3264L10.8004 16.6658L12.1845 15.1133Z" fill="#FFD200"/>
<path d="M8.71443 15.1133L9.00364 15.671L7.82617 18.2723L8.79293 18.0767L10.1109 15.1133H8.71443Z" fill="#FFD200"/>
<path d="M19.3807 15.1143H15.9227L16.2077 15.672L15.0303 18.2733L16.0012 18.061L17.0299 15.7386H18.228L17.8521 16.3671H17.3976L16.6663 17.0247H17.5463L17.9925 18.1027L19.013 18.3441L18.3313 16.7333L18.9593 16.0299L19.3807 15.1143Z" fill="#FFD200"/>
<path d="M6.02419 15.1143L6.26794 15.5887L3.9502 18.2733L5.11113 18.1276L6.92071 16.0174V16.8873H6.55301L5.82174 17.5408H6.92071V18.136L7.76766 18.2733V15.1143H6.02419Z" fill="#FFD200"/>
<path d="M6.00306 13.4787H5.07341V11.9053H4.62305V13.8616H6.00306V13.4787Z" fill="#6A6C6C"/>
<path d="M7.01108 13.8906C7.3127 13.8906 7.60606 13.8115 7.7672 13.6991V12.7501H6.99042V13.1164H7.35402V13.4577C7.28791 13.4827 7.1557 13.5077 7.03174 13.5077C6.63096 13.5077 6.49461 13.2995 6.49461 12.8833C6.49461 12.4837 6.6227 12.2464 7.02761 12.2464C7.25073 12.2464 7.37881 12.3172 7.48624 12.4546L7.76307 12.1965C7.59367 11.9509 7.29618 11.876 7.01522 11.876C6.38718 11.876 6.05664 12.2215 6.05664 12.8791C6.05664 13.5326 6.35413 13.8906 7.01108 13.8906Z" fill="#6A6C6C"/>
</svg>
