<svg width="24" height="24" viewBox="0 0 24 24" fill="none" xmlns="http://www.w3.org/2000/svg">
<path d="M19.7966 11.5221C19.7966 15.6787 16.4388 19.0442 12.3055 19.0442C8.1645 19.0442 4.81445 15.6787 4.81445 11.5221C4.81445 7.36556 8.17226 4 12.3055 4C16.4388 4.00775 19.7966 7.37332 19.7966 11.5221Z" fill="#E1002B"/>
<path d="M12.2441 6.39551C9.41357 6.39551 7.11816 8.69091 7.11816 11.5214C7.11816 14.3519 9.41357 16.6473 12.2441 16.6473C15.0745 16.6473 17.3699 14.3519 17.3699 11.5214C17.3699 8.69091 15.0745 6.39551 12.2441 6.39551Z" fill="white"/>
<path d="M7.6314 7.5757C7.67018 7.60672 7.7012 7.64549 7.7167 7.69202C7.73221 7.73855 7.73221 7.78508 7.72446 7.83161C7.7167 7.87813 7.69344 7.92466 7.65467 7.97119C7.64691 7.9867 7.6314 7.99446 7.61589 8.01772C7.60038 8.03323 7.57712 8.05649 7.5461 8.07976C7.51508 8.08751 7.47631 8.11078 7.43753 8.13404L7.27468 8.00221C7.32121 7.9867 7.35999 7.97119 7.39876 7.95568C7.43753 7.94017 7.46855 7.90915 7.49182 7.87813C7.51508 7.84712 7.52284 7.82385 7.52284 7.80059C7.51508 7.78508 7.51508 7.76957 7.49957 7.76181C7.48406 7.7463 7.4608 7.7463 7.43753 7.7463C7.41427 7.75406 7.38325 7.76181 7.34448 7.78508C7.3057 7.80834 7.26693 7.82385 7.22816 7.83161C7.18938 7.83936 7.15061 7.84712 7.11183 7.83936C7.07306 7.83161 7.03429 7.8161 6.99551 7.78508C6.95674 7.75406 6.93348 7.72304 6.91797 7.68427C6.90246 7.64549 6.8947 7.60672 6.90246 7.55244C6.91021 7.50591 6.93348 7.45938 6.97225 7.41285C6.99551 7.38183 7.02653 7.35081 7.05755 7.32755C7.08857 7.30428 7.11183 7.28877 7.1351 7.27326C7.15836 7.26551 7.17387 7.25775 7.18163 7.25L7.34448 7.37408C7.3057 7.38183 7.26693 7.39734 7.22816 7.41285C7.18938 7.42836 7.15836 7.45938 7.12734 7.4904C7.11183 7.51366 7.10408 7.53693 7.10408 7.55244C7.10408 7.56794 7.11183 7.58345 7.12734 7.59896C7.14285 7.60672 7.15836 7.61447 7.17387 7.60672C7.18938 7.60672 7.2204 7.59896 7.25142 7.5757C7.31346 7.54468 7.35999 7.52917 7.40651 7.51366C7.44529 7.49815 7.48406 7.49815 7.52284 7.49815C7.55386 7.52917 7.59263 7.54468 7.6314 7.5757Z" fill="white"/>
<path d="M8.32154 7.21143L7.91053 7.62243L7.30566 7.02532L7.70891 6.62207L7.83299 6.73839L7.59259 6.97879L7.70116 7.08736L7.92604 6.85471L8.05012 6.97879L7.82523 7.21143L7.95706 7.34326L8.20521 7.09511L8.32154 7.21143Z" fill="white"/>
<path d="M8.79411 6.29582C8.84064 6.35785 8.87166 6.42765 8.88717 6.49744C8.90268 6.56723 8.89492 6.64478 8.86391 6.71457C8.83289 6.78436 8.78636 6.8464 8.70881 6.90844C8.63126 6.96272 8.55372 7.0015 8.47617 7.00925C8.39862 7.01701 8.32883 7.0015 8.25904 6.97048C8.18924 6.93946 8.13496 6.89293 8.08843 6.83089C8.0419 6.76885 8.01088 6.70682 7.99537 6.62927C7.97986 6.55948 7.98762 6.48193 8.01088 6.41214C8.0419 6.34234 8.08843 6.27255 8.16598 6.21827C8.22026 6.17174 8.2823 6.14848 8.33658 6.13297C8.39862 6.11746 8.4529 6.11746 8.50719 6.12521C8.56147 6.13297 8.608 6.15623 8.65453 6.18725C8.71657 6.21051 8.76309 6.24929 8.79411 6.29582ZM8.608 6.4354C8.59249 6.41214 8.56923 6.38887 8.54596 6.37336C8.5227 6.35785 8.49943 6.3501 8.47617 6.34234C8.4529 6.33459 8.42189 6.33459 8.39862 6.34234C8.37536 6.3501 8.34434 6.36561 8.32107 6.38112C8.27454 6.41989 8.24353 6.46642 8.24353 6.5207C8.24353 6.57499 8.25904 6.62927 8.29781 6.6758C8.33658 6.73008 8.38311 6.7611 8.43739 6.76885C8.49168 6.77661 8.53821 6.76885 8.59249 6.73008C8.62351 6.70682 8.64677 6.6758 8.66228 6.64478C8.67779 6.61376 8.67779 6.57499 8.67004 6.54397C8.65453 6.50519 8.63126 6.47417 8.608 6.4354Z" fill="white"/>
<path d="M9.6619 5.87004C9.70067 5.93208 9.71618 5.99412 9.71618 6.05616C9.71618 6.11044 9.70843 6.16472 9.68516 6.21125C9.6619 6.25778 9.63864 6.29655 9.59986 6.32757C9.56109 6.35859 9.53007 6.38961 9.48354 6.41288C9.42926 6.4439 9.36722 6.4594 9.29743 6.46716C9.22763 6.47491 9.1656 6.4594 9.10356 6.42839C9.04152 6.39737 8.98724 6.33533 8.94071 6.25778L8.71582 5.84678L8.91744 5.73821L9.11131 6.09493C9.13458 6.14146 9.1656 6.18023 9.19661 6.21125C9.22763 6.23452 9.25865 6.25003 9.28967 6.25003C9.32069 6.25003 9.35171 6.24227 9.38273 6.22676C9.41375 6.21125 9.43701 6.18799 9.45252 6.16472C9.46803 6.14146 9.47579 6.10269 9.46803 6.06391C9.46028 6.02514 9.44477 5.97861 9.4215 5.93208L9.22763 5.57536L9.42926 5.4668L9.6619 5.87004Z" fill="white"/>
<path d="M10.5484 5.94712L9.99781 6.14875L9.70312 5.35001L9.92026 5.27246L10.1451 5.88509L10.4786 5.76101L10.5484 5.94712Z" fill="white"/>
<path d="M11.4936 5.49774C11.5013 5.55202 11.5013 5.59855 11.4781 5.63732C11.4626 5.6761 11.4315 5.71487 11.3928 5.74589C11.354 5.77691 11.3075 5.79242 11.2454 5.80017C11.2299 5.80017 11.2144 5.80793 11.1911 5.80793C11.1679 5.80793 11.1369 5.80793 11.0981 5.80793C11.0593 5.80017 11.0205 5.79242 10.974 5.78466L10.9352 5.57528C10.9818 5.59855 11.0205 5.6063 11.0593 5.62181C11.0981 5.62957 11.1369 5.63732 11.1834 5.62957C11.2222 5.62181 11.2454 5.61406 11.2532 5.59855C11.2609 5.58304 11.2687 5.56753 11.2609 5.55202C11.2609 5.52876 11.2454 5.51325 11.2222 5.49774C11.1989 5.48223 11.1679 5.47447 11.1291 5.46672C11.0826 5.45121 11.0438 5.4357 11.0128 5.42019C10.974 5.40468 10.943 5.38142 10.9197 5.3504C10.8965 5.31938 10.8732 5.2806 10.8654 5.23408C10.8577 5.18755 10.8577 5.14877 10.8732 5.10225C10.8887 5.06347 10.912 5.0247 10.9507 5.00143C10.9895 4.97041 11.036 4.9549 11.0981 4.9394C11.1446 4.93164 11.1834 4.93164 11.2144 4.93164C11.2532 4.93164 11.2842 4.9394 11.3075 4.94715C11.3307 4.9549 11.354 4.96266 11.3617 4.96266L11.3928 5.15653C11.354 5.14102 11.323 5.11775 11.2764 5.11C11.2377 5.09449 11.1911 5.09449 11.1524 5.10225C11.1214 5.11 11.1058 5.11775 11.0903 5.13326C11.0826 5.14877 11.0748 5.16428 11.0826 5.17979C11.0826 5.1953 11.0903 5.21081 11.1058 5.21857C11.1214 5.22632 11.1446 5.24183 11.1834 5.24959C11.2454 5.27285 11.2997 5.28836 11.3385 5.30387C11.3773 5.31938 11.4083 5.34264 11.4315 5.37366C11.4703 5.41244 11.4858 5.45121 11.4936 5.49774Z" fill="white"/>
<path d="M12.4781 5.69091L12.199 5.69867L11.8888 5.31093L11.9043 5.70642L11.6716 5.71418L11.6406 4.86115L11.8733 4.8534L11.8888 5.23338L12.1524 4.84565L12.4006 4.83789L12.1292 5.24889L12.4781 5.69091Z" fill="white"/>
<path d="M13.7109 5.86876L13.4317 5.82223L13.2146 5.38021L13.1448 5.7757L12.9199 5.73693L13.0673 4.89941L13.2922 4.93819L13.2224 5.31817L13.5636 4.99247L13.8117 5.039L13.4628 5.38021L13.7109 5.86876Z" fill="white"/>
<path d="M14.5567 6.16477L14.3628 6.09497L14.1457 5.51337L13.9906 5.96314L13.7734 5.8856L14.0526 5.0791L14.2465 5.14889L14.4636 5.72275L14.6187 5.27297L14.8358 5.35052L14.5567 6.16477Z" fill="white"/>
<path d="M14.9135 6.34998L14.7041 6.24917L15.0841 5.48145L15.2935 5.58226L14.9135 6.34998Z" fill="white"/>
<path d="M15.6962 6.74492C15.6807 6.74492 15.6652 6.73717 15.6497 6.73717C15.6342 6.73717 15.6264 6.72941 15.6109 6.72941C15.6032 6.72941 15.5876 6.72166 15.5644 6.7139C15.5256 6.70615 15.4946 6.69064 15.4636 6.67513C15.4325 6.65962 15.4015 6.64411 15.3705 6.62085C15.3007 6.58207 15.2542 6.52779 15.2154 6.46575C15.1766 6.40371 15.1611 6.33392 15.1611 6.25637C15.1611 6.17882 15.1922 6.10128 15.2387 6.01598C15.2697 5.96169 15.3162 5.91516 15.3628 5.87639C15.4093 5.83762 15.4636 5.81435 15.5179 5.8066C15.5644 5.79884 15.6032 5.79884 15.6419 5.8066C15.6807 5.81435 15.7117 5.82211 15.7505 5.83762C15.7815 5.85313 15.8125 5.86864 15.8513 5.8919C15.9056 5.93067 15.9521 5.96169 15.9831 5.99271C16.0142 6.02373 16.0452 6.0625 16.0839 6.10903L15.9754 6.27964C15.9599 6.24086 15.9366 6.20984 15.9133 6.17107C15.8901 6.14005 15.8513 6.10128 15.8048 6.07026C15.7505 6.03148 15.6962 6.01598 15.6497 6.02373C15.6032 6.02373 15.5566 6.03924 15.5256 6.0625C15.4946 6.08577 15.4636 6.11679 15.4481 6.14781C15.4248 6.18658 15.4093 6.22535 15.4093 6.26413C15.4015 6.3029 15.4093 6.34167 15.4325 6.38045C15.4558 6.41922 15.4791 6.45024 15.5256 6.48126C15.5489 6.49677 15.5799 6.51228 15.6109 6.52003L15.6652 6.43473L15.5799 6.38045L15.6729 6.23311L15.9289 6.39596L15.6962 6.74492Z" fill="white"/>
<path d="M16.3881 7.41206L16.2175 7.25697L16.4346 7.00882L16.1709 6.77617L15.9538 7.02433L15.7832 6.86923L16.3493 6.22559L16.5199 6.38068L16.3105 6.61332L16.5742 6.84597L16.7836 6.61332L16.9542 6.76842L16.3881 7.41206Z" fill="white"/>
<path d="M17.4421 7.65364L17.2638 7.4365L16.7675 7.85526L16.6201 7.6769L17.1164 7.25814L16.9381 7.04101L17.0932 6.90918L17.605 7.51405L17.4421 7.65364Z" fill="white"/>
<path d="M17.4799 8.44482C17.4334 8.47584 17.3869 8.49135 17.3403 8.49135C17.2938 8.49135 17.255 8.47584 17.2085 8.45258C17.1697 8.42932 17.131 8.39054 17.1 8.34401C17.0922 8.3285 17.0844 8.31299 17.0689 8.28973C17.0612 8.26647 17.0457 8.2432 17.0379 8.20443C17.0224 8.16565 17.0146 8.12688 17.0146 8.08035L17.1853 7.96403C17.1853 8.01056 17.1853 8.05709 17.193 8.09586C17.2008 8.13463 17.2163 8.17341 17.2395 8.21218C17.2628 8.2432 17.2783 8.25871 17.3016 8.26647C17.3171 8.26647 17.3326 8.26647 17.3481 8.25871C17.3636 8.2432 17.3791 8.22769 17.3791 8.20443C17.3791 8.18116 17.3791 8.14239 17.3714 8.10362C17.3636 8.05709 17.3636 8.01056 17.3636 7.97178C17.3636 7.93301 17.3791 7.89424 17.3946 7.86322C17.4101 7.82444 17.4412 7.79343 17.4799 7.77016C17.5187 7.7469 17.5575 7.73139 17.604 7.72363C17.6428 7.72363 17.6893 7.73139 17.7281 7.75465C17.7669 7.77792 17.8056 7.81669 17.8367 7.86322C17.8599 7.90199 17.8754 7.93301 17.8909 7.97178C17.9064 8.01056 17.9142 8.04158 17.9142 8.06484C17.9142 8.08811 17.922 8.11137 17.922 8.11912L17.7513 8.22769C17.7513 8.18892 17.7513 8.15014 17.7513 8.10362C17.7436 8.05709 17.7358 8.01831 17.7126 7.98729C17.6971 7.96403 17.6816 7.94852 17.6583 7.94852C17.6428 7.94077 17.6273 7.94852 17.6118 7.95628C17.5963 7.96403 17.5885 7.97954 17.5885 7.99505C17.5885 8.01056 17.5885 8.04158 17.5885 8.08035C17.5963 8.15014 17.5963 8.20443 17.5963 8.2432C17.5963 8.28973 17.5885 8.3285 17.573 8.35952C17.5497 8.38279 17.5187 8.41381 17.4799 8.44482Z" fill="white"/>
<path d="M7.49819 15.9423C7.44391 15.9889 7.38187 16.0121 7.31984 16.0044C7.2578 15.9966 7.19576 15.9656 7.14923 15.9036L6.8623 15.5624L7.52146 15.0195L7.76186 15.3065C7.79287 15.3452 7.81614 15.3762 7.83165 15.415C7.84716 15.446 7.85491 15.4771 7.85491 15.5081C7.85491 15.5391 7.84716 15.5624 7.8394 15.5856C7.82389 15.6089 7.80838 15.6322 7.78512 15.6477C7.76186 15.6709 7.73859 15.6787 7.70757 15.6942C7.67655 15.7019 7.65329 15.7019 7.63002 15.7019C7.60676 15.7019 7.5835 15.6942 7.56799 15.6864C7.5835 15.7407 7.5835 15.7873 7.57574 15.8338C7.56799 15.8648 7.54472 15.9036 7.49819 15.9423ZM7.35861 15.7562C7.41289 15.7097 7.41289 15.6477 7.35085 15.5779L7.28882 15.5081L7.11821 15.6477L7.18025 15.7175C7.24229 15.7873 7.30433 15.8028 7.35861 15.7562ZM7.60676 15.5003C7.63778 15.4771 7.65329 15.446 7.64553 15.4228C7.63778 15.3918 7.62227 15.3607 7.59125 15.322L7.56023 15.2832L7.40514 15.415L7.43616 15.4538C7.46718 15.4926 7.49819 15.5236 7.52146 15.5313C7.54472 15.5313 7.57574 15.5236 7.60676 15.5003Z" fill="white"/>
<path d="M8.07195 16.8028L7.89359 16.64L7.96338 16.4694L7.71523 16.2445L7.55238 16.3298L7.37402 16.1669L8.20378 15.7637L8.39765 15.9343L8.07195 16.8028ZM8.02542 16.3298L8.1495 16.0273L7.85482 16.1824L8.02542 16.3298Z" fill="white"/>
<path d="M8.76239 16.9739C8.73137 17.0205 8.69259 17.0515 8.65382 17.067C8.60729 17.0825 8.56852 17.0903 8.51423 17.0825C8.46771 17.0748 8.42118 17.0515 8.37465 17.0205C8.35914 17.0127 8.34363 16.9972 8.32812 16.9817C8.31261 16.9662 8.28935 16.9429 8.26608 16.9119C8.24282 16.8809 8.21955 16.8421 8.19629 16.8033L8.32036 16.6327C8.33587 16.6793 8.35138 16.718 8.37465 16.7491C8.39791 16.7878 8.42118 16.8189 8.45995 16.8421C8.49097 16.8654 8.51423 16.8731 8.5375 16.8654C8.55301 16.8576 8.56852 16.8499 8.57627 16.8421C8.59178 16.8266 8.59178 16.8033 8.58403 16.7801C8.57627 16.7568 8.56076 16.7258 8.5375 16.687C8.51423 16.6482 8.49872 16.6095 8.48321 16.5707C8.46771 16.5319 8.46771 16.4932 8.46771 16.4544C8.47546 16.4156 8.49097 16.3768 8.51423 16.3381C8.5375 16.2993 8.57627 16.2683 8.60729 16.2528C8.64606 16.2372 8.68484 16.2295 8.73137 16.2295C8.77789 16.2372 8.82442 16.2528 8.87871 16.2915C8.91748 16.3148 8.94074 16.3458 8.96401 16.3691C8.98727 16.4001 9.01054 16.4234 9.01829 16.4466C9.0338 16.4699 9.04156 16.4854 9.04156 16.5009L8.92523 16.6638C8.91748 16.625 8.89422 16.5862 8.87871 16.5474C8.85544 16.5087 8.83218 16.4776 8.7934 16.4544C8.77014 16.4389 8.74688 16.4311 8.73137 16.4311C8.71586 16.4311 8.70035 16.4389 8.69259 16.4544C8.68484 16.4699 8.67708 16.4854 8.68484 16.5009C8.68484 16.5164 8.70035 16.5474 8.71586 16.5785C8.74688 16.6405 8.77014 16.687 8.78565 16.7258C8.80116 16.7646 8.80891 16.8033 8.80116 16.8421C8.80116 16.9042 8.78565 16.9352 8.76239 16.9739Z" fill="white"/>
<path d="M9.49865 17.6713L9.2505 17.5394L9.18071 17.0509L8.99459 17.3998L8.79297 17.2913L9.19622 16.5391L9.39784 16.6476L9.21948 16.9888L9.64599 16.7795L9.87088 16.8958L9.42886 17.1129L9.49865 17.6713Z" fill="white"/>
<path d="M10.1815 17.9203L9.63867 17.7187L9.94111 16.9199L10.4762 17.1215L10.4141 17.2844L10.0962 17.1681L10.0419 17.3154L10.3444 17.424L10.2823 17.5868L9.97988 17.4783L9.91784 17.6489L10.2435 17.7729L10.1815 17.9203Z" fill="white"/>
<path d="M11.2824 17.5245L11.011 17.4625L10.8714 18.0906L10.6465 18.0363L10.7861 17.4082L10.5146 17.3462L10.5612 17.1445L11.3367 17.3229L11.2824 17.5245Z" fill="white"/>
<path d="M12.0581 18.0057C12.0504 18.0755 12.0193 18.1375 11.9728 18.1763C11.9263 18.2151 11.8565 18.2306 11.7789 18.2229L11.3369 18.1841L11.4067 17.3311L11.7789 17.3621C11.8255 17.3698 11.8642 17.3776 11.903 17.3853C11.9418 17.4008 11.965 17.4164 11.9883 17.4319C12.0116 17.4551 12.0193 17.4706 12.0348 17.5017C12.0426 17.5249 12.0504 17.5559 12.0426 17.5792C12.0426 17.6102 12.0348 17.6412 12.0193 17.6645C12.0038 17.6878 11.9883 17.711 11.9728 17.7265C11.9573 17.7421 11.934 17.7498 11.9185 17.7576C11.965 17.7886 12.0038 17.8196 12.0271 17.8506C12.0581 17.8972 12.0659 17.9514 12.0581 18.0057ZM11.8332 17.9747C11.841 17.9049 11.7944 17.8584 11.7014 17.8506L11.6083 17.8429L11.5928 18.06L11.6859 18.0678C11.7712 18.0755 11.8255 18.0445 11.8332 17.9747ZM11.8255 17.618C11.8255 17.5792 11.8177 17.5482 11.7944 17.5327C11.7712 17.5172 11.7324 17.5094 11.6781 17.5017L11.6316 17.4939L11.6161 17.6955H11.6626C11.7169 17.7033 11.7557 17.6955 11.7789 17.6878C11.8022 17.68 11.8177 17.6568 11.8255 17.618Z" fill="white"/>
<path d="M13.075 18.1999L12.8346 18.2154L12.7649 18.0448L12.4314 18.0603L12.3771 18.2386L12.1367 18.2542L12.4314 17.3856L12.6873 17.3701L13.075 18.1999ZM12.7106 17.8974L12.5787 17.595L12.4779 17.9129L12.7106 17.8974Z" fill="white"/>
<path d="M13.7944 18.0675L13.2205 18.1761L13.0654 17.3386L13.2903 17.2998L13.4066 17.9357L13.7556 17.8737L13.7944 18.0675Z" fill="white"/>
<path d="M14.5331 17.8423L13.9747 18.0129L13.7266 17.1987L13.9437 17.1289L14.1376 17.7493L14.471 17.6485L14.5331 17.8423Z" fill="white"/>
<path d="M15.5559 17.2989C15.5326 17.3299 15.5094 17.3609 15.4861 17.3842C15.4628 17.4074 15.4318 17.4307 15.4086 17.454C15.3775 17.4695 15.3543 17.4927 15.3155 17.5082C15.2535 17.5393 15.1992 17.5548 15.1371 17.5625C15.0829 17.5703 15.0286 17.5625 14.9743 17.547C14.92 17.5315 14.8735 17.5005 14.8347 17.4617C14.7959 17.4229 14.7572 17.3764 14.7261 17.3144C14.6951 17.2523 14.6719 17.1903 14.6719 17.1283C14.6641 17.0662 14.6719 17.0119 14.6951 16.9654C14.7184 16.9111 14.7494 16.8646 14.7882 16.8258C14.8269 16.787 14.8735 16.756 14.9278 16.725C15.0053 16.6862 15.1061 16.663 15.2224 16.6475L15.3233 16.8491C15.2767 16.8413 15.2379 16.8413 15.1914 16.8413C15.1526 16.8413 15.1061 16.8568 15.0596 16.8801C15.0208 16.9034 14.9898 16.9266 14.9588 16.9654C14.9355 17.0042 14.92 17.043 14.9122 17.0817C14.9045 17.1283 14.92 17.167 14.9355 17.2136C14.9588 17.2523 14.982 17.2834 15.0208 17.3066C15.0518 17.3299 15.0906 17.3454 15.1371 17.3454C15.1759 17.3454 15.2224 17.3376 15.2612 17.3144C15.2922 17.2989 15.3233 17.2756 15.3465 17.2523C15.3698 17.2291 15.393 17.2058 15.4086 17.1825C15.4241 17.1593 15.4396 17.136 15.4551 17.1127L15.5559 17.2989Z" fill="white"/>
<path d="M16.2604 16.9122L15.7796 17.2379L15.2988 16.5322L15.4927 16.4004L15.8572 16.9355L16.1519 16.7416L16.2604 16.9122Z" fill="white"/>
<path d="M16.75 15.9896C16.7965 16.0439 16.8275 16.0982 16.843 16.1525C16.8585 16.2068 16.8585 16.2611 16.8508 16.3076C16.843 16.3541 16.8198 16.4006 16.7965 16.4394C16.7732 16.4782 16.7422 16.517 16.7034 16.548C16.6569 16.5945 16.6026 16.6255 16.5406 16.6488C16.4785 16.6721 16.4088 16.6721 16.339 16.6566C16.2692 16.641 16.1994 16.5945 16.1373 16.5247L15.8271 16.1758L15.9978 16.0207L16.2692 16.3231C16.3079 16.3696 16.3467 16.3929 16.3777 16.4162C16.4165 16.4317 16.4475 16.4394 16.4785 16.4394C16.5096 16.4317 16.5406 16.4239 16.5638 16.4006C16.5871 16.3774 16.6026 16.3541 16.6181 16.3231C16.6259 16.2921 16.6259 16.2611 16.6104 16.2223C16.5949 16.1835 16.5716 16.1447 16.5328 16.106L16.2614 15.8035L16.432 15.6484L16.75 15.9896Z" fill="white"/>
<path d="M17.4561 15.3837C17.5104 15.4302 17.5414 15.4845 17.5491 15.5465C17.5569 15.6086 17.5336 15.6706 17.4793 15.7326L17.1924 16.0738L16.541 15.5233L16.7814 15.2363C16.8124 15.1976 16.8435 15.1743 16.8745 15.151C16.9055 15.1278 16.9365 15.12 16.9598 15.1123C16.983 15.1045 17.0141 15.1045 17.0373 15.1123C17.0606 15.12 17.0838 15.1278 17.1071 15.151C17.1304 15.1743 17.1459 15.1976 17.1614 15.2208C17.1769 15.2441 17.1847 15.2674 17.1847 15.2906C17.1847 15.3139 17.1847 15.3371 17.1847 15.3527C17.2389 15.3294 17.2855 15.3139 17.332 15.3139C17.3708 15.3294 17.4095 15.3449 17.4561 15.3837ZM16.9985 15.3527C16.9675 15.3294 16.9365 15.3216 16.9132 15.3294C16.89 15.3371 16.859 15.3682 16.8279 15.4069L16.7969 15.4457L16.952 15.5775L16.983 15.5388C17.0141 15.5 17.0373 15.4612 17.0373 15.438C17.0451 15.4069 17.0296 15.3837 16.9985 15.3527ZM17.301 15.5543C17.2467 15.5078 17.1847 15.5233 17.1226 15.5931L17.0606 15.6628L17.2312 15.8024L17.2932 15.7326C17.3475 15.6628 17.3553 15.6008 17.301 15.5543Z" fill="white"/>
<path d="M19.7899 11.5224C19.7899 15.6557 16.4399 19.0057 12.3066 19.0057C8.17329 19.0057 4.82324 15.6557 4.82324 11.5224C4.82324 7.38911 8.17329 4.03906 12.3066 4.03906C16.4399 4.03906 19.7899 7.38911 19.7899 11.5224Z" fill="#E1002B"/>
<path d="M12.3066 6.39551C9.47607 6.39551 7.18066 8.69091 7.18066 11.5214C7.18066 14.3519 9.47607 16.6473 12.3066 16.6473C15.137 16.6473 17.4324 14.3519 17.4324 11.5214C17.4324 8.69091 15.137 6.39551 12.3066 6.39551Z" fill="white"/>
<path d="M5.46624 11.3678L7.7694 9.22754L6.10988 9.36712L6.17968 9.90996L4.47363 11.5229L4.69852 12.8025C4.76056 13.2057 4.96218 13.9657 5.70664 13.9037L6.49762 13.8416C6.08662 13.6012 5.85398 13.2057 5.74541 12.6939L5.46624 11.3678Z" fill="url(#paint0_linear_124_291658)"/>
<path d="M7.35883 11.5697L6.62988 13.8264L7.50617 13.7566L8.06451 12.0195C8.11104 11.8799 8.15757 11.7093 8.27389 11.5852C8.35144 11.4922 8.46 11.4302 8.54531 11.4224C8.65387 11.4146 8.73142 11.4689 8.75468 11.5775C8.7857 11.6938 8.73917 11.8334 8.69265 11.973L8.1343 13.7023L9.01059 13.6325L9.56118 11.9187C9.66974 11.5852 9.77056 11.3061 9.6775 11.0502C9.57669 10.7943 9.3518 10.7322 9.08038 10.7555C8.82448 10.7788 8.57633 10.8951 8.35144 11.1355L8.45225 10.8175L7.30455 10.9028L7.35883 11.5697Z" fill="url(#paint1_linear_124_291658)"/>
<path d="M12.3925 13.3825C11.7954 13.6152 11.4154 13.2507 11.4154 12.6613C11.4154 12.2891 11.6481 11.312 12.4545 10.7459C12.819 10.49 13.2921 10.3349 13.9124 10.3271C14.3777 10.3271 14.6104 10.3737 14.8663 10.4512C14.8663 10.4512 14.5871 10.6373 14.4785 10.9941L13.7496 13.2817C13.168 15.0731 11.5705 15.3677 10.6787 14.5612L11.3844 13.84C11.4232 13.9641 11.4852 14.0572 11.5783 14.127C12.0048 14.4372 12.5864 14.158 12.9198 13.1344L13.579 11.0639C13.5635 11.0561 13.548 11.0483 13.5325 11.0483C13.23 10.9475 12.9276 11.0871 12.6639 11.4516C12.5476 11.6144 12.4545 11.8238 12.3848 12.165C12.3305 12.4132 12.3537 13.0568 12.9664 12.6846L12.3925 13.3825Z" fill="url(#paint2_linear_124_291658)"/>
<path d="M11.5001 10.5674L10.3524 10.6682L10.4067 11.3273L9.67773 13.584L10.554 13.5142L11.5001 10.5674Z" fill="url(#paint3_linear_124_291658)"/>
<path d="M11.043 10.3427L10.6475 9.79208L11.4229 9.14844L11.8184 9.69902L11.043 10.3427Z" fill="url(#paint4_linear_124_291658)"/>
<path d="M7.6314 7.5757C7.67018 7.60672 7.7012 7.64549 7.7167 7.69202C7.73221 7.73855 7.73221 7.78508 7.72446 7.83161C7.7167 7.87813 7.69344 7.92466 7.65467 7.97119C7.64691 7.9867 7.6314 7.99446 7.61589 8.01772C7.60038 8.03323 7.57712 8.05649 7.5461 8.07976C7.51508 8.08751 7.47631 8.11078 7.43753 8.13404L7.27468 8.00221C7.32121 7.9867 7.35999 7.97119 7.39876 7.95568C7.43753 7.94017 7.46855 7.90915 7.49182 7.87813C7.51508 7.84712 7.52284 7.82385 7.52284 7.80059C7.51508 7.78508 7.51508 7.76957 7.49957 7.76181C7.48406 7.7463 7.4608 7.7463 7.43753 7.7463C7.41427 7.75406 7.38325 7.76181 7.34448 7.78508C7.3057 7.80834 7.26693 7.82385 7.22816 7.83161C7.18938 7.83936 7.15061 7.84712 7.11183 7.83936C7.07306 7.83161 7.03429 7.8161 6.99551 7.78508C6.95674 7.75406 6.93348 7.72304 6.91797 7.68427C6.90246 7.64549 6.8947 7.60672 6.90246 7.55244C6.91021 7.50591 6.93348 7.45938 6.97225 7.41285C6.99551 7.38183 7.02653 7.35081 7.05755 7.32755C7.08857 7.30428 7.11183 7.28877 7.1351 7.27326C7.15836 7.26551 7.17387 7.25775 7.18163 7.25L7.34448 7.37408C7.3057 7.38183 7.26693 7.39734 7.22816 7.41285C7.18938 7.42836 7.15836 7.45938 7.12734 7.4904C7.11183 7.51366 7.10408 7.53693 7.10408 7.55244C7.10408 7.56794 7.11183 7.58345 7.12734 7.59896C7.14285 7.60672 7.15836 7.61447 7.17387 7.60672C7.18938 7.60672 7.2204 7.59896 7.25142 7.5757C7.31346 7.54468 7.35999 7.52917 7.40651 7.51366C7.44529 7.49815 7.48406 7.49815 7.52284 7.49815C7.55386 7.52917 7.59263 7.54468 7.6314 7.5757Z" fill="white"/>
<path d="M8.32154 7.21143L7.91053 7.62243L7.30566 7.02532L7.70891 6.62207L7.83299 6.73839L7.59259 6.97879L7.70116 7.08736L7.92604 6.85471L8.05012 6.97879L7.82523 7.21143L7.95706 7.34326L8.20521 7.09511L8.32154 7.21143Z" fill="white"/>
<path d="M8.79411 6.29582C8.84064 6.35785 8.87166 6.42765 8.88717 6.49744C8.90268 6.56723 8.89492 6.64478 8.86391 6.71457C8.83289 6.78436 8.78636 6.8464 8.70881 6.90844C8.63126 6.96272 8.55372 7.0015 8.47617 7.00925C8.39862 7.01701 8.32883 7.0015 8.25904 6.97048C8.18924 6.93946 8.13496 6.89293 8.08843 6.83089C8.0419 6.76885 8.01088 6.70682 7.99537 6.62927C7.97986 6.55948 7.98762 6.48193 8.01088 6.41214C8.0419 6.34234 8.08843 6.27255 8.16598 6.21827C8.22026 6.17174 8.2823 6.14848 8.33658 6.13297C8.39862 6.11746 8.4529 6.11746 8.50719 6.12521C8.56147 6.13297 8.608 6.15623 8.65453 6.18725C8.71657 6.21051 8.76309 6.24929 8.79411 6.29582ZM8.608 6.4354C8.59249 6.41214 8.56923 6.38887 8.54596 6.37336C8.5227 6.35785 8.49943 6.3501 8.47617 6.34234C8.4529 6.33459 8.42189 6.33459 8.39862 6.34234C8.37536 6.3501 8.34434 6.36561 8.32107 6.38112C8.27454 6.41989 8.24353 6.46642 8.24353 6.5207C8.24353 6.57499 8.25904 6.62927 8.29781 6.6758C8.33658 6.73008 8.38311 6.7611 8.43739 6.76885C8.49168 6.77661 8.53821 6.76885 8.59249 6.73008C8.62351 6.70682 8.64677 6.6758 8.66228 6.64478C8.67779 6.61376 8.67779 6.57499 8.67004 6.54397C8.65453 6.50519 8.63126 6.47417 8.608 6.4354Z" fill="white"/>
<path d="M9.6619 5.87004C9.70067 5.93208 9.71618 5.99412 9.71618 6.05616C9.71618 6.11044 9.70843 6.16472 9.68516 6.21125C9.6619 6.25778 9.63864 6.29655 9.59986 6.32757C9.56109 6.35859 9.53007 6.38961 9.48354 6.41288C9.42926 6.4439 9.36722 6.4594 9.29743 6.46716C9.22763 6.47491 9.1656 6.4594 9.10356 6.42839C9.04152 6.39737 8.98724 6.33533 8.94071 6.25778L8.71582 5.84678L8.91744 5.73821L9.11131 6.09493C9.13458 6.14146 9.1656 6.18023 9.19661 6.21125C9.22763 6.23452 9.25865 6.25003 9.28967 6.25003C9.32069 6.25003 9.35171 6.24227 9.38273 6.22676C9.41375 6.21125 9.43701 6.18799 9.45252 6.16472C9.46803 6.14146 9.47579 6.10269 9.46803 6.06391C9.46028 6.02514 9.44477 5.97861 9.4215 5.93208L9.22763 5.57536L9.42926 5.4668L9.6619 5.87004Z" fill="white"/>
<path d="M10.5484 5.94712L9.99781 6.14875L9.70312 5.35001L9.92026 5.27246L10.1451 5.88509L10.4786 5.76101L10.5484 5.94712Z" fill="white"/>
<path d="M11.4936 5.49774C11.5013 5.55202 11.5013 5.59855 11.4781 5.63732C11.4626 5.6761 11.4315 5.71487 11.3928 5.74589C11.354 5.77691 11.3075 5.79242 11.2454 5.80017C11.2299 5.80017 11.2144 5.80793 11.1911 5.80793C11.1679 5.80793 11.1369 5.80793 11.0981 5.80793C11.0593 5.80017 11.0205 5.79242 10.974 5.78466L10.9352 5.57528C10.9818 5.59855 11.0205 5.6063 11.0593 5.62181C11.0981 5.62957 11.1369 5.63732 11.1834 5.62957C11.2222 5.62181 11.2454 5.61406 11.2532 5.59855C11.2609 5.58304 11.2687 5.56753 11.2609 5.55202C11.2609 5.52876 11.2454 5.51325 11.2222 5.49774C11.1989 5.48223 11.1679 5.47447 11.1291 5.46672C11.0826 5.45121 11.0438 5.4357 11.0128 5.42019C10.974 5.40468 10.943 5.38142 10.9197 5.3504C10.8965 5.31938 10.8732 5.2806 10.8654 5.23408C10.8577 5.18755 10.8577 5.14877 10.8732 5.10225C10.8887 5.06347 10.912 5.0247 10.9507 5.00143C10.9895 4.97041 11.036 4.9549 11.0981 4.9394C11.1446 4.93164 11.1834 4.93164 11.2144 4.93164C11.2532 4.93164 11.2842 4.9394 11.3075 4.94715C11.3307 4.9549 11.354 4.96266 11.3617 4.96266L11.3928 5.15653C11.354 5.14102 11.323 5.11775 11.2764 5.11C11.2377 5.09449 11.1911 5.09449 11.1524 5.10225C11.1214 5.11 11.1058 5.11775 11.0903 5.13326C11.0826 5.14877 11.0748 5.16428 11.0826 5.17979C11.0826 5.1953 11.0903 5.21081 11.1058 5.21857C11.1214 5.22632 11.1446 5.24183 11.1834 5.24959C11.2454 5.27285 11.2997 5.28836 11.3385 5.30387C11.3773 5.31938 11.4083 5.34264 11.4315 5.37366C11.4703 5.41244 11.4858 5.45121 11.4936 5.49774Z" fill="white"/>
<path d="M12.4781 5.69091L12.199 5.69867L11.8888 5.31093L11.9043 5.70642L11.6716 5.71418L11.6406 4.86115L11.8733 4.8534L11.8888 5.23338L12.1524 4.84565L12.4006 4.83789L12.1292 5.24889L12.4781 5.69091Z" fill="white"/>
<path d="M13.7109 5.86876L13.4317 5.82223L13.2146 5.38021L13.1448 5.7757L12.9199 5.73693L13.0673 4.89941L13.2922 4.93819L13.2224 5.31817L13.5636 4.99247L13.8117 5.039L13.4628 5.38021L13.7109 5.86876Z" fill="white"/>
<path d="M14.5567 6.16477L14.3628 6.09497L14.1457 5.51337L13.9906 5.96314L13.7734 5.8856L14.0526 5.0791L14.2465 5.14889L14.4636 5.72275L14.6187 5.27297L14.8358 5.35052L14.5567 6.16477Z" fill="white"/>
<path d="M14.9135 6.34998L14.7041 6.24917L15.0841 5.48145L15.2935 5.58226L14.9135 6.34998Z" fill="white"/>
<path d="M15.6962 6.74492C15.6807 6.74492 15.6652 6.73717 15.6497 6.73717C15.6342 6.73717 15.6264 6.72941 15.6109 6.72941C15.6032 6.72941 15.5876 6.72166 15.5644 6.7139C15.5256 6.70615 15.4946 6.69064 15.4636 6.67513C15.4325 6.65962 15.4015 6.64411 15.3705 6.62085C15.3007 6.58207 15.2542 6.52779 15.2154 6.46575C15.1766 6.40371 15.1611 6.33392 15.1611 6.25637C15.1611 6.17882 15.1922 6.10128 15.2387 6.01598C15.2697 5.96169 15.3162 5.91516 15.3628 5.87639C15.4093 5.83762 15.4636 5.81435 15.5179 5.8066C15.5644 5.79884 15.6032 5.79884 15.6419 5.8066C15.6807 5.81435 15.7117 5.82211 15.7505 5.83762C15.7815 5.85313 15.8125 5.86864 15.8513 5.8919C15.9056 5.93067 15.9521 5.96169 15.9831 5.99271C16.0142 6.02373 16.0452 6.0625 16.0839 6.10903L15.9754 6.27964C15.9599 6.24086 15.9366 6.20984 15.9133 6.17107C15.8901 6.14005 15.8513 6.10128 15.8048 6.07026C15.7505 6.03148 15.6962 6.01598 15.6497 6.02373C15.6032 6.02373 15.5566 6.03924 15.5256 6.0625C15.4946 6.08577 15.4636 6.11679 15.4481 6.14781C15.4248 6.18658 15.4093 6.22535 15.4093 6.26413C15.4015 6.3029 15.4093 6.34167 15.4325 6.38045C15.4558 6.41922 15.4791 6.45024 15.5256 6.48126C15.5489 6.49677 15.5799 6.51228 15.6109 6.52003L15.6652 6.43473L15.5799 6.38045L15.6729 6.23311L15.9289 6.39596L15.6962 6.74492Z" fill="white"/>
<path d="M16.3881 7.41206L16.2175 7.25697L16.4346 7.00882L16.1709 6.77617L15.9538 7.02433L15.7832 6.86923L16.3493 6.22559L16.5199 6.38068L16.3105 6.61332L16.5742 6.84597L16.7836 6.61332L16.9542 6.76842L16.3881 7.41206Z" fill="white"/>
<path d="M17.4421 7.65364L17.2638 7.4365L16.7675 7.85526L16.6201 7.6769L17.1164 7.25814L16.9381 7.04101L17.0932 6.90918L17.605 7.51405L17.4421 7.65364Z" fill="white"/>
<path d="M17.4799 8.44482C17.4334 8.47584 17.3869 8.49135 17.3403 8.49135C17.2938 8.49135 17.255 8.47584 17.2085 8.45258C17.1697 8.42932 17.131 8.39054 17.1 8.34401C17.0922 8.3285 17.0844 8.31299 17.0689 8.28973C17.0612 8.26647 17.0457 8.2432 17.0379 8.20443C17.0224 8.16565 17.0146 8.12688 17.0146 8.08035L17.1853 7.96403C17.1853 8.01056 17.1853 8.05709 17.193 8.09586C17.2008 8.13463 17.2163 8.17341 17.2395 8.21218C17.2628 8.2432 17.2783 8.25871 17.3016 8.26647C17.3171 8.26647 17.3326 8.26647 17.3481 8.25871C17.3636 8.2432 17.3791 8.22769 17.3791 8.20443C17.3791 8.18116 17.3791 8.14239 17.3714 8.10362C17.3636 8.05709 17.3636 8.01056 17.3636 7.97178C17.3636 7.93301 17.3791 7.89424 17.3946 7.86322C17.4101 7.82444 17.4412 7.79343 17.4799 7.77016C17.5187 7.7469 17.5575 7.73139 17.604 7.72363C17.6428 7.72363 17.6893 7.73139 17.7281 7.75465C17.7669 7.77792 17.8056 7.81669 17.8367 7.86322C17.8599 7.90199 17.8754 7.93301 17.8909 7.97178C17.9064 8.01056 17.9142 8.04158 17.9142 8.06484C17.9142 8.08811 17.922 8.11137 17.922 8.11912L17.7513 8.22769C17.7513 8.18892 17.7513 8.15014 17.7513 8.10362C17.7436 8.05709 17.7358 8.01831 17.7126 7.98729C17.6971 7.96403 17.6816 7.94852 17.6583 7.94852C17.6428 7.94077 17.6273 7.94852 17.6118 7.95628C17.5963 7.96403 17.5885 7.97954 17.5885 7.99505C17.5885 8.01056 17.5885 8.04158 17.5885 8.08035C17.5963 8.15014 17.5963 8.20443 17.5963 8.2432C17.5963 8.28973 17.5885 8.3285 17.573 8.35952C17.5497 8.38279 17.5187 8.41381 17.4799 8.44482Z" fill="white"/>
<path d="M7.49819 15.9423C7.44391 15.9889 7.38187 16.0121 7.31984 16.0044C7.2578 15.9966 7.19576 15.9656 7.14923 15.9036L6.8623 15.5624L7.52146 15.0195L7.76186 15.3065C7.79287 15.3452 7.81614 15.3762 7.83165 15.415C7.84716 15.446 7.85491 15.4771 7.85491 15.5081C7.85491 15.5391 7.84716 15.5624 7.8394 15.5856C7.82389 15.6089 7.80838 15.6322 7.78512 15.6477C7.76186 15.6709 7.73859 15.6787 7.70757 15.6942C7.67655 15.7019 7.65329 15.7019 7.63002 15.7019C7.60676 15.7019 7.5835 15.6942 7.56799 15.6864C7.5835 15.7407 7.5835 15.7873 7.57574 15.8338C7.56799 15.8648 7.54472 15.9036 7.49819 15.9423ZM7.35861 15.7562C7.41289 15.7097 7.41289 15.6477 7.35085 15.5779L7.28882 15.5081L7.11821 15.6477L7.18025 15.7175C7.24229 15.7873 7.30433 15.8028 7.35861 15.7562ZM7.60676 15.5003C7.63778 15.4771 7.65329 15.446 7.64553 15.4228C7.63778 15.3918 7.62227 15.3607 7.59125 15.322L7.56023 15.2832L7.40514 15.415L7.43616 15.4538C7.46718 15.4926 7.49819 15.5236 7.52146 15.5313C7.54472 15.5313 7.57574 15.5236 7.60676 15.5003Z" fill="white"/>
<path d="M8.07195 16.8028L7.89359 16.64L7.96338 16.4694L7.71523 16.2445L7.55238 16.3298L7.37402 16.1669L8.20378 15.7637L8.39765 15.9343L8.07195 16.8028ZM8.02542 16.3298L8.1495 16.0273L7.85482 16.1824L8.02542 16.3298Z" fill="white"/>
<path d="M8.76239 16.9739C8.73137 17.0205 8.69259 17.0515 8.65382 17.067C8.60729 17.0825 8.56852 17.0903 8.51423 17.0825C8.46771 17.0748 8.42118 17.0515 8.37465 17.0205C8.35914 17.0127 8.34363 16.9972 8.32812 16.9817C8.31261 16.9662 8.28935 16.9429 8.26608 16.9119C8.24282 16.8809 8.21955 16.8421 8.19629 16.8033L8.32036 16.6327C8.33587 16.6793 8.35138 16.718 8.37465 16.7491C8.39791 16.7878 8.42118 16.8189 8.45995 16.8421C8.49097 16.8654 8.51423 16.8731 8.5375 16.8654C8.55301 16.8576 8.56852 16.8499 8.57627 16.8421C8.59178 16.8266 8.59178 16.8033 8.58403 16.7801C8.57627 16.7568 8.56076 16.7258 8.5375 16.687C8.51423 16.6482 8.49872 16.6095 8.48321 16.5707C8.46771 16.5319 8.46771 16.4932 8.46771 16.4544C8.47546 16.4156 8.49097 16.3768 8.51423 16.3381C8.5375 16.2993 8.57627 16.2683 8.60729 16.2528C8.64606 16.2372 8.68484 16.2295 8.73137 16.2295C8.77789 16.2372 8.82442 16.2528 8.87871 16.2915C8.91748 16.3148 8.94074 16.3458 8.96401 16.3691C8.98727 16.4001 9.01054 16.4234 9.01829 16.4466C9.0338 16.4699 9.04156 16.4854 9.04156 16.5009L8.92523 16.6638C8.91748 16.625 8.89422 16.5862 8.87871 16.5474C8.85544 16.5087 8.83218 16.4776 8.7934 16.4544C8.77014 16.4389 8.74688 16.4311 8.73137 16.4311C8.71586 16.4311 8.70035 16.4389 8.69259 16.4544C8.68484 16.4699 8.67708 16.4854 8.68484 16.5009C8.68484 16.5164 8.70035 16.5474 8.71586 16.5785C8.74688 16.6405 8.77014 16.687 8.78565 16.7258C8.80116 16.7646 8.80891 16.8033 8.80116 16.8421C8.80116 16.9042 8.78565 16.9352 8.76239 16.9739Z" fill="white"/>
<path d="M9.49865 17.6713L9.2505 17.5394L9.18071 17.0509L8.99459 17.3998L8.79297 17.2913L9.19622 16.5391L9.39784 16.6476L9.21948 16.9888L9.64599 16.7795L9.87088 16.8958L9.42886 17.1129L9.49865 17.6713Z" fill="white"/>
<path d="M10.1815 17.9203L9.63867 17.7187L9.94111 16.9199L10.4762 17.1215L10.4141 17.2844L10.0962 17.1681L10.0419 17.3154L10.3444 17.424L10.2823 17.5868L9.97988 17.4783L9.91784 17.6489L10.2435 17.7729L10.1815 17.9203Z" fill="white"/>
<path d="M11.2824 17.5245L11.011 17.4625L10.8714 18.0906L10.6465 18.0363L10.7861 17.4082L10.5146 17.3462L10.5612 17.1445L11.3367 17.3229L11.2824 17.5245Z" fill="white"/>
<path d="M12.0581 18.0057C12.0504 18.0755 12.0193 18.1375 11.9728 18.1763C11.9263 18.2151 11.8565 18.2306 11.7789 18.2229L11.3369 18.1841L11.4067 17.3311L11.7789 17.3621C11.8255 17.3698 11.8642 17.3776 11.903 17.3853C11.9418 17.4008 11.965 17.4164 11.9883 17.4319C12.0116 17.4551 12.0193 17.4706 12.0348 17.5017C12.0426 17.5249 12.0504 17.5559 12.0426 17.5792C12.0426 17.6102 12.0348 17.6412 12.0193 17.6645C12.0038 17.6878 11.9883 17.711 11.9728 17.7265C11.9573 17.7421 11.934 17.7498 11.9185 17.7576C11.965 17.7886 12.0038 17.8196 12.0271 17.8506C12.0581 17.8972 12.0659 17.9514 12.0581 18.0057ZM11.8332 17.9747C11.841 17.9049 11.7944 17.8584 11.7014 17.8506L11.6083 17.8429L11.5928 18.06L11.6859 18.0678C11.7712 18.0755 11.8255 18.0445 11.8332 17.9747ZM11.8255 17.618C11.8255 17.5792 11.8177 17.5482 11.7944 17.5327C11.7712 17.5172 11.7324 17.5094 11.6781 17.5017L11.6316 17.4939L11.6161 17.6955H11.6626C11.7169 17.7033 11.7557 17.6955 11.7789 17.6878C11.8022 17.68 11.8177 17.6568 11.8255 17.618Z" fill="white"/>
<path d="M13.075 18.1999L12.8346 18.2154L12.7649 18.0448L12.4314 18.0603L12.3771 18.2386L12.1367 18.2542L12.4314 17.3856L12.6873 17.3701L13.075 18.1999ZM12.7106 17.8974L12.5787 17.595L12.4779 17.9129L12.7106 17.8974Z" fill="white"/>
<path d="M13.7944 18.0675L13.2205 18.1761L13.0654 17.3386L13.2903 17.2998L13.4066 17.9357L13.7556 17.8737L13.7944 18.0675Z" fill="white"/>
<path d="M14.5331 17.8423L13.9747 18.0129L13.7266 17.1987L13.9437 17.1289L14.1376 17.7493L14.471 17.6485L14.5331 17.8423Z" fill="white"/>
<path d="M15.5559 17.2989C15.5326 17.3299 15.5094 17.3609 15.4861 17.3842C15.4628 17.4074 15.4318 17.4307 15.4086 17.454C15.3775 17.4695 15.3543 17.4927 15.3155 17.5082C15.2535 17.5393 15.1992 17.5548 15.1371 17.5625C15.0829 17.5703 15.0286 17.5625 14.9743 17.547C14.92 17.5315 14.8735 17.5005 14.8347 17.4617C14.7959 17.4229 14.7572 17.3764 14.7261 17.3144C14.6951 17.2523 14.6719 17.1903 14.6719 17.1283C14.6641 17.0662 14.6719 17.0119 14.6951 16.9654C14.7184 16.9111 14.7494 16.8646 14.7882 16.8258C14.8269 16.787 14.8735 16.756 14.9278 16.725C15.0053 16.6862 15.1061 16.663 15.2224 16.6475L15.3233 16.8491C15.2767 16.8413 15.2379 16.8413 15.1914 16.8413C15.1526 16.8413 15.1061 16.8568 15.0596 16.8801C15.0208 16.9034 14.9898 16.9266 14.9588 16.9654C14.9355 17.0042 14.92 17.043 14.9122 17.0817C14.9045 17.1283 14.92 17.167 14.9355 17.2136C14.9588 17.2523 14.982 17.2834 15.0208 17.3066C15.0518 17.3299 15.0906 17.3454 15.1371 17.3454C15.1759 17.3454 15.2224 17.3376 15.2612 17.3144C15.2922 17.2989 15.3233 17.2756 15.3465 17.2523C15.3698 17.2291 15.393 17.2058 15.4086 17.1825C15.4241 17.1593 15.4396 17.136 15.4551 17.1127L15.5559 17.2989Z" fill="white"/>
<path d="M16.2604 16.9122L15.7796 17.2379L15.2988 16.5322L15.4927 16.4004L15.8572 16.9355L16.1519 16.7416L16.2604 16.9122Z" fill="white"/>
<path d="M16.75 15.9896C16.7965 16.0439 16.8275 16.0982 16.843 16.1525C16.8585 16.2068 16.8585 16.2611 16.8508 16.3076C16.843 16.3541 16.8198 16.4006 16.7965 16.4394C16.7732 16.4782 16.7422 16.517 16.7034 16.548C16.6569 16.5945 16.6026 16.6255 16.5406 16.6488C16.4785 16.6721 16.4088 16.6721 16.339 16.6566C16.2692 16.641 16.1994 16.5945 16.1373 16.5247L15.8271 16.1758L15.9978 16.0207L16.2692 16.3231C16.3079 16.3696 16.3467 16.3929 16.3777 16.4162C16.4165 16.4317 16.4475 16.4394 16.4785 16.4394C16.5096 16.4317 16.5406 16.4239 16.5638 16.4006C16.5871 16.3774 16.6026 16.3541 16.6181 16.3231C16.6259 16.2921 16.6259 16.2611 16.6104 16.2223C16.5949 16.1835 16.5716 16.1447 16.5328 16.106L16.2614 15.8035L16.432 15.6484L16.75 15.9896Z" fill="white"/>
<path d="M17.4561 15.3837C17.5104 15.4302 17.5414 15.4845 17.5491 15.5465C17.5569 15.6086 17.5336 15.6706 17.4793 15.7326L17.1924 16.0738L16.541 15.5233L16.7814 15.2363C16.8124 15.1976 16.8435 15.1743 16.8745 15.151C16.9055 15.1278 16.9365 15.12 16.9598 15.1123C16.983 15.1045 17.0141 15.1045 17.0373 15.1123C17.0606 15.12 17.0838 15.1278 17.1071 15.151C17.1304 15.1743 17.1459 15.1976 17.1614 15.2208C17.1769 15.2441 17.1847 15.2674 17.1847 15.2906C17.1847 15.3139 17.1847 15.3371 17.1847 15.3527C17.2389 15.3294 17.2855 15.3139 17.332 15.3139C17.3708 15.3294 17.4095 15.3449 17.4561 15.3837ZM16.9985 15.3527C16.9675 15.3294 16.9365 15.3216 16.9132 15.3294C16.89 15.3371 16.859 15.3682 16.8279 15.4069L16.7969 15.4457L16.952 15.5775L16.983 15.5388C17.0141 15.5 17.0373 15.4612 17.0373 15.438C17.0451 15.4069 17.0296 15.3837 16.9985 15.3527ZM17.301 15.5543C17.2467 15.5078 17.1847 15.5233 17.1226 15.5931L17.0606 15.6628L17.2312 15.8024L17.2932 15.7326C17.3475 15.6628 17.3553 15.6008 17.301 15.5543Z" fill="white"/>
<path d="M23.0002 10.063L22.7676 9.7063C22.7676 9.7063 21.5733 9.28754 20.5807 9.86915L20.5187 9.68303C20.5187 9.68303 20.3171 9.69854 20.2318 9.7063L20.4722 8.93858L20.2163 8.55859L19.2392 8.63614C19.1616 8.94633 18.7196 10.0087 17.8356 10.1173L17.789 10.2491C17.6029 10.0242 17.3935 9.95445 17.1066 9.95445L17.347 9.20224L17.0911 8.8145L15.0904 8.97735L15.1679 9.9622L15.0516 10.3189C13.8419 9.94669 12.7484 10.1871 12.0505 10.7144L11.9187 10.5981L12.3917 10.2026L11.3836 8.76022L10.0033 9.91567L10.391 10.4818L9.79388 10.5283L9.84816 10.9858C9.57675 10.6291 9.15023 10.5593 8.72372 10.6058C8.72372 10.6058 7.67683 10.6911 7.134 10.7377C7.81642 10.1095 8.58414 9.38835 8.58414 9.38835L8.28946 8.96184C8.28946 8.96184 6.21894 9.13244 5.81569 9.16346C5.82345 9.16346 5.41245 9.19448 5.41245 9.19448C5.4202 9.24101 5.46673 9.61324 5.48999 9.76058C5.49775 9.84588 5.51326 9.91567 5.51326 9.95445C5.48224 9.98547 5.38143 10.0785 5.24184 10.2104C5.04022 10.4042 3.99333 11.4046 3.75293 11.6295C3.76068 11.676 3.93129 12.6221 3.93129 12.6221L4.05537 13.3355C4.22597 14.3902 4.83859 14.8865 5.86222 14.8167L10.422 14.4522L10.011 14.871C10.2824 15.2897 10.9261 15.9489 11.7636 15.9489H11.7713C12.8337 15.9489 13.648 15.3362 14.1365 14.1653L17.3315 13.9016L17.4866 13.4208C17.5564 13.5992 17.8433 13.9637 18.3163 13.9637C18.7816 13.9637 19.0608 13.762 19.1384 13.6922L19.309 13.4518L19.3632 13.5604C20.4567 13.9094 21.395 13.5682 21.8448 13.2502C22.3953 12.8625 22.7831 12.1413 22.5272 11.4976L23.0002 10.063ZM6.20343 13.4363C6.11813 13.32 6.04834 13.1572 6.00181 12.9633C6.00181 12.9555 5.85447 12.3507 5.77692 11.9939L6.69198 11.1409L6.74626 11.7613L6.20343 13.4363Z" fill="#A6A6A6"/>
<path d="M3.54356 13.3127C3.35744 13.6927 3.15582 14.1037 3.13256 14.1502C3.14031 14.1813 3.17908 14.3519 3.22561 14.569L3.23337 14.6233C3.23337 14.6388 3.24112 14.6543 3.24112 14.6698L3.32642 15.0498C3.34969 15.1428 3.41173 15.422 3.41173 15.422L2.93869 15.4763C2.93869 15.4763 2.7991 15.3135 2.70604 15.2049C2.76808 15.5073 2.58197 15.7632 2.50442 15.8485C2.27178 16.0812 1.82976 16.1587 1.50406 15.833C1.02326 15.3522 1.26366 14.6 1.58161 14.5147L1.72895 14.0649L1 13.1731L1.99261 13.2119L3.52805 8.6211L5.36592 7.44238L5.21083 9.90839L4.28801 11.7928L3.54356 13.3127Z" fill="#A6A6A6"/>
<path d="M3.97019 12.1813L5.10239 9.87819L5.24197 7.68359L3.63674 8.70722L2.08579 13.3446L1.2793 13.3135L1.87641 14.0347C1.82988 14.1821 1.73683 14.4612 1.6903 14.6008C1.61275 14.6241 1.54296 14.6706 1.48868 14.7404C1.47317 14.7637 1.45766 14.7792 1.44215 14.8025C1.2793 15.0816 1.35684 15.4694 1.57398 15.7175C1.96947 16.175 2.74494 15.8106 2.56659 15.1282C2.58209 15.0971 2.62862 14.9886 2.65189 14.942L2.9931 15.3375L3.27227 15.3065L3.00861 14.1278L3.71429 12.6854" fill="black"/>
<path d="M2.44956 14.4468L2.12386 15.1293C2.17038 15.2766 2.17038 15.4395 2.10059 15.5558C1.99978 15.7264 1.80591 15.7264 1.65857 15.5558C1.51123 15.3852 1.48021 15.106 1.57327 14.9354C1.62755 14.8423 1.71285 14.7958 1.79816 14.8113L2.06182 13.9971L1.67408 13.5395L2.2014 13.5783L3.76011 8.86343L4.75272 8.22754L4.63639 9.89481L2.62791 14.0746L2.83729 14.9121L2.44956 14.4468ZM1.95325 15.3852C1.99978 15.3076 1.98427 15.1835 1.91448 15.106C1.85244 15.0285 1.75938 15.0285 1.71285 15.106C1.66633 15.1835 1.68184 15.3076 1.75163 15.3852C1.82142 15.4627 1.90672 15.4627 1.95325 15.3852Z" fill="url(#paint5_linear_124_291658)"/>
<path d="M2.37171 13.7721L1.99948 13.7489L1.92969 13.6636L2.29416 13.6946L3.86062 8.97195L4.62059 8.4834L4.61283 8.62298L3.93041 9.05725L2.37171 13.7721Z" fill="#EFEFEF"/>
<path d="M1.8916 14.9198L2.16302 14.1133L2.23281 14.1908L1.96915 15.0051L1.8916 14.9198Z" fill="#EFEFEF"/>
<path d="M3.98483 12.0492L4.20972 13.321C4.34155 14.0267 4.675 14.7634 5.86148 14.6781L7.43569 14.5462L7.54426 14.2438L7.76915 14.5152L9.05644 14.4144L9.15725 14.1275L9.35112 14.3989L10.7004 14.2903L11.0804 13.0961C11.1192 13.7553 11.6233 14.112 12.3134 13.9181C12.2747 14.0654 12.0963 14.3214 11.8481 14.3214C11.4914 14.3214 11.3906 13.9336 11.3286 13.7475L10.2119 14.8875C10.778 15.6707 11.4682 15.8025 11.7784 15.8025C12.0885 15.8025 13.4689 15.818 14.1513 13.7553L14.2831 14.0112L15.5161 13.9104L15.6247 13.6079L15.8341 13.8793L17.2377 13.763L17.5091 12.9333C17.5246 13.259 17.7883 13.825 18.3311 13.825C18.7189 13.825 18.9437 13.6777 19.0446 13.5924L19.3315 13.1892L19.4478 13.4296C19.6106 13.5149 20.231 13.5847 20.5645 13.5536C20.9367 13.5149 22.0689 13.3443 22.4334 12.2276C22.4722 12.1113 22.4877 12.0027 22.4877 11.8941C22.4877 11.7623 22.4489 11.6149 22.3946 11.4986L22.8521 10.064L22.6893 9.80809C21.6889 9.51341 20.8592 9.78483 20.518 10.0795L20.4249 9.8236C20.4249 9.8236 20.2155 9.83911 20.0294 9.85462C20.1535 9.45913 20.3163 8.94731 20.3163 8.94731L20.1457 8.69141L19.347 8.75344C18.9825 9.8236 18.2613 10.1726 17.9279 10.2268L17.8115 10.5681C17.703 10.1415 17.2842 10.0407 16.8965 10.095C17.0283 9.68401 17.1757 9.20322 17.1757 9.20322L17.0051 8.94731L15.2447 9.09465C15.2447 9.09465 15.3068 9.88564 15.3145 9.96319C15.3068 9.98645 15.2447 10.1881 15.1439 10.4905L14.919 10.413C14.6476 10.3199 14.3917 10.2734 13.8644 10.2734C13.7713 10.2734 13.6783 10.2811 13.593 10.2889H13.5852C12.7787 10.3742 12.1816 10.6611 11.7396 11.1962L11.8869 10.7464L11.6931 10.5758L12.1971 10.1571L11.3518 8.95507L10.1964 9.92441L10.6539 10.5836L9.94823 10.6378L10.049 11.5064L9.93272 11.7623C9.92497 10.9093 9.38214 10.6611 8.73849 10.7309L6.83082 10.886C6.83082 10.886 6.89286 11.677 6.90062 11.7545C6.87735 11.8166 6.51288 12.9333 6.27248 13.6777C6.0631 13.5459 5.92352 13.2512 5.86148 12.9643C5.86148 12.9643 5.69088 12.2508 5.62108 11.9096C5.79944 11.739 8.38953 9.34281 8.38953 9.34281L8.21892 9.0869L5.59006 9.30403C5.59006 9.30403 5.65986 9.83911 5.67537 9.98645C5.55905 10.095 4.66725 10.9403 4.20196 11.3745L3.91504 11.6615" fill="black"/>
<path d="M10.9023 10.5211L10.5068 9.95499L11.2978 9.28809L11.7011 9.85418L10.9023 10.5211Z" fill="url(#paint6_linear_124_291658)"/>
<path d="M15.5395 9.97757L14.4229 13.4672L15.3224 13.3897L15.8963 11.5983C16.0126 11.2338 16.1599 11.0012 16.3926 10.9857C16.6252 10.9702 16.664 11.1796 16.5477 11.544L15.9738 13.3354L16.8734 13.2578L17.5015 11.3036C17.7419 10.5592 17.455 10.2567 16.9431 10.3033C16.6795 10.3265 16.4236 10.4429 16.1987 10.6988L16.6795 9.19434L15.5008 9.29515L15.5395 9.97757Z" fill="url(#paint7_linear_124_291658)"/>
<path d="M5.17988 11.5755L7.54508 9.38086L5.83903 9.52044L5.90882 10.0788L4.15625 11.7305L4.38889 13.0411C4.45093 13.4599 4.66031 14.2353 5.42803 14.1733L6.24228 14.1035C5.82352 13.8553 5.58312 13.4521 5.4668 12.9248L5.17988 11.5755Z" fill="url(#paint8_linear_124_291658)"/>
<path d="M7.12629 11.7773L6.38184 14.096L7.28139 14.0262L7.85524 12.2348C7.90177 12.0953 7.95605 11.9169 8.07237 11.7851C8.14992 11.692 8.26624 11.63 8.35154 11.6222C8.46011 11.6145 8.54541 11.6687 8.56092 11.7773C8.59194 11.8936 8.54541 12.041 8.49888 12.1806L7.92503 13.9719L8.82458 13.9021L9.39068 12.1418C9.49924 11.8006 9.60781 11.5137 9.507 11.25C9.40619 10.9941 9.17355 10.9243 8.89437 10.9476C8.63071 10.9708 8.37481 11.0871 8.14992 11.3353L8.25848 11.0018L7.07976 11.0949L7.12629 11.7773Z" fill="url(#paint9_linear_124_291658)"/>
<path d="M19.6584 12.2417C19.8678 12.4278 20.1392 12.5441 20.4649 12.5208C20.6122 12.5053 20.8448 12.4433 20.9224 12.2106C21.062 11.7841 19.829 11.8539 20.1081 10.9931C20.2167 10.6442 20.4494 10.3728 20.744 10.1866C21.0387 9.99278 21.3256 9.9385 21.5971 9.91523C21.8685 9.89197 22.1244 9.91523 22.3648 9.96952L22.1476 10.6364C22.0003 10.4891 21.7987 10.4193 21.566 10.4426C21.4652 10.4503 21.2481 10.4968 21.1938 10.6752C21.1318 10.8768 21.2869 10.9078 21.3954 10.9466C21.5583 11.0009 21.7522 11.0552 21.8762 11.1793C22.0391 11.3344 22.1321 11.567 22.0313 11.8927C21.7522 12.7535 20.9224 13.0094 20.3718 13.0559C20.0849 13.0792 19.8057 13.0326 19.5498 12.9784L19.6584 12.2417Z" fill="url(#paint10_linear_124_291658)"/>
<path d="M12.2896 13.6377C11.677 13.8703 11.2893 13.4981 11.2893 12.8932C11.2893 12.5132 11.5297 11.5129 12.3594 10.9235C12.7316 10.6599 13.2202 10.497 13.8561 10.4893C14.3369 10.4893 14.5773 10.5358 14.8332 10.6211C14.8332 10.6211 14.5463 10.8072 14.4299 11.1794L13.6855 13.5291C13.0884 15.367 11.4521 15.6694 10.5293 14.8397L11.2582 14.103C11.297 14.227 11.3668 14.3279 11.4521 14.3977C11.8864 14.7156 12.4912 14.4287 12.8325 13.3818L13.5071 11.257C13.4916 11.2492 13.4761 11.2415 13.4606 11.2337C13.1504 11.1251 12.8325 11.2725 12.5688 11.6525C12.4525 11.8231 12.3594 12.0325 12.2819 12.3814C12.2276 12.6373 12.2509 13.2965 12.879 12.9087L12.2896 13.6377Z" fill="url(#paint11_linear_124_291658)"/>
<path d="M19.8371 10.7919L20.0697 10.0707L19.4261 10.125L19.7983 8.93848L19.4959 8.96174C18.9531 10.2335 18.1 10.4119 18.1 10.4119L17.9837 10.7686L18.3559 10.7376L17.7588 12.6142C17.6037 13.0795 17.9372 13.5836 18.7049 13.1416L19.2632 12.3661C18.8678 12.5289 18.7437 12.2575 18.8057 12.0792L19.2632 10.6678L19.6045 10.6368C19.6665 10.629 19.7751 10.6368 19.8371 10.7919Z" fill="url(#paint12_linear_124_291658)"/>
<path d="M11.3757 10.7539L10.197 10.847L10.2513 11.5294L9.50684 13.8481L10.3986 13.7783L11.3757 10.7539Z" fill="url(#paint13_linear_124_291658)"/>
<path d="M11.7248 12.2252C12.004 11.4807 12.4072 11.031 13.0586 10.7595L13.0354 10.7285C12.3219 10.9844 11.8954 11.442 11.6007 12.2329C11.3293 12.9619 11.5154 13.4815 12.004 13.5668L12.035 13.5357C11.6162 13.3884 11.4689 12.9076 11.7248 12.2252Z" fill="#EFEFEF"/>
<path d="M13.6629 11.2783L12.9959 13.3643C12.7866 13.9925 12.4919 14.3492 12.1895 14.4655L12.205 14.4888C12.5384 14.4267 12.8874 14.07 13.12 13.3566L13.7714 11.3093L13.6629 11.2783Z" fill="#EFEFEF"/>
<path d="M10.8633 14.8234L11.2898 14.3891L11.2433 14.3193L10.7393 14.8311C11.0339 15.0948 11.4294 15.2034 11.8249 15.1801L11.8404 15.1568C11.4915 15.1491 11.1347 15.0638 10.8633 14.8234Z" fill="#EFEFEF"/>
<path d="M18.0455 12.5905L18.6426 10.7139L18.5186 10.7216L17.9214 12.5983C17.8051 12.9395 18.0145 13.335 18.6116 13.017L18.6349 12.9783C18.0378 13.1799 17.9447 12.893 18.0455 12.5905Z" fill="#EFEFEF"/>
<path d="M19.534 9.10059C19.0532 10.2405 18.2544 10.4422 18.2544 10.4422L18.1924 10.6438L18.3165 10.636L18.3707 10.4887C18.3707 10.4887 19.1695 10.2793 19.6193 9.10059H19.534Z" fill="#EFEFEF"/>
<path d="M10.8018 9.93978L11.3059 9.52102L11.2671 9.45898L10.6777 9.94753L10.9492 10.3353L11.0345 10.2655L10.8018 9.93978Z" fill="#EFEFEF"/>
<path d="M19.6893 12.7314L19.666 12.8633C20.4415 13.0261 20.9533 12.84 21.279 12.6151L21.2635 12.5996C20.9533 12.809 20.3097 12.9408 19.6893 12.7314Z" fill="#EFEFEF"/>
<path d="M22.0852 10.3027C21.9611 10.2484 21.6354 10.1786 21.333 10.3415L21.3485 10.3647C21.682 10.2406 21.9146 10.3492 22.0542 10.4112L22.0852 10.3027Z" fill="#EFEFEF"/>
<path d="M20.5506 10.543C20.442 10.636 20.2249 10.9074 20.2326 11.2021C20.2559 11.7605 21.3338 11.7217 21.0159 12.2645L21.0469 12.2723C21.4269 11.7062 20.3877 11.6907 20.3489 11.1633C20.3257 10.8764 20.5196 10.6128 20.5661 10.5585L20.5506 10.543Z" fill="#EFEFEF"/>
<path d="M7.42845 11.7371L7.36641 11.1865L7.25009 11.1943L7.30437 11.7371C7.28886 11.7759 6.81582 13.2415 6.60645 13.9007L6.72277 13.8929L7.42845 11.7371Z" fill="#EFEFEF"/>
<path d="M10.5535 11.4988L10.4915 10.9482L10.3751 10.956L10.4372 11.4988C10.4217 11.5376 9.94864 13.0033 9.73926 13.6624L9.85558 13.6546L10.5535 11.4988Z" fill="#EFEFEF"/>
<path d="M15.8495 9.93828L15.7875 9.3877L15.6789 9.39545L15.7332 9.93828C15.7177 9.97706 14.8724 12.6214 14.6553 13.2728L14.7716 13.2651L15.8495 9.93828Z" fill="#EFEFEF"/>
<path d="M8.68443 11.5518L8.65341 11.5828C8.68443 11.606 8.80076 11.7379 8.66117 12.1644C8.5526 12.5056 8.25792 13.4284 8.1416 13.7774L8.25792 13.7696L8.77749 12.1566C8.88606 11.8232 8.793 11.6216 8.68443 11.5518Z" fill="#EFEFEF"/>
<path d="M16.7342 10.9248L16.7032 10.9558C16.7342 10.9791 16.8506 11.1109 16.711 11.5452C16.6024 11.8864 16.3 12.8092 16.1914 13.1582L16.3077 13.1504L16.8273 11.5374C16.9359 11.1962 16.8428 10.9946 16.7342 10.9248Z" fill="#EFEFEF"/>
<path d="M4.69857 13.0177L4.48144 11.7692L6.22626 10.1175L6.16422 9.62891L6.0479 9.63666L6.10218 10.0942L4.34961 11.7537L4.59001 13.0875C4.69082 13.5838 4.84591 13.925 5.16386 14.0336L5.24916 14.0258C4.95448 13.8708 4.77612 13.483 4.69857 13.0177Z" fill="#EFEFEF"/>
<defs>
<linearGradient id="paint0_linear_124_291658" x1="6.1217" y1="13.9703" x2="6.1217" y2="8.73782" gradientUnits="userSpaceOnUse">
<stop stop-color="#F5A200"/>
<stop offset="0.4" stop-color="#F08100"/>
<stop offset="1" stop-color="#E1002B"/>
</linearGradient>
<linearGradient id="paint1_linear_124_291658" x1="8.17338" y1="13.7767" x2="8.17338" y2="10.2403" gradientUnits="userSpaceOnUse">
<stop stop-color="#F5A200"/>
<stop offset="0.4" stop-color="#F08100"/>
<stop offset="1" stop-color="#E1002B"/>
</linearGradient>
<linearGradient id="paint2_linear_124_291658" x1="12.7742" y1="14.1138" x2="12.7742" y2="9.95956" gradientUnits="userSpaceOnUse">
<stop stop-color="#F5A200"/>
<stop offset="0.4" stop-color="#F08100"/>
<stop offset="1" stop-color="#E1002B"/>
</linearGradient>
<linearGradient id="paint3_linear_124_291658" x1="10.5876" y1="13.7269" x2="10.5876" y2="10.1167" gradientUnits="userSpaceOnUse">
<stop stop-color="#F5A200"/>
<stop offset="0.4" stop-color="#F08100"/>
<stop offset="1" stop-color="#E1002B"/>
</linearGradient>
<linearGradient id="paint4_linear_124_291658" x1="11.233" y1="13.7267" x2="11.233" y2="10.1166" gradientUnits="userSpaceOnUse">
<stop stop-color="#F5A200"/>
<stop offset="0.4" stop-color="#F08100"/>
<stop offset="1" stop-color="#E1002B"/>
</linearGradient>
<linearGradient id="paint5_linear_124_291658" x1="1.36385" y1="15.7026" x2="4.89945" y2="8.74541" gradientUnits="userSpaceOnUse">
<stop stop-color="#F5A200"/>
<stop offset="0.4" stop-color="#F08100"/>
<stop offset="1" stop-color="#E1002B"/>
</linearGradient>
<linearGradient id="paint6_linear_124_291658" x1="11.1026" y1="13.9946" x2="11.1026" y2="10.2859" gradientUnits="userSpaceOnUse">
<stop stop-color="#F5A200"/>
<stop offset="0.4" stop-color="#F08100"/>
<stop offset="1" stop-color="#E1002B"/>
</linearGradient>
<linearGradient id="paint7_linear_124_291658" x1="16.005" y1="13.5707" x2="16.005" y2="9.31465" gradientUnits="userSpaceOnUse">
<stop stop-color="#F5A200"/>
<stop offset="0.4" stop-color="#F08100"/>
<stop offset="1" stop-color="#E1002B"/>
</linearGradient>
<linearGradient id="paint8_linear_124_291658" x1="5.85359" y1="14.2427" x2="5.85359" y2="8.86767" gradientUnits="userSpaceOnUse">
<stop stop-color="#F5A200"/>
<stop offset="0.4" stop-color="#F08100"/>
<stop offset="1" stop-color="#E1002B"/>
</linearGradient>
<linearGradient id="paint9_linear_124_291658" x1="7.96077" y1="14.0438" x2="7.96077" y2="10.411" gradientUnits="userSpaceOnUse">
<stop stop-color="#F5A200"/>
<stop offset="0.4" stop-color="#F08100"/>
<stop offset="1" stop-color="#E1002B"/>
</linearGradient>
<linearGradient id="paint10_linear_124_291658" x1="20.9465" y1="13.0975" x2="20.9465" y2="9.33961" gradientUnits="userSpaceOnUse">
<stop stop-color="#F5A200"/>
<stop offset="0.4" stop-color="#F08100"/>
<stop offset="1" stop-color="#E1002B"/>
</linearGradient>
<linearGradient id="paint11_linear_124_291658" x1="12.6848" y1="14.3912" x2="12.6848" y2="10.1238" gradientUnits="userSpaceOnUse">
<stop stop-color="#F5A200"/>
<stop offset="0.4" stop-color="#F08100"/>
<stop offset="1" stop-color="#E1002B"/>
</linearGradient>
<linearGradient id="paint12_linear_124_291658" x1="18.8957" y1="13.4208" x2="18.8957" y2="9.68802" gradientUnits="userSpaceOnUse">
<stop stop-color="#F5A200"/>
<stop offset="0.4" stop-color="#F08100"/>
<stop offset="1" stop-color="#E1002B"/>
</linearGradient>
<linearGradient id="paint13_linear_124_291658" x1="10.4403" y1="13.9949" x2="10.4403" y2="10.2863" gradientUnits="userSpaceOnUse">
<stop stop-color="#F5A200"/>
<stop offset="0.4" stop-color="#F08100"/>
<stop offset="1" stop-color="#E1002B"/>
</linearGradient>
</defs>
</svg>
