<svg width="24" height="24" viewBox="0 0 24 24" fill="none" xmlns="http://www.w3.org/2000/svg">
<mask id="mask0_124_292071" style="mask-type:luminance" maskUnits="userSpaceOnUse" x="1" y="3" width="22" height="18">
<path d="M23 3H1V20.878H23V3Z" fill="white"/>
</mask>
<g mask="url(#mask0_124_292071)">
<path fill-rule="evenodd" clip-rule="evenodd" d="M5.08783 5.53889C5.08783 5.53889 8.82912 2.21963 15.4707 3.94192C16.7126 4.29878 17.8922 4.83719 18.9693 5.53889V8.17223H22.0962L21.5976 8.84764H20.1828V9.42171L21.3449 10.0461C21.507 10.1348 21.6263 10.2827 21.6768 10.4574C21.7535 10.7448 21.6643 12.2292 21.6643 12.2292C21.6643 12.2292 21.5747 12.6794 20.9494 12.4791L19.1828 11.9177C19.1828 11.9177 19.2465 12.5038 19.0553 13.4644C19.0553 13.4644 18.4293 16.8715 14.943 19.0673C14.943 19.0673 13.36 19.9678 12.0067 20.4144C12.0067 20.4144 9.24697 19.841 6.63012 16.8835C6.63012 16.8835 5.2253 15.1739 4.9565 13.228L4.85434 12.4416L4.82899 12.0551C4.82899 12.0551 3.79131 12.1181 3.24521 12.2802L2.43336 12.5519L2.45947 8.73355L1.98633 8.18422L5.03866 8.16546L5.09015 5.53889H5.08783Z" fill="white"/>
<path d="M12.038 20.8775L11.9144 20.8512C11.7953 20.8272 8.97263 20.2118 6.28435 17.174L6.27362 17.1613C6.21292 17.0862 4.78508 15.3302 4.50704 13.2837L4.41026 12.5377C4.0673 12.5666 3.72726 12.622 3.39331 12.7036L1.97008 13.1816L1.99849 8.89429L1 7.73935L4.58385 7.71758L4.63069 5.33564L4.7774 5.20505C4.81887 5.16904 5.80277 4.30452 7.63386 3.67039C9.30598 3.08803 12.0434 2.58673 15.5881 3.50604C16.881 3.87451 18.1085 4.43434 19.228 5.16603L19.43 5.29962V7.72133H22.9993L21.8357 9.29729H20.9093L21.5645 9.64925C21.7001 9.72288 21.8194 9.82221 21.9153 9.9414C22.011 10.0606 22.0817 10.1972 22.1229 10.3434C22.2051 10.6533 22.159 11.674 22.1229 12.2556V12.2856L22.1167 12.3148C22.0915 12.4279 22.0428 12.5347 21.9737 12.6286C21.9043 12.7224 21.8161 12.8014 21.7142 12.8604C21.5414 12.9595 21.2442 13.0473 20.8056 12.9062L19.6458 12.5347C19.6236 12.8749 19.5787 13.2134 19.5114 13.5478C19.4853 13.6882 18.8094 17.1665 15.1963 19.4426L15.1779 19.4539C15.1119 19.4914 13.5396 20.3792 12.1586 20.8377L12.038 20.8775ZM6.98792 16.5939C9.16234 19.0464 11.4535 19.7931 11.9904 19.9409C13.2047 19.5169 14.5827 18.7492 14.7063 18.6802C17.9622 16.6232 18.5989 13.4135 18.6051 13.3812C18.7802 12.5055 18.7287 11.9659 18.728 11.9606L18.6588 11.2747L19.3294 11.4863L21.0921 12.0477C21.1307 12.0609 21.1706 12.0702 21.2111 12.0755C21.2457 11.4413 21.2611 10.7141 21.2296 10.564C21.2123 10.5142 21.1782 10.4716 21.1328 10.4432L21.1174 10.4372H21.1228L19.7219 9.68677V8.62188H18.5083V5.78066C17.5279 5.17209 16.4657 4.69956 15.3523 4.37656C13.5342 3.90528 10.7814 3.54431 7.98797 4.50264C7.11165 4.79357 6.28708 5.21614 5.54393 5.75515L5.48865 8.61287L2.91787 8.62862L2.89408 11.9186L3.11222 11.8436C3.70287 11.6687 4.75667 11.6027 4.80198 11.6004L5.26281 11.5727L5.31736 12.3936L5.41719 13.1651C5.65915 14.9061 6.90267 16.4874 6.98792 16.5939Z" fill="white"/>
<path fill-rule="evenodd" clip-rule="evenodd" d="M7.89373 6.44956C8.11801 6.39702 8.18177 6.94109 8.27778 6.72197C8.35458 6.62891 8.39375 6.44279 8.53276 6.45557C8.86228 6.40453 8.27316 6.91334 8.33691 7.04692C8.33153 7.14072 8.36456 7.29607 8.2409 7.28105C8.20326 7.28105 8.13951 7.27655 8.12722 7.22702C8.09881 7.14072 8.14489 7.02139 8.09881 6.9351C8.03891 6.85105 7.97822 6.76023 7.92291 6.67318C7.87145 6.61316 7.7455 6.43604 7.89373 6.44956ZM13.2902 6.45406C13.43 6.48858 13.3985 6.65141 13.4623 6.74674C13.5038 6.82779 13.4899 7.01615 13.5882 6.89682C13.6405 6.81353 13.6451 6.69494 13.7019 6.60414C13.7134 6.55161 13.7196 6.47206 13.791 6.46305C13.8878 6.4323 14.0337 6.46305 14.0076 6.58538C13.9938 6.81577 14.0168 7.02216 14.0015 7.22852C13.973 7.29381 13.821 7.31183 13.8048 7.22327C13.7887 7.13472 13.8248 7.01315 13.781 6.95536C13.7042 6.86454 13.7165 7.37111 13.5237 7.27955C13.407 7.24654 13.4277 7.1182 13.3862 7.03865C13.3755 6.99739 13.3271 6.97186 13.3094 6.98762C13.3014 7.01183 13.2975 7.0372 13.2979 7.06268C13.3064 7.17 13.3087 7.31407 13.1443 7.2878C13.0567 7.24878 13.1036 7.12196 13.0921 7.03565C13.0921 6.85406 13.0921 6.71971 13.0921 6.56813C13.0921 6.41652 13.1689 6.45931 13.2902 6.45406ZM9.46444 6.45406C9.54124 6.53585 9.48672 6.71146 9.50208 6.80302C9.48211 6.9531 9.57274 7.22177 9.38842 7.26153C9.20407 7.30132 8.99132 7.26153 8.79085 7.27881C8.66641 7.24127 8.75013 7.02964 8.72631 6.92159C8.74551 6.785 8.68332 6.56963 8.76472 6.4548C8.78731 6.44565 8.81214 6.44305 8.83622 6.44729C8.8603 6.45154 8.88261 6.46246 8.9005 6.47876C8.91838 6.49504 8.9311 6.51604 8.93713 6.53919C8.94316 6.56236 8.94222 6.58672 8.93448 6.60939C8.93448 6.69794 8.93448 6.82552 8.93448 6.90957C8.92142 7.0259 8.91604 7.1227 9.08118 7.09794C9.13802 7.09119 9.27165 7.12497 9.30546 7.04766C9.30546 6.92008 9.30546 6.76624 9.30546 6.63041C9.28165 6.53061 9.33925 6.41054 9.46444 6.45631V6.45406ZM16.1336 6.45406C16.2251 6.48932 16.179 6.62066 16.1874 6.67918C16.1874 6.84204 16.1874 7.01915 16.1874 7.18425C16.1874 7.20458 16.1808 7.22442 16.1686 7.24094C16.1565 7.25748 16.1394 7.26987 16.1196 7.27641C16.0999 7.28294 16.0786 7.28327 16.0586 7.27738C16.0387 7.2715 16.0212 7.25965 16.0085 7.24353C15.9723 7.18349 16.0015 7.09343 15.9931 7.03565C15.9931 6.9306 15.9931 6.782 15.9931 6.66867C15.9931 6.55537 15.9893 6.41054 16.1336 6.4548V6.45406ZM7.11335 6.46605C7.23933 6.53585 7.05498 6.81203 7.28849 6.77749C7.37759 6.76924 7.4467 6.79625 7.5143 6.75873C7.57497 6.66569 7.45899 6.43604 7.6564 6.4503C7.79464 6.44505 7.71324 6.82552 7.7332 6.94786C7.7332 7.12871 7.77237 7.40713 7.54424 7.23603C7.49357 7.11896 7.62105 6.91034 7.39065 6.94485C6.98126 6.91258 7.24547 7.07093 7.1295 7.25703C6.86298 7.39588 6.97588 6.99062 6.95438 6.83453C6.97588 6.72648 6.88831 6.35874 7.11335 6.46682V6.46605ZM10.2517 6.45406C10.4545 6.47807 10.4253 6.62665 10.423 6.80152C10.4061 6.93961 10.4614 7.1197 10.3984 7.26303C10.387 7.27173 10.374 7.2781 10.3601 7.28179C10.3461 7.28549 10.3316 7.28642 10.3172 7.28453C10.3029 7.28265 10.2892 7.27798 10.2767 7.2708C10.2643 7.26363 10.2534 7.25412 10.2448 7.24277C10.2087 7.19624 10.2295 7.1182 10.2264 7.06268C10.2041 6.94786 10.2625 6.74974 10.2026 6.65442C10.1549 6.63184 10.1012 6.62424 10.0489 6.63265C9.97984 6.63942 9.89532 6.60715 9.85616 6.67995C9.83313 6.83003 9.89994 7.15798 9.8239 7.25929C9.59347 7.36661 9.65646 7.1002 9.64878 6.95911C9.65569 6.82252 9.64034 6.68669 9.6534 6.51259C9.66413 6.42403 9.75017 6.46155 9.80087 6.45557C9.96063 6.45557 10.1073 6.45406 10.2517 6.4548V6.45406ZM11.2594 6.47957C11.38 6.51259 11.3363 6.69644 11.3439 6.77975C11.3502 6.91517 11.3464 7.05086 11.3324 7.18575C11.2656 7.31557 11.0705 7.26079 10.9484 7.27955C10.8485 7.26754 10.7064 7.29006 10.6073 7.27054C10.5305 7.17674 10.5905 7.00564 10.572 6.87956C10.5874 6.73623 10.5374 6.56736 10.5989 6.46532C10.6273 6.43604 10.6688 6.45855 10.711 6.4533C10.7955 6.4533 10.8531 6.4533 10.9345 6.4533C11.0359 6.46605 11.1504 6.4308 11.2594 6.48031V6.47957ZM14.7381 6.45256C14.9239 6.46231 14.9247 6.64093 14.9209 6.77375C14.9124 6.88481 14.9385 7.05067 14.9024 7.16473C14.8663 7.31483 14.6643 7.27281 14.543 7.27729C14.4362 7.26904 14.3348 7.29681 14.2357 7.25479C14.0875 7.20752 14.1735 6.79625 14.1505 6.65442C14.1367 6.47657 14.2841 6.43678 14.4262 6.4518C14.5276 6.45781 14.6275 6.45406 14.7381 6.4533V6.45256ZM15.1989 6.45256C15.3525 6.48331 15.7465 6.3775 15.8203 6.55611C15.8375 6.5969 15.8457 6.64078 15.8444 6.68486C15.843 6.72896 15.8322 6.77229 15.8126 6.81203C15.7942 6.86004 15.841 6.90056 15.8502 6.94035C15.8694 7.0259 15.8787 7.16549 15.8095 7.22702C15.692 7.31934 15.523 7.2653 15.3733 7.27805C15.2742 7.26303 15.0952 7.33283 15.0791 7.19774C15.0791 7.03715 15.0791 6.89231 15.0791 6.73923C15.0875 6.6184 15.0353 6.42629 15.1989 6.45256ZM17.0208 6.47356C17.1629 6.68069 16.8288 6.62965 16.7066 6.63342C16.6237 6.62217 16.4762 6.63866 16.5331 6.74898C16.7343 6.8803 17.1367 6.62367 17.0976 7.0304C17.1322 7.26904 16.9501 7.2893 16.7681 7.27881C16.6498 7.25254 16.318 7.3606 16.3641 7.15648C16.394 7.06492 16.6982 7.11369 16.7857 7.10845C16.8702 7.12797 16.9601 6.99739 16.8518 6.95386C16.7174 6.91484 16.4624 7.01539 16.3602 6.8788C16.3034 6.80376 16.3249 6.65368 16.3395 6.56138C16.3748 6.45707 16.5069 6.4503 16.5976 6.45106C16.6882 6.4518 16.7973 6.45106 16.8779 6.45557C16.9155 6.46005 16.9839 6.4353 17.0208 6.47356ZM12.2257 6.46305C12.2933 6.53811 12.2441 6.77225 12.2587 6.87205C12.2387 7.01465 12.3394 7.3636 12.1005 7.2668C11.9891 7.22551 12.1289 7.05367 12.0075 7.02516C11.4822 6.99889 11.7725 7.0514 11.6412 7.26229C11.4876 7.34408 11.4753 7.18725 11.4876 7.08068C11.5121 6.89906 11.4376 6.64691 11.5306 6.50584C11.602 6.44279 11.7118 6.45704 11.8055 6.4548C11.9576 6.46155 12.1112 6.43979 12.2257 6.46305ZM12.5943 6.46305C12.6865 6.5231 12.6182 6.72872 12.6389 6.82402C12.6112 6.99138 12.7357 7.33509 12.4853 7.27955C12.3562 7.26754 12.4408 6.85105 12.4192 6.73623C12.4185 6.56062 12.3747 6.41054 12.5943 6.46155V6.46305ZM15.2964 6.63566C15.3894 6.62815 15.4938 6.63566 15.5914 6.63566C15.6057 6.64166 15.6182 6.65118 15.6277 6.66329C15.6372 6.67539 15.6433 6.6897 15.6455 6.70479C15.6476 6.71988 15.6458 6.73525 15.6401 6.74946C15.6344 6.76364 15.625 6.77613 15.6129 6.78576C15.5829 6.80302 15.5537 6.79101 15.5184 6.79401C15.3909 6.79625 15.1544 6.81501 15.2964 6.63566ZM10.8309 6.63566C10.9476 6.63566 11.1903 6.58088 11.1473 6.75949C11.1389 6.8593 11.1665 6.98461 11.1396 7.06792C11.0935 7.12046 10.9975 7.09493 10.9468 7.1002C10.8961 7.10544 10.7648 7.11069 10.7702 7.02516C10.8009 6.9306 10.721 6.65218 10.8309 6.63566ZM11.7472 6.63566C11.8647 6.62965 12.1143 6.59063 12.0544 6.75873C12.0736 6.8638 11.9538 6.8563 11.8862 6.85029C11.8318 6.85515 11.777 6.85263 11.7234 6.84278C11.6504 6.82629 11.6427 6.63566 11.7472 6.63566ZM14.3694 6.64767C14.8525 6.61616 14.6912 6.64767 14.7119 7.05517C14.7166 7.10394 14.3133 7.10845 14.3364 7.04015C14.3563 6.95086 14.2995 6.6912 14.3694 6.64991V6.64767ZM15.2803 6.95386C15.3528 6.94111 15.4267 6.93784 15.5 6.94409C15.5875 6.92683 15.7112 6.96812 15.6536 7.06418C15.5998 7.13922 15.5053 7.0957 15.4309 7.10771C15.3955 7.10394 15.3179 7.12196 15.2826 7.09343C15.2603 7.06342 15.2396 6.98461 15.2811 6.9561L15.2803 6.95386ZM13.3102 6.98988C13.3102 6.98988 13.3094 6.99212 13.311 6.99212L13.3102 6.98988ZM8.09266 8.15457C8.6088 8.18385 9.08501 8.15457 9.62881 8.16583C9.93143 8.1741 10.2502 8.12006 10.4967 8.26866C10.7871 8.41273 10.6895 8.77971 10.7057 8.99284C10.7057 9.22473 10.7057 9.4386 10.7057 9.67425C10.7057 9.90989 10.7057 10.2183 10.7057 10.4525C10.7679 11.1376 10.3285 11.1534 9.76706 11.2029C9.52513 11.2217 9.32081 11.2187 9.1073 11.2495C8.89378 11.2802 8.64644 11.3117 8.4383 11.2059C8.26316 11.1159 8.23476 10.9102 8.25087 10.7406C8.21402 10.0097 8.32309 9.03637 8.20173 8.41424C8.20403 8.3422 7.96363 8.16509 8.09343 8.15684L8.09266 8.15457ZM6.15865 8.17333C6.28615 8.30692 6.0757 9.49938 6.26157 9.52415C6.47126 9.48513 6.67479 9.50916 6.8814 9.47612C6.96359 9.4401 6.89907 9.275 6.91827 9.2007C6.91827 9.01911 6.91827 8.81497 6.91827 8.6281C6.94056 8.51554 6.87143 8.21686 6.96973 8.1741C7.12335 8.15157 7.33072 8.1741 7.47896 8.16659C7.63719 8.17109 7.81154 8.11705 7.77622 8.33469C7.77622 8.64012 7.77622 8.85999 7.77622 9.10016C7.77622 9.37381 7.77622 9.64899 7.77622 9.92564C7.77622 10.2161 7.77622 10.5215 7.77622 10.8179C7.77622 10.9132 7.77622 11.0221 7.77622 11.1181C7.78081 11.326 7.80387 11.3913 7.5842 11.4183C7.45285 11.4498 7.29464 11.4446 7.15714 11.4761C6.80153 11.5961 6.94824 11.3508 6.92057 11.1354C6.90907 10.8209 6.93824 10.5042 6.9106 10.1786C6.87602 10.0892 6.75698 10.1605 6.69631 10.1523C6.60489 10.1673 6.48662 10.168 6.38908 10.1741C6.32456 10.1898 6.20858 10.156 6.20167 10.2386C6.18553 10.6326 6.20167 11.1797 6.19552 11.5639C6.17324 11.714 5.92284 11.6517 5.81148 11.7072C5.72652 11.7325 5.63892 11.7484 5.55033 11.7545C5.48813 11.7545 5.41591 11.8295 5.36215 11.7793C5.30455 10.8037 5.3706 9.53166 5.3391 8.58534C5.32179 8.49547 5.28769 8.40949 5.2385 8.33169C5.02113 8.09379 5.23235 8.18161 5.4067 8.16959C5.6548 8.17333 5.91287 8.15157 6.15941 8.1756L6.15865 8.17333ZM22.0394 8.16509C22.1109 8.23338 21.7599 8.5801 21.7061 8.68515C21.5939 8.85024 21.5609 8.83899 21.3842 8.82698C21.2506 8.81873 21.0716 8.82023 20.9234 8.81423C20.7598 8.81423 20.6353 8.80748 20.4894 8.79921C20.4105 8.78696 20.3299 8.79132 20.2528 8.81199C20.1046 8.87051 20.1952 9.09339 20.1714 9.21496C20.1499 9.38456 20.2406 9.45135 20.3827 9.50615C20.4357 9.54017 20.4914 9.57004 20.5493 9.59545C20.6031 9.63898 20.6699 9.64722 20.7229 9.69526C20.7844 9.72071 20.8435 9.75134 20.8996 9.78681C20.9579 9.79656 20.9956 9.8491 21.0532 9.86185C21.2583 9.98042 21.5378 10.087 21.6307 10.3211C21.6855 10.4936 21.708 10.6744 21.6967 10.8547C21.6967 11.0296 21.6967 11.2157 21.6967 11.374V11.8671C21.6967 12.0922 21.6877 12.3924 21.4602 12.4982C21.2736 12.5928 21.0263 12.5042 20.8589 12.4412C20.7733 12.4253 20.6902 12.3988 20.6115 12.3624C20.5323 12.3452 20.455 12.3201 20.3811 12.2873C20.3048 12.2718 20.231 12.2465 20.1614 12.2123C20.1015 12.1853 20.0263 12.1943 19.9686 12.1492C19.7398 12.085 19.5465 11.9347 19.431 11.7312C19.3373 11.5421 19.3542 11.2674 19.3542 11.0648C19.3711 10.971 19.2974 10.7189 19.431 10.7241C19.6261 10.7549 19.8289 10.7774 19.9948 10.8202C20.2252 10.8247 20.1806 10.884 20.1845 11.0678C20.1883 11.2517 20.1346 11.4956 20.3335 11.5751C20.4433 11.5902 20.5217 11.6502 20.6315 11.6637C20.8266 11.7387 20.8727 11.6224 20.8542 11.4295C20.8542 11.257 20.8542 11.0716 20.8542 10.8547C20.8481 10.7046 20.8949 10.5268 20.7429 10.445C20.6538 10.3857 20.5589 10.3354 20.4595 10.2949C20.4226 10.2506 20.3734 10.2469 20.3281 10.2258C20.2738 10.1888 20.2156 10.1577 20.1545 10.1328C20.12 10.0975 20.0823 10.0975 20.0439 10.075C20.0044 10.0468 19.9606 10.0248 19.9141 10.0097C19.8296 9.95415 19.7444 9.92114 19.663 9.8686C19.3834 9.73278 19.295 9.5114 19.3219 9.22773C19.3219 9.05737 19.3219 8.88402 19.3219 8.72116C19.3256 8.59671 19.2957 8.47352 19.2351 8.36396C19.1952 8.30241 19.0377 8.17109 19.1583 8.15233C19.9134 8.18385 21.2575 8.15834 22.0401 8.16733L22.0394 8.16509ZM10.9645 8.16058C11.6212 8.16883 12.3939 8.16883 13.1082 8.16058C13.2457 8.13508 13.1712 8.60336 13.185 8.69416C13.1627 8.75945 13.0928 8.73091 13.036 8.73392C12.7142 8.74143 12.2725 8.72493 11.983 8.73842C11.9108 8.86977 11.983 9.10991 11.953 9.26375C11.95 9.27414 11.9499 9.28516 11.9527 9.29562C11.9555 9.30609 11.9611 9.31565 11.9689 9.3233C11.9767 9.33092 11.9865 9.33641 11.9972 9.33913C12.0079 9.34187 12.0192 9.34175 12.0298 9.33879C12.324 9.3478 12.7142 9.33355 12.9999 9.3463C13.0944 9.40034 13.0283 9.57144 13.0475 9.65924C13.0314 9.95942 13.1335 10.0202 12.7841 9.99019C12.6151 9.99544 12.4 9.98192 12.1965 9.98419C12.1243 10.0014 12.006 9.94891 11.973 9.99768C11.9315 10.099 11.9645 10.2431 11.9553 10.3579C11.9461 10.4727 11.9261 10.577 12.0744 10.5508C12.3662 10.5575 12.612 10.5508 12.8893 10.5658C13.2103 10.562 13.1965 10.547 13.1888 10.8742C13.2088 11.2644 13.1489 11.1159 12.8048 11.1354C12.5268 11.1294 12.2848 11.1241 12.0367 11.1226C11.8493 11.1226 11.6658 11.1301 11.4991 11.1286C11.4146 11.1084 11.0728 11.2037 11.0966 11.0536C11.0966 10.3211 11.0966 9.38456 11.0966 8.56134C11.0867 8.44334 11.0319 8.33328 10.943 8.25288C10.9046 8.1981 10.8762 8.14182 10.9653 8.16285L10.9645 8.16058ZM15.6121 8.18235C15.8164 8.20785 16.0008 8.29941 16.0806 8.52005C16.1137 8.74519 16.0914 9.10766 16.0914 9.38606C16.01 9.702 15.821 9.6112 15.7488 9.72977C15.7542 9.79506 15.8564 9.77406 15.8979 9.81232C16.1459 9.96242 16.0906 10.2806 16.096 10.5538C16.0891 10.8374 16.1644 11.2037 15.8303 11.2907C15.4731 11.335 15.0829 11.2674 14.7795 11.2367C14.4877 11.2082 14.1735 11.2082 13.8924 11.1759C13.5929 11.1759 13.685 11.0716 13.6735 10.8149C13.6735 10.3887 13.6735 9.90164 13.6735 9.48887C13.6558 9.11815 13.7127 8.77444 13.6412 8.42398C13.6251 8.32117 13.3509 8.15233 13.5583 8.15984C13.9562 8.17484 14.3847 8.15984 14.7872 8.16583C15.0491 8.1771 15.3256 8.14482 15.6129 8.18461L15.6121 8.18235ZM18.7797 8.16359C18.8565 8.14707 18.8703 8.25438 18.8634 8.32194C18.8572 9.28776 18.8695 10.4607 18.8588 11.4273C18.849 11.522 18.8018 11.6092 18.7272 11.6703C18.6526 11.7314 18.5565 11.7616 18.4594 11.7545C18.2987 11.7579 18.1386 11.7353 17.9855 11.6877C17.8956 11.6585 17.8019 11.6704 17.712 11.6382C17.5769 11.5864 17.4002 11.5917 17.2604 11.5459C17.1383 11.5136 17.0246 11.5249 16.9155 11.4708C16.6083 11.3823 16.4363 11.1706 16.4347 10.8547C16.4393 10.3106 16.4347 9.85735 16.4347 9.31329C16.4255 9.03486 16.4593 8.74219 16.414 8.49902C16.3984 8.40861 16.3501 8.32663 16.2781 8.2679C16.1828 8.15157 16.2404 8.15083 16.3595 8.16359C16.4409 8.16359 16.5446 8.16359 16.6245 8.16359C17.4232 8.16359 17.2842 8.04502 17.2904 8.7512V10.3279C17.3196 10.523 17.1874 10.9823 17.4663 10.9928C17.5991 10.9928 17.9356 11.1669 18.0039 10.9965C18.03 10.1793 17.9801 8.97708 18.0223 8.19286C18.0661 8.12981 18.1637 8.18535 18.2305 8.16733C18.4179 8.16583 18.6038 8.17033 18.7804 8.16583L18.7797 8.16359ZM4.40283 8.16959C4.64247 8.19886 4.86366 8.28516 4.92818 8.53581C4.95484 8.59604 4.96594 8.66176 4.96044 8.72717C4.93741 9.22623 5.01498 9.85284 4.92435 10.2881C4.90176 10.3668 4.86283 10.4402 4.80995 10.5036C4.75711 10.567 4.69146 10.619 4.61712 10.6566C4.57915 10.6837 4.53476 10.701 4.48809 10.7069C4.42873 10.7395 4.36307 10.7597 4.2953 10.7661C4.15244 10.7722 4.03185 10.8254 3.91125 10.8412C3.72308 10.8562 3.55256 10.908 3.35671 10.9327C3.30525 10.9448 3.31293 10.995 3.31369 11.0311C3.30831 11.353 3.31369 11.7755 3.31369 12.0629C3.33521 12.3046 3.29525 12.2513 3.08327 12.3376C3.00143 12.3495 2.9219 12.3736 2.84748 12.4089C2.75678 12.4216 2.6688 12.4487 2.58709 12.4892C2.36511 12.5642 2.45806 12.3211 2.44039 12.1672C2.44039 11.9856 2.44039 11.741 2.44039 11.5834C2.44039 11.1676 2.44039 10.7579 2.44039 10.3294C2.44039 9.81458 2.44039 9.28852 2.44039 8.78195C2.44039 8.68591 2.3344 8.62212 2.27448 8.53957C2.18923 8.42248 2.04943 8.31443 2.00488 8.19059C2.61015 8.12831 3.64551 8.18235 4.4036 8.17183L4.40283 8.16959ZM13.4746 8.18084V8.18535C13.4746 8.18535 13.4753 8.18535 13.4753 8.18385L13.4746 8.18084ZM9.15491 8.71892C9.29241 8.66114 9.46982 8.6964 9.62037 8.68364C9.92758 8.63711 9.82851 8.94931 9.84157 9.13391C9.79319 9.53616 9.94834 10.3924 9.76476 10.6633C9.66184 10.7076 9.53433 10.6791 9.42527 10.6949C9.3139 10.6949 9.22404 10.7286 9.12879 10.6806C9.04737 10.2964 9.12879 9.63373 9.09807 9.23822C9.09807 9.14742 9.09807 9.05887 9.09807 8.95532C9.11036 8.88703 9.0758 8.76245 9.15567 8.72116L9.15491 8.71892ZM14.599 8.68815C14.7196 8.6814 14.8771 8.6964 14.9831 8.6964C15.0266 8.68918 15.0712 8.69149 15.1137 8.70317C15.1562 8.71485 15.1956 8.73561 15.2289 8.76395C15.258 8.81346 15.235 8.88176 15.2435 8.94106C15.2243 9.04912 15.2888 9.37407 15.1974 9.40635C15.0376 9.45436 14.884 9.41309 14.7273 9.4176C14.4838 9.43109 14.5299 9.37557 14.5299 9.18645V8.90352C14.5376 8.84274 14.4961 8.70691 14.5998 8.69039L14.599 8.68815ZM3.36592 8.88703C3.49419 8.8675 3.65242 8.869 3.78145 8.85775C3.98268 8.81723 4.1148 8.87351 4.08869 9.09715C4.08869 9.44911 4.08869 9.62246 4.08869 9.94517C4.0764 10.078 3.97577 10.102 3.84903 10.114C3.69463 10.1494 3.53678 10.1685 3.37821 10.171C3.25379 10.1883 3.34671 9.40482 3.32137 9.26599C3.32137 9.1992 3.32137 9.11591 3.32137 9.04087C3.31678 8.98907 3.29372 8.90652 3.36592 8.88703ZM14.5798 9.91439C14.7166 9.90164 14.8464 9.93616 14.9792 9.93315C15.1935 9.9204 15.268 9.98719 15.2388 10.2131C15.2465 10.3181 15.2388 10.4149 15.2388 10.5088C15.2327 10.5875 15.2688 10.6746 15.1782 10.7144C15.0752 10.7722 14.8763 10.7039 14.7595 10.7069C14.5214 10.6903 14.5115 10.7144 14.5291 10.4615C14.5291 10.3497 14.5291 10.2596 14.5291 10.1493C14.5391 10.0705 14.4923 9.95492 14.5821 9.91663L14.5798 9.91439Z" fill="#1A3065"/>
<path fill-rule="evenodd" clip-rule="evenodd" d="M11.9057 3.4517C12.0378 3.45695 12.1607 3.4562 12.2782 3.47121C12.3957 3.48622 13.2153 3.54025 12.7667 3.58452C12.4783 3.59057 12.1907 3.61564 11.9057 3.65957C11.7613 3.66851 11.6181 3.69062 11.4779 3.72561C11.3629 3.73171 11.2488 3.74957 11.1376 3.77889C11.0424 3.80076 10.946 3.8173 10.8488 3.82842C10.6236 3.87546 10.3995 3.92775 10.1768 3.98527C10.1 4.03405 9.98014 4.02729 9.89104 4.06782C9.78121 4.11209 9.66061 4.1196 9.55769 4.17663C9.44633 4.18489 9.35032 4.25168 9.23125 4.26744C9.15786 4.30311 9.08055 4.33055 9.00083 4.34924C8.94133 4.38179 8.8771 4.40532 8.81036 4.41903C8.76428 4.42578 8.7397 4.4588 8.69515 4.47531C8.63663 4.48553 8.58077 4.50696 8.53077 4.53835C8.47625 4.56762 8.4002 4.56687 8.35259 4.6134C8.27741 4.63477 8.20555 4.66607 8.13905 4.70644C8.08053 4.72086 8.02546 4.74635 7.97699 4.78151C7.89557 4.792 7.83413 4.85655 7.76115 4.8723C7.59833 4.95709 7.45394 5.03516 7.30032 5.1102C7.26653 5.14176 7.22581 5.16538 7.18126 5.17923C7.15053 5.19725 7.1275 5.22803 7.08757 5.23702C7.00794 5.27949 6.93099 5.32662 6.85714 5.37811C6.55125 5.55679 6.27034 5.77348 6.02148 6.02274C5.99553 6.04544 5.97604 6.07428 5.96485 6.10648C5.95368 6.13871 5.95124 6.17318 5.95772 6.2066C5.95772 6.28541 5.96234 6.3762 5.95772 6.45575C5.95772 6.71017 5.95772 6.99907 5.95772 7.22048C5.96925 7.43284 5.97155 7.43585 5.74497 7.42159C5.59135 7.42159 5.42391 7.42159 5.25801 7.42159C5.1812 7.42159 5.02758 7.43959 5.06292 7.31578C5.06292 7.21146 5.06292 7.12892 5.06292 7.02761C5.06292 6.76718 5.06292 6.55482 5.06292 6.31542C5.06292 6.05876 5.06292 5.81712 5.06292 5.54321C5.06983 5.46817 5.22804 5.40588 5.28641 5.34359C5.45156 5.22951 5.60824 5.13721 5.77261 5.02465C5.80784 5.01409 5.83964 4.99468 5.86477 4.96837C5.90825 4.9524 5.94871 4.92958 5.9846 4.90081C6.03683 4.8663 6.08676 4.86255 6.12978 4.81452C6.17892 4.78825 6.22041 4.78749 6.26111 4.73948C6.31161 4.72163 6.35901 4.69631 6.40167 4.66443C6.456 4.64289 6.50756 4.61519 6.55529 4.58188C6.65981 4.53045 6.76505 4.48041 6.87096 4.43179C6.93586 4.41501 6.99758 4.38815 7.05376 4.35224C7.11043 4.33602 7.1639 4.31066 7.21199 4.27719C7.24272 4.25993 7.2888 4.26068 7.3272 4.24417C7.38036 4.21169 7.4388 4.18834 7.50002 4.17513C7.53907 4.14931 7.58211 4.1298 7.62752 4.11735C7.7266 4.10984 7.79264 4.0423 7.88251 4.0318C7.93825 4.01485 7.99265 3.99404 8.04536 3.96951C8.11937 3.95744 8.19125 3.93521 8.25888 3.90347C8.35357 3.89007 8.44573 3.86301 8.5323 3.82317C8.63897 3.80926 8.74379 3.78409 8.84491 3.74812C8.94965 3.7364 9.05269 3.71324 9.15215 3.67908C9.25978 3.6703 9.36615 3.65017 9.46936 3.61905C9.63603 3.58452 9.8534 3.57402 10.0185 3.53199C10.2244 3.50573 10.4448 3.50498 10.633 3.47796C11.0561 3.44068 11.4814 3.4319 11.9057 3.4517ZM14.2706 3.99202C14.508 4.02204 14.7314 4.0378 14.9749 4.06706C15.1447 4.10384 15.3444 4.1226 15.521 4.15562C15.6214 4.18427 15.7242 4.20386 15.8283 4.21416C15.9375 4.25003 16.0495 4.27738 16.1631 4.29595C16.2853 4.34173 16.4396 4.35974 16.5564 4.41528C16.6793 4.42653 16.7937 4.49482 16.9228 4.51959C16.987 4.55485 17.0564 4.58016 17.1286 4.59463C17.1716 4.61973 17.2182 4.63844 17.2669 4.65017C17.3136 4.65921 17.3575 4.67874 17.3951 4.70721C17.4411 4.71965 17.4862 4.73467 17.5303 4.75223C17.5896 4.7831 17.6519 4.80825 17.7162 4.82727C17.7707 4.87304 17.8421 4.87605 17.8944 4.91433C17.9466 4.95261 18.0181 4.95111 18.0749 5.00513C18.124 5.03216 18.187 5.0344 18.2285 5.08017C18.3291 5.12128 18.4249 5.17287 18.5142 5.23401C18.5373 5.25654 18.5672 5.24977 18.591 5.26479C18.6147 5.28488 18.6404 5.30247 18.6678 5.31732C18.7115 5.33537 18.7515 5.36078 18.7861 5.39236C18.8537 5.42538 18.9705 5.48466 18.9881 5.54995C18.9881 5.89066 18.9881 6.20886 18.9881 6.54056C18.9881 6.70866 18.9881 6.86702 18.9881 7.04787C18.9943 7.56118 19.0749 7.40133 18.3775 7.42834C18.1233 7.41485 18.0641 7.5034 18.0925 7.2122C18.0925 7.06212 18.0925 6.87526 18.0925 6.70342C18.0925 6.57658 18.0925 6.46326 18.0925 6.32443C18.0987 6.15032 18.121 6.06477 17.912 5.97547C17.7479 5.85676 17.5743 5.75109 17.3928 5.65953C17.3606 5.62051 17.316 5.62502 17.2753 5.59498C17.1927 5.5383 17.1035 5.49146 17.0096 5.45541C16.9397 5.40061 16.8629 5.38862 16.7868 5.33608C16.7223 5.32033 16.6693 5.2738 16.6033 5.25203C16.5487 5.23427 16.4969 5.20901 16.4496 5.17699C16.3878 5.16472 16.3295 5.13907 16.2791 5.10193C16.18 5.08694 16.1009 5.0179 15.9996 5.00362C15.9368 4.96584 15.8672 4.94036 15.7945 4.92858C15.753 4.92107 15.7015 4.87905 15.6585 4.8693C15.5556 4.8693 15.4634 4.78899 15.3559 4.78301C15.3102 4.76911 15.2655 4.75207 15.2223 4.73197C15.1627 4.72229 15.1039 4.70849 15.0464 4.69069C14.9371 4.65532 14.8258 4.6265 14.713 4.60439C14.626 4.57717 14.5365 4.55832 14.4457 4.54811C14.3414 4.51303 14.2331 4.49084 14.1231 4.48207C13.8927 4.42353 13.6746 4.41678 13.4472 4.37925C13.3059 4.34967 13.1617 4.33508 13.0171 4.33573C12.8051 4.31997 12.5785 4.30646 12.3704 4.2922C12.1622 4.27794 11.9564 4.2877 11.7275 4.2922C11.4426 4.30271 11.1415 4.34023 10.8434 4.35149C10.6898 4.35749 10.7375 4.27644 10.8803 4.26969C10.9654 4.26053 11.0492 4.2419 11.1299 4.21416C11.2213 4.19314 11.3281 4.18714 11.4164 4.16688C11.5578 4.11509 11.7237 4.1256 11.8873 4.09183C12.0217 4.04755 12.1876 4.05356 12.3404 4.04005C12.4595 4.03029 12.577 4.00703 12.706 3.99953C13.2281 3.96396 13.752 3.96146 14.2744 3.99202H14.2706ZM12.9188 11.6489C12.9649 11.6489 13.0209 11.6526 13.0724 11.6526C13.5763 11.6842 14.0709 11.6999 14.5963 11.7352C14.8497 11.766 15.0656 11.781 15.339 11.7975C15.5694 11.823 15.7876 11.859 16.0425 11.8725C16.2138 11.8965 16.3244 11.9265 16.4911 11.9371C16.5981 11.9442 16.7041 11.9616 16.8076 11.9888C16.8729 11.9971 16.9904 12.0061 16.9712 12.0894C16.9712 12.3851 16.9566 12.674 16.9258 12.9989C16.8935 13.1224 16.8694 13.2477 16.8537 13.3742C16.8337 13.471 16.7907 13.543 16.7768 13.6398C16.763 13.7366 16.7169 13.7832 16.7 13.8567C16.6954 13.9423 16.6309 14.0068 16.6186 14.0946C16.5971 14.1697 16.5418 14.2109 16.5418 14.28C16.5326 14.322 16.495 14.355 16.4781 14.391C16.461 14.4448 16.4351 14.4955 16.4012 14.5411C16.3877 14.5929 16.3613 14.6405 16.3244 14.68C16.3027 14.7333 16.274 14.7838 16.2392 14.8301C16.0922 15.0715 15.9258 15.3011 15.7415 15.5167C15.69 15.5565 15.5663 15.7869 15.5379 15.6233C15.5419 15.5754 15.5364 15.5273 15.5218 15.4814C15.4949 15.3636 15.4888 15.2308 15.4642 15.11C15.4357 15.0243 15.4121 14.9371 15.3935 14.8488C15.3766 14.799 15.3569 14.7502 15.3344 14.7025C15.3286 14.6537 15.3124 14.6067 15.2868 14.5644C15.2484 14.4984 15.2391 14.4143 15.1839 14.3543C15.1647 14.2792 15.1117 14.2214 15.084 14.1456C14.8352 13.7592 14.541 13.3952 14.1462 13.1243C13.9571 12.9851 13.7553 12.8632 13.5432 12.7603C13.4877 12.745 13.4345 12.7225 13.385 12.6935C13.3096 12.6737 13.2365 12.6463 13.1669 12.6117C13.0769 12.5947 12.9887 12.5696 12.9034 12.5367C12.7856 12.5228 12.6691 12.5002 12.5547 12.4691C12.2279 12.4342 11.8984 12.4304 11.5708 12.4579C11.4257 12.4699 11.2843 12.5217 11.1361 12.5329C11.0901 12.5439 11.0454 12.5592 11.0024 12.5787C10.9517 12.6005 10.8757 12.5997 10.8304 12.6215C10.7536 12.677 10.6376 12.6733 10.5546 12.7393C10.2239 12.8821 9.91935 13.0768 9.65294 13.3156C9.32497 13.6196 9.02464 13.9685 8.85415 14.3663C8.81847 14.4108 8.79233 14.4618 8.77734 14.5164C8.7402 14.5776 8.71421 14.6446 8.70053 14.7145C8.65925 14.7822 8.63309 14.8576 8.62372 14.9359C8.60758 15.0072 8.57455 15.0612 8.56611 15.1302C8.54691 15.2601 8.53077 15.3944 8.50313 15.5055C8.48469 15.5617 8.51771 15.7306 8.42632 15.6706C8.17487 15.3865 7.94803 15.0825 7.74812 14.7618C7.71201 14.6815 7.66208 14.6177 7.62906 14.5366C7.58144 14.4841 7.57221 14.4016 7.53151 14.3513C7.48926 14.2807 7.48543 14.2012 7.42783 14.1299C7.41245 14.0609 7.38655 13.9947 7.35102 13.9333C7.34418 13.8689 7.32323 13.8067 7.28956 13.7509C7.26036 13.6864 7.26574 13.6121 7.24042 13.5438C7.21141 13.4731 7.19231 13.3989 7.18358 13.3232C7.18358 13.2271 7.13518 13.1325 7.1298 13.0537C7.10445 12.9472 7.1083 12.8158 7.09448 12.7115C7.07877 12.5424 7.07312 12.3725 7.07757 12.2027C7.06452 12.0099 7.0576 12.0181 7.26806 11.9828C7.49079 11.9295 7.7243 11.9333 7.92782 11.8823C8.21971 11.8598 8.49083 11.82 8.75581 11.7945C9.17673 11.775 9.49932 11.7119 9.95171 11.7089C10.9203 11.6414 11.8742 11.6219 12.9226 11.6474L12.9188 11.6489ZM6.30413 12.1502C6.33715 12.1577 6.33868 12.2342 6.33715 12.256C6.33715 12.2995 6.33177 12.3408 6.33177 12.3843C6.33177 12.5637 6.33177 12.725 6.35021 12.8909C6.39399 13.1055 6.40397 13.3502 6.47695 13.5783C6.47695 13.6909 6.55376 13.7989 6.55988 13.9175C6.57296 13.9676 6.59285 14.0159 6.61904 14.0608C6.63669 14.0991 6.63671 14.1524 6.65359 14.1892C6.68834 14.2464 6.71421 14.3084 6.7304 14.373C6.76491 14.4283 6.79081 14.4882 6.80721 14.5509C6.83832 14.6017 6.86405 14.6555 6.88402 14.7115C6.92171 14.7682 6.95334 14.8286 6.9785 14.8916C7.19943 15.2686 7.45169 15.6273 7.73274 15.964C8.4702 16.7765 9.35572 17.448 10.3442 17.9444C10.3861 17.9608 10.4249 17.9836 10.4594 18.012C10.4944 18.0197 10.528 18.0323 10.5593 18.0495C10.6138 18.1028 10.6906 18.0953 10.7459 18.1403C10.7869 18.1631 10.8308 18.1805 10.8765 18.1921C10.9095 18.2056 10.9203 18.2266 10.9533 18.2349C11.0301 18.2461 11.0946 18.3032 11.1722 18.3204C11.2261 18.3247 11.2773 18.3451 11.3189 18.3789C11.3619 18.3992 11.4118 18.3947 11.4556 18.4157C11.5624 18.4735 11.6768 18.4735 11.7882 18.5253C11.9832 18.5782 12.1911 18.5628 12.3758 18.4818C12.4519 18.4715 12.5256 18.4487 12.5939 18.4142C12.6507 18.3917 12.7199 18.3955 12.7629 18.3512C12.8059 18.3327 12.8514 18.3204 12.8981 18.3144C12.9404 18.2906 12.9845 18.27 13.0302 18.2529C13.0962 18.2431 13.1339 18.1973 13.1922 18.1831C13.2506 18.1688 13.2997 18.1291 13.3581 18.108C13.3896 18.093 13.4234 18.1013 13.4526 18.0728C13.4902 18.0409 13.5363 18.0201 13.5855 18.0127C13.6334 17.9764 13.6871 17.948 13.7445 17.9287C13.7867 17.8791 13.8574 17.8799 13.9042 17.8446C14.839 17.3253 15.6746 16.7047 16.3859 15.8724C16.5879 15.636 16.7538 15.3824 16.9381 15.122C16.9537 15.0701 16.9798 15.0219 17.0149 14.9801C17.0339 14.9396 17.0568 14.9009 17.0833 14.8646C17.1012 14.8111 17.127 14.7605 17.1601 14.7145C17.1705 14.6704 17.1907 14.6292 17.2193 14.5937C17.2444 14.5152 17.2784 14.4397 17.3206 14.3685C17.331 14.3068 17.3537 14.2476 17.3875 14.1944C17.4067 14.1531 17.409 14.0931 17.4313 14.0443C17.4632 13.9946 17.4829 13.9384 17.4889 13.88C17.5013 13.8202 17.5201 13.7619 17.5449 13.7059C17.5615 13.5968 17.5859 13.4889 17.6179 13.3832C17.6341 13.3022 17.6446 13.2202 17.6494 13.1378C17.6747 13.023 17.6922 12.9066 17.7016 12.7896C17.7116 12.635 17.7147 12.4804 17.7123 12.3228C17.6962 12.1052 17.7231 12.1359 17.9105 12.1629C18.0011 12.175 18.0687 12.2035 18.1586 12.223C18.2631 12.2284 18.3664 12.2473 18.4658 12.2793C18.5803 12.3093 18.7293 12.3108 18.8414 12.3588C18.9536 12.4068 19.1402 12.3693 19.2032 12.4857C19.1999 12.5424 19.1922 12.5989 19.1802 12.6545C19.1724 12.7706 19.1578 12.886 19.1364 13.0004C19.1074 13.1093 19.0874 13.2202 19.0765 13.3322C19.0401 13.446 19.0144 13.5628 18.9997 13.6811C18.9679 13.7495 18.9464 13.8221 18.9359 13.8965C18.909 14.0091 18.8591 14.0916 18.8506 14.2027C18.8101 14.2653 18.7839 14.3356 18.7738 14.4091C18.7598 14.447 18.7418 14.4835 18.7201 14.5179C18.7078 14.5546 18.7047 14.5929 18.6924 14.6267C18.6574 14.6798 18.6339 14.7393 18.6233 14.8015C18.6056 14.8436 18.5857 14.8683 18.5634 14.9111C18.5578 14.9515 18.5442 14.9905 18.5235 15.0259C18.4918 15.0716 18.4687 15.1224 18.4551 15.176C18.4059 15.227 18.4059 15.2976 18.3683 15.3524C18.3363 15.3897 18.3146 15.4344 18.3053 15.4822C18.2702 15.5214 18.2441 15.5675 18.2285 15.6173C18.1517 15.7411 18.071 15.8815 17.9935 16.0188C17.4382 16.8872 16.7431 17.6623 15.935 18.3144C15.6916 18.5185 15.4565 18.6896 15.1908 18.8757C15.114 18.9283 15.0371 18.9808 14.9673 19.0258C14.9395 19.0506 14.9082 19.0713 14.8743 19.0874C14.8459 19.1176 14.8086 19.1383 14.7676 19.1467C14.7272 19.1829 14.6814 19.2128 14.6316 19.2352C14.6053 19.261 14.5732 19.2805 14.5379 19.2922C14.4829 19.3286 14.4257 19.3617 14.3666 19.3913C14.3293 19.4235 14.2853 19.4473 14.2376 19.4611C14.1988 19.4929 14.155 19.5183 14.1078 19.5362C14.0701 19.5564 14.0394 19.5932 13.9926 19.5984C13.9476 19.6279 13.8997 19.6531 13.8497 19.6735C13.7637 19.7238 13.6631 19.7658 13.5763 19.8176C13.5048 19.8221 13.4664 19.8791 13.3935 19.8926C13.3351 19.8986 13.3036 19.9496 13.2521 19.9616C13.1753 19.9729 13.1162 20.0367 13.0409 20.0487C12.9941 20.0487 12.9564 20.0952 12.9042 20.111C12.8598 20.1158 12.8169 20.1296 12.7782 20.1515C12.7228 20.1803 12.6637 20.2015 12.6023 20.2146C12.5378 20.2671 12.4541 20.2656 12.3827 20.2963C12.3174 20.3306 12.2464 20.3532 12.173 20.3631C12.1185 20.3819 12.0754 20.4224 12.014 20.4172C11.9372 20.4172 11.8873 20.3571 11.8059 20.3481C11.7244 20.3391 11.6484 20.2814 11.5754 20.2731C11.5192 20.262 11.4657 20.2403 11.418 20.2093C11.3609 20.2004 11.3063 20.1802 11.2575 20.15C11.2182 20.1318 11.1766 20.1189 11.1338 20.1118C11.0992 20.1065 11.07 20.0727 11.0309 20.0585C10.9673 20.0422 10.9065 20.0169 10.8504 19.9834C10.7948 19.9681 10.7426 19.9426 10.6967 19.9084C10.627 19.8832 10.559 19.8536 10.4932 19.8198C10.4505 19.8073 10.4106 19.7869 10.3757 19.7598C10.3404 19.7395 10.2989 19.7403 10.2728 19.714C8.83571 18.9996 7.42398 17.9129 6.44928 16.6011C6.19439 16.2616 5.9681 15.9025 5.77261 15.5272C5.73421 15.4935 5.7273 15.4349 5.70425 15.3944C5.66799 15.3408 5.63908 15.2828 5.61823 15.2218C5.57674 15.1798 5.56907 15.1077 5.54142 15.0642C5.49073 15.0192 5.49226 14.9396 5.46461 14.8908C5.4093 14.8256 5.41468 14.722 5.35402 14.6484C5.32637 14.5824 5.33405 14.5126 5.28182 14.4563C5.26599 14.4124 5.25566 14.3668 5.25109 14.3205C5.2388 14.2897 5.21116 14.2537 5.19655 14.2139C5.17464 14.1083 5.14461 14.0044 5.10668 13.9032C5.09511 13.8258 5.07342 13.7502 5.04217 13.6781C5.031 13.5723 5.00675 13.4683 4.96997 13.3682C4.94924 13.2969 4.95154 13.2121 4.93542 13.1228C4.89345 12.9904 4.87045 12.853 4.86705 12.7145C4.87243 12.6275 4.80406 12.5322 4.85476 12.4556C4.93614 12.4094 5.02796 12.3836 5.12206 12.3806C5.20425 12.3671 5.26186 12.331 5.34864 12.3198C5.46562 12.3081 5.58095 12.2842 5.69274 12.2485C5.77852 12.243 5.8636 12.23 5.94696 12.2095C6.02891 12.1823 6.11409 12.1657 6.20044 12.1599L6.29184 12.1517C6.29574 12.1502 6.29997 12.1497 6.30413 12.1502ZM19.194 12.5817C19.194 12.5817 19.1955 12.5817 19.197 12.5817H19.194ZM12.3297 12.8819C12.4378 12.9021 12.5471 12.9159 12.6569 12.9232C12.7598 12.9412 12.8481 12.9832 12.9641 12.9937C13.0169 13.0085 13.0683 13.0275 13.1177 13.0507C13.1706 13.0597 13.2221 13.0749 13.2713 13.0958C13.332 13.1505 13.4104 13.1295 13.4687 13.1821C13.6539 13.2616 13.5194 13.2841 13.4127 13.2916C13.3474 13.3232 13.2744 13.3457 13.2068 13.3839C12.6577 13.7134 13.0747 13.8815 12.5086 13.7592C12.1668 13.7396 12.2467 13.7464 12.2536 13.4335C12.2536 13.3419 12.2598 13.2376 12.2606 13.1393C12.2751 13.068 12.2214 12.8766 12.3328 12.8819H12.3297ZM11.7452 12.8819C11.812 12.9404 11.7728 13.0785 11.7882 13.1821C11.7882 13.3322 11.7882 13.51 11.8066 13.6743C11.7897 13.7809 11.653 13.7352 11.5762 13.7494C11.4902 13.7637 11.3834 13.7884 11.2767 13.7967C11.2121 13.8162 11.1806 13.7592 11.1776 13.7044C11.1499 13.6639 11.1115 13.6196 11.0854 13.579C11.0049 13.4944 10.9126 13.4211 10.8112 13.3614C10.7597 13.3509 10.711 13.33 10.6683 13.2999C10.5915 13.2736 10.3542 13.2774 10.5693 13.1836C10.6176 13.14 10.6837 13.1423 10.739 13.1145C10.8258 13.0545 10.951 13.0515 11.0462 13.0012C11.1645 12.9809 11.2597 12.9479 11.3919 12.9187C11.5148 12.9157 11.6369 12.8901 11.7482 12.8849L11.7452 12.8819ZM16.902 13.1228C16.902 13.1228 16.9036 13.1258 16.9051 13.1258L16.902 13.1228ZM10.08 13.5235C10.2036 13.5199 10.3268 13.5376 10.4441 13.576C10.5073 13.5811 10.5674 13.6053 10.6161 13.6451C10.6929 13.6706 10.898 13.8402 10.7628 13.8973C10.686 13.9513 10.5739 13.9415 10.4986 13.979C10.4387 14.0104 10.3737 14.0314 10.3066 14.0413C10.2661 14.0733 10.218 14.0948 10.1668 14.1036C10.1015 14.1209 10.047 14.1704 9.97937 14.1854C9.93126 14.2161 9.8797 14.2413 9.82576 14.2605C9.77755 14.291 9.72601 14.3161 9.67214 14.3355C9.62692 14.3742 9.57486 14.4044 9.51852 14.4248C9.38411 14.5269 9.25737 14.5877 9.1291 14.7025C9.05229 14.7588 8.9755 14.8338 8.90637 14.8848C8.81189 14.8916 8.91096 14.7497 8.93631 14.7182C9.11226 14.3661 9.35402 14.0493 9.64909 13.7839C9.71284 13.7156 9.78812 13.6714 9.85572 13.6076C9.93788 13.5671 9.9809 13.5085 10.0831 13.5265L10.08 13.5235ZM14.074 13.5378C14.3206 13.7072 14.5385 13.9133 14.7199 14.1486C14.8163 14.2546 14.9013 14.3701 14.9734 14.4931C15.0072 14.5216 15.0126 14.5682 15.0295 14.5952C15.0671 14.6461 15.0978 14.7016 15.1209 14.7603C15.1623 14.791 15.2046 14.9148 15.1285 14.8961C15.0571 14.8281 14.982 14.764 14.9035 14.704C14.8316 14.6404 14.7528 14.5848 14.6685 14.5381C14.6031 14.4837 14.5311 14.4373 14.4542 14.4001C14.4173 14.3843 14.385 14.349 14.3512 14.3325C14.3138 14.3234 14.2792 14.3053 14.2506 14.28C14.1877 14.2542 14.1269 14.2239 14.0686 14.1892C14.0089 14.1716 13.9518 14.1464 13.8989 14.1141C13.835 14.1001 13.7743 14.0747 13.7199 14.0391C13.6216 14.0331 13.5663 13.979 13.4726 13.9588C13.3789 13.9385 13.1431 13.8988 13.2729 13.7607C13.3162 13.7102 13.3701 13.6694 13.4311 13.6413C13.4787 13.5873 13.5571 13.5918 13.6185 13.5708C13.7176 13.5389 13.8215 13.5237 13.9257 13.5258C13.9872 13.5348 14.0379 13.5108 14.0786 13.5408L14.074 13.5378ZM11.8036 14.1306C11.8635 14.1562 11.8235 14.2305 11.8366 14.2687C11.842 14.3775 11.8473 14.4758 11.8527 14.5899C11.8642 14.9119 11.8696 15.2713 11.8804 15.6045C11.9134 16.2597 11.9572 17.0049 11.9572 17.7703C11.9149 17.8544 11.7521 17.7508 11.6791 17.7261C11.6296 17.7201 11.5814 17.7064 11.5363 17.6855C11.4948 17.6442 11.4326 17.6465 11.3773 17.6308C11.3175 17.5937 11.2526 17.5654 11.1845 17.5467C11.1269 17.4987 11.0439 17.4957 10.9763 17.4529C10.9402 17.4199 10.8803 17.4169 10.845 17.3929C10.7997 17.3456 10.7321 17.3463 10.6814 17.3141C10.6422 17.2835 10.5961 17.2624 10.547 17.2525C10.5012 17.2163 10.4492 17.1884 10.3934 17.17C10.3505 17.1372 10.3032 17.1105 10.2528 17.0904C10.2152 17.0507 10.1645 17.0446 10.1253 17.0154C10.0458 16.9679 9.96883 16.9163 9.89489 16.8608C9.87798 16.8188 9.93788 16.7857 9.93097 16.7422C9.94941 16.6844 9.95479 16.6199 9.97399 16.5606C10.0081 16.4936 10.0362 16.4238 10.0577 16.352C10.1023 16.3107 10.1061 16.2387 10.1345 16.1899C10.1642 16.1498 10.1884 16.1062 10.2067 16.06C10.2339 16.0232 10.2561 15.9831 10.2728 15.9407C10.401 15.7614 10.5201 15.573 10.6484 15.3914C10.772 15.2293 10.8849 15.0574 10.9932 14.8901C11.0172 14.8545 11.0378 14.8168 11.0547 14.7775C11.0811 14.7509 11.0995 14.7177 11.1077 14.6815C11.1292 14.6214 11.1699 14.5952 11.1776 14.5314C11.2113 14.4211 11.259 14.3475 11.259 14.2229C11.2851 14.1336 11.3888 14.1674 11.4479 14.1479C11.5655 14.1351 11.683 14.1029 11.8036 14.1284V14.1306ZM12.5232 14.1374C12.5751 14.1409 12.6265 14.1492 12.6769 14.1622C12.7229 14.1622 12.7767 14.1689 12.7875 14.2282C12.7836 14.2867 12.7939 14.3453 12.8174 14.3993C12.8589 14.4901 12.8635 14.5742 12.928 14.6605C12.952 14.7221 12.9824 14.7812 13.0186 14.8368C13.034 14.8886 13.0885 14.9224 13.0955 14.9712C13.3259 15.3163 13.6055 15.6616 13.8029 16.0218C13.8597 16.0721 13.8589 16.1471 13.9127 16.2011C13.9313 16.2593 13.9571 16.315 13.9895 16.367C14.0164 16.4098 14.0187 16.4766 14.041 16.5118C14.0769 16.5842 14.0998 16.6622 14.1085 16.7422C14.1139 16.809 14.1953 16.8563 14.1016 16.899C14.0655 16.9193 14.0402 16.9576 13.9918 16.9741C13.9466 17.0081 13.897 17.0361 13.8443 17.0574C13.812 17.0852 13.7754 17.108 13.736 17.125C13.7024 17.1372 13.6716 17.1558 13.6454 17.1797C13.5973 17.1938 13.5529 17.2182 13.5156 17.251C13.4826 17.2705 13.4457 17.269 13.4134 17.2893C13.3812 17.3095 13.3535 17.3373 13.3144 17.3426C13.2228 17.3929 13.129 17.4392 13.0332 17.4814C12.9564 17.4912 12.885 17.5512 12.8074 17.573C12.7621 17.5833 12.7194 17.6027 12.6822 17.63C12.6385 17.648 12.597 17.6442 12.5586 17.663C12.4997 17.7023 12.4325 17.728 12.3619 17.738C12.2851 17.7688 12.1645 17.8379 12.0985 17.7988C12.0616 17.7523 12.0939 17.6713 12.087 17.615C12.0939 17.5144 12.0939 17.3899 12.0977 17.2931C12.1023 16.821 12.1192 16.3527 12.1446 15.9745C12.1699 15.5963 12.1761 15.149 12.1884 14.6987C12.1884 14.5276 12.2083 14.37 12.2052 14.1959C12.2114 14.0661 12.4349 14.1367 12.5225 14.1351L12.5232 14.1374ZM10.8427 14.2672C10.8765 14.3055 10.8511 14.355 10.825 14.391C10.7989 14.4271 10.7928 14.5104 10.7705 14.5682C10.738 14.6183 10.7121 14.6722 10.6937 14.7287C10.646 14.77 10.6453 14.8323 10.603 14.8788C10.5439 14.9696 10.484 15.071 10.4202 15.1505C10.3311 15.3126 10.1768 15.4815 10.1007 15.6533C10.0597 15.7153 10.027 15.7821 10.0032 15.8522C9.94941 15.916 9.95632 15.9835 9.92636 16.0518C9.89484 16.1146 9.87557 16.1825 9.86954 16.2522C9.84089 16.3406 9.82107 16.4316 9.81038 16.5238C9.78812 16.6056 9.82499 16.7084 9.77659 16.7872C9.73742 16.794 9.70978 16.7385 9.6637 16.722C9.36878 16.5132 9.08665 16.2876 8.8188 16.0465C8.74199 15.9625 8.61219 15.8822 8.58378 15.7809C8.60982 15.7272 8.62745 15.6701 8.63601 15.6113C8.66289 15.4987 8.66136 15.3824 8.71741 15.2848C8.88193 15.1275 9.0641 14.9888 9.26045 14.8713C9.29886 14.8573 9.33427 14.8364 9.3649 14.8098C9.40639 14.7843 9.44171 14.782 9.47474 14.7475C9.53081 14.7152 9.58765 14.7085 9.62835 14.6672C9.72436 14.6372 9.80579 14.5689 9.9018 14.5576C9.95536 14.5166 10.0194 14.4907 10.0869 14.4826C10.1463 14.4427 10.2144 14.417 10.2858 14.4076C10.3693 14.3713 10.4566 14.3444 10.5462 14.3273C10.6156 14.2947 10.6901 14.2739 10.7666 14.2657C10.782 14.2642 10.8196 14.2447 10.8419 14.265L10.8427 14.2672ZM13.3773 14.2837C13.4211 14.2942 13.4772 14.3243 13.5202 14.3348C13.5872 14.3431 13.6525 14.3616 13.7138 14.3895C13.7675 14.4196 13.8466 14.4158 13.8996 14.4458C13.9565 14.4939 14.0195 14.4826 14.0855 14.5156C14.1381 14.549 14.1956 14.5743 14.256 14.5907C14.3132 14.6252 14.3739 14.6536 14.4373 14.6755C14.4777 14.705 14.5225 14.7283 14.5702 14.7445C14.607 14.7726 14.6475 14.7955 14.6907 14.8128C14.7768 14.8796 14.9012 14.9276 14.9903 15.0079C15.0656 15.0523 15.1359 15.1044 15.2 15.1633C15.2797 15.213 15.3411 15.2864 15.3751 15.3726C15.4004 15.4815 15.4158 15.6113 15.4327 15.7051C15.4327 15.7374 15.4834 15.7704 15.4688 15.8079C15.3871 15.9152 15.2919 16.0121 15.1854 16.0961C15.0686 16.2064 14.9434 16.3107 14.8182 16.409C14.6969 16.4908 14.5778 16.6049 14.4465 16.6754C14.4035 16.7039 14.3221 16.7985 14.2768 16.7827C14.2368 16.737 14.2591 16.6462 14.2499 16.5981C14.2446 16.5141 14.2304 16.4309 14.2076 16.3497C14.1823 16.2822 14.1861 16.2244 14.1669 16.1554C14.1585 16.1126 14.1247 16.0803 14.1178 16.0375C14.1047 15.9715 14.0786 15.9085 14.041 15.8522C14.0218 15.8064 14.0194 15.7509 13.9764 15.7134C13.919 15.5993 13.8549 15.4885 13.7844 15.3816C13.7514 15.347 13.7242 15.3075 13.7038 15.2646C13.6711 15.2285 13.6451 15.1871 13.6269 15.1423C13.5763 15.092 13.5501 15.0244 13.5025 14.9742C13.4856 14.9464 13.4856 14.9134 13.4549 14.8908C13.418 14.8548 13.4096 14.7985 13.3866 14.7655C13.3435 14.734 13.3359 14.6575 13.3097 14.6154C13.2621 14.5727 13.2629 14.4939 13.2375 14.4421C13.1438 14.2612 13.1945 14.2297 13.3796 14.2815L13.3773 14.2837ZM15.5057 15.3261C15.5057 15.3261 15.508 15.3246 15.508 15.3238L15.5057 15.3261Z" fill="#DF2528"/>
</g>
</svg>
