<svg width="24" height="24" viewBox="0 0 24 24" fill="none" xmlns="http://www.w3.org/2000/svg">
<path d="M21.747 9.87955C22.4588 8.96773 22.8695 7.94907 22.938 6.93753L22.9996 6.06133C23.0064 6.00434 22.9311 5.97585 22.8969 6.02571L22.3972 6.73094C21.3568 8.20552 18.9406 9.70146 16.1 10.6346C15.9152 10.6988 15.7236 10.7557 15.5319 10.8127C15.4566 10.8341 15.3745 10.8555 15.2992 10.8768C14.4778 11.0905 13.3074 11.2259 12 11.2259C10.6926 11.2259 9.51534 11.0905 8.70082 10.8768C8.61868 10.8555 8.54339 10.8341 8.46809 10.8127C8.27644 10.7557 8.08478 10.6988 7.89998 10.6346C5.05255 9.70858 2.63634 8.21264 1.60278 6.73807L1.10311 6.02571C1.06888 5.98297 0.993592 6.01147 1.00044 6.06846L1.06204 6.94465C1.13049 7.95619 1.54802 8.97486 2.25303 9.88667C2.47206 10.1645 2.74586 10.4067 3.05387 10.5848C2.84853 10.5064 2.65003 10.4281 2.45153 10.3426L2.06138 10.1787C2.02031 10.1645 1.97924 10.193 1.98609 10.2428L2.04084 10.6703C2.12983 11.3541 2.69794 12.0166 3.68359 12.5865L3.23868 12.5224C3.20446 12.5153 3.17708 12.5509 3.19761 12.5865L3.40296 13.0281C3.62199 13.4983 4.10112 13.8687 4.79929 14.1181L4.60764 14.1537C4.57341 14.1608 4.55972 14.1964 4.58026 14.2249L4.87458 14.5811C5.08677 14.8304 5.38794 15.0156 5.78494 15.1153L5.62066 16.2979C5.61382 16.3263 5.6412 16.3548 5.67542 16.3477L6.62 16.1126C6.77059 16.077 6.92117 16.0414 7.07176 16.0058L7.55774 15.8989L7.66725 15.0655C7.68094 15.0797 7.69463 15.094 7.70832 15.1082C7.8726 15.2721 8.09847 15.3647 8.33804 15.3647C8.38596 15.3647 8.42702 15.3647 8.47494 15.3575C8.78295 15.3148 9.09781 15.2721 9.40583 15.2436C9.40583 15.2436 9.85758 15.2008 9.88496 15.2008C10.0561 15.1866 10.2272 15.1723 10.4052 15.1652L10.6926 15.151C10.8022 15.1438 10.9185 15.1367 11.028 15.1367L11.2197 15.1296C11.3703 15.1225 11.5277 15.1225 11.6783 15.1225L12.0068 15.1153L12.3354 15.1225C12.486 15.1225 12.6434 15.1296 12.7871 15.1296C12.7871 15.1296 13.191 15.1438 13.2115 15.1438C13.4648 15.1581 13.718 15.1723 13.9713 15.1937C14.1013 15.2008 14.2246 15.1866 14.3409 15.151C14.4504 15.208 14.5805 15.2507 14.7037 15.2649C15.0049 15.3006 15.306 15.3362 15.6004 15.3789C15.6209 15.3789 15.6414 15.386 15.6551 15.386C15.8057 15.6496 16.0658 15.8419 16.367 15.8989C16.6955 15.963 17.0241 16.0343 17.3526 16.1198L18.2972 16.3548C18.3246 16.362 18.352 16.3335 18.352 16.305L18.1877 15.1367C18.5984 15.037 18.9064 14.8518 19.1254 14.5953L19.4197 14.2392C19.4403 14.2107 19.4266 14.175 19.3924 14.1679L19.2007 14.1323C19.8989 13.883 20.378 13.5126 20.597 13.0424L20.8024 12.6007C20.8161 12.5722 20.7887 12.5366 20.7613 12.5366L20.3164 12.6007C21.3021 12.038 21.8702 11.3755 21.9592 10.6845L22.0139 10.2571C22.0208 10.2144 21.9797 10.1787 21.9386 10.193L21.5485 10.3568C21.35 10.4423 21.1515 10.5207 20.9461 10.599C21.2541 10.3996 21.5279 10.1645 21.747 9.87955Z" fill="#DCDDDE"/>
<path d="M12.0006 8.33398C9.24215 8.33398 7.00391 10.6634 7.00391 13.5342C7.00391 16.4049 9.24215 18.7343 12.0006 18.7343C14.759 18.7343 16.9973 16.4049 16.9973 13.5342C16.9973 10.6634 14.7659 8.33398 12.0006 8.33398Z" fill="#DCDDDE"/>
<path d="M12.0005 10.0293C13.8622 10.0293 15.3749 11.6036 15.3749 13.5412C15.3749 15.4788 13.8622 17.046 12.0005 17.046C10.1387 17.046 8.62598 15.4717 8.62598 13.5341C8.62598 11.5965 10.1455 10.0293 12.0005 10.0293Z" fill="#F37021"/>
<path d="M11.9997 17.2241C13.9505 17.2241 15.5384 15.5715 15.5384 13.5413C15.5384 11.5111 13.9505 9.8584 11.9997 9.8584C10.0489 9.8584 8.46094 11.5111 8.46094 13.5413C8.46094 15.5715 10.0489 17.2241 11.9997 17.2241ZM8.79633 14.1254C9.22755 15.1084 10.1242 15.8422 11.2057 16.0915C11.1578 16.2625 11.0277 16.3551 10.9114 16.4121C10.7471 16.4904 10.5349 16.5118 10.3775 16.4762C9.5561 15.9846 8.96745 15.1298 8.79633 14.1254ZM10.3022 10.6491C10.7676 10.3499 11.3152 10.1718 11.897 10.1505V15.9561C11.7464 15.949 11.589 15.9348 11.4453 15.9063C11.4384 15.5002 11.2125 15.0301 10.6855 14.332C10.1721 13.6552 9.95994 13.1993 9.87781 12.6152C9.78198 11.9883 9.85043 11.1549 10.3022 10.6491ZM13.704 10.6491C14.149 11.1549 14.2174 11.9883 14.1284 12.6152C14.0463 13.2065 13.8341 13.6552 13.3207 14.332C12.7937 15.0301 12.5678 15.5002 12.561 15.9063C12.4104 15.9348 12.2598 15.949 12.1092 15.9561V10.1505C12.691 10.1718 13.2386 10.3499 13.704 10.6491ZM13.0059 16.6186C13.0675 16.6471 13.1359 16.6685 13.2044 16.6899C12.8621 16.8323 12.4994 16.9107 12.1092 16.9249V16.1841C12.2735 16.177 12.4309 16.1627 12.5883 16.1414C12.6363 16.3479 12.7868 16.5118 13.0059 16.6186ZM11.4179 16.1342C11.5753 16.1627 11.7327 16.177 11.897 16.177V16.9178C11.5137 16.9036 11.1441 16.8252 10.8019 16.6827C10.8703 16.6685 10.9387 16.64 11.0004 16.6115C11.2194 16.5118 11.3631 16.3479 11.4179 16.1342ZM13.6287 16.4762C13.4713 16.5118 13.266 16.4904 13.0949 16.4121C12.9853 16.3622 12.8484 16.2625 12.8005 16.0915C13.882 15.8422 14.7718 15.1013 15.2099 14.1254C15.0388 15.1298 14.4433 15.9846 13.6287 16.4762ZM15.2441 13.2136C15.0593 14.4958 14.0531 15.543 12.7868 15.8564C12.8074 15.5145 13.0264 15.0942 13.4987 14.4673C14.0326 13.7621 14.2585 13.2634 14.3474 12.6437C14.4159 12.1451 14.3954 11.5324 14.1832 11.0195C14.7718 11.5752 15.1688 12.3445 15.2441 13.2136ZM9.82305 11.0195C9.61086 11.5324 9.59033 12.1522 9.65877 12.6437C9.74776 13.2706 9.98048 13.7621 10.5075 14.4673C10.9798 15.0942 11.1988 15.5145 11.2194 15.8564C9.9531 15.543 8.94692 14.4887 8.76211 13.2065C8.8374 12.3445 9.2344 11.5752 9.82305 11.0195Z" fill="#374EA2"/>
<path d="M10.5145 9.42356L10.7953 9.30955L10.7884 9.28817L10.6994 9.06014C10.6857 9.01738 10.6378 8.996 10.5967 9.01026L9.98047 9.26679L10.0284 9.38081L10.5899 9.14565L10.6241 9.23829L10.0489 9.48057L10.0969 9.59459L10.3776 9.48057L10.4118 9.56608L10.1311 9.6801L10.179 9.79411L10.7542 9.55183L10.8021 9.6801L10.9254 9.63022L10.8637 9.46632C10.8501 9.42356 10.8021 9.40219 10.761 9.41644C10.761 9.41644 10.761 9.41644 10.7542 9.41644L10.5488 9.50195L10.5145 9.42356Z" fill="#374EA2"/>
<path d="M9.60462 9.58028C9.57723 9.54465 9.5293 9.53752 9.49507 9.5589L9.07055 9.90095L9.02946 9.85107L8.92676 9.93658L9.00892 10.0435L9.04316 10.0862L9.09794 10.0435C9.09794 10.0933 9.11163 10.1361 9.13902 10.1789C9.20749 10.2715 9.34443 10.2857 9.44029 10.2074C9.53615 10.129 9.55669 9.99358 9.48822 9.90095C9.46083 9.86532 9.41975 9.83681 9.37182 9.82969L9.52246 9.70855L9.7895 10.072L9.40606 10.3784L9.35128 10.3L9.24173 10.3855L9.31704 10.4924C9.34443 10.528 9.39921 10.5352 9.43344 10.5067L9.96067 10.0862L9.9059 10.015L9.72787 9.77981L9.81004 9.71567L9.73472 9.61591L9.65255 9.68004L9.60462 9.58028ZM9.35813 10.1076C9.31704 10.1361 9.26227 10.129 9.23488 10.0933C9.20749 10.0506 9.21434 9.99358 9.24857 9.96508C9.28281 9.93658 9.34443 9.9437 9.37182 9.97933C9.39921 10.0221 9.39236 10.0791 9.35813 10.1076Z" fill="#374EA2"/>
<path d="M14.0609 9.352C14.0746 9.30924 14.0541 9.26648 14.0198 9.24511L13.4036 8.98145L13.3557 9.09546L13.9171 9.33774L13.8692 9.45889L13.6775 9.37337L13.7117 9.29499L13.5679 9.23085L13.5337 9.30924L13.2804 9.20235L13.2324 9.31637L13.3899 9.3805C13.3488 9.40188 13.3214 9.43038 13.3009 9.48026C13.253 9.60141 13.3283 9.74392 13.4652 9.80093C13.6022 9.85794 13.7528 9.80806 13.8007 9.69404C13.8213 9.65129 13.8213 9.60141 13.8007 9.55865L13.9445 9.62278L13.9925 9.50877L14.0609 9.352ZM13.5132 9.70117C13.4515 9.67267 13.4241 9.60853 13.4515 9.5444C13.4789 9.48026 13.5405 9.45176 13.6022 9.48026C13.6638 9.50877 13.6912 9.5729 13.6638 9.63704C13.6364 9.70117 13.5679 9.72967 13.5132 9.70117Z" fill="#374EA2"/>
<path d="M11.5212 8.89675C11.5144 8.84686 11.4802 8.81836 11.4322 8.81836L11.0762 8.84686L11.0899 8.97513L11.3843 8.94663L11.398 9.09627C11.4117 9.27442 11.309 9.35993 11.172 9.37419L11.1104 9.38131L11.1241 9.50958L11.1994 9.50245C11.3911 9.4882 11.5623 9.33856 11.5418 9.07489L11.5212 8.89675Z" fill="#374EA2"/>
<path d="M11.7266 8.78993C11.6855 8.79706 11.6513 8.83269 11.6581 8.88257L11.706 9.4954L11.843 9.48115L11.795 8.90395L11.9114 8.89682L11.8978 8.76855L11.7266 8.78993Z" fill="#374EA2"/>
<path d="M12.2175 9.31524L12.2012 9.44238L12.9477 9.5464L12.9641 9.41926L12.2175 9.31524Z" fill="#374EA2"/>
<path d="M12.6442 9.0253C12.699 9.09656 12.7948 9.15357 12.9112 9.17495L12.9934 9.1892L13.0071 9.06806L12.9181 9.05381C12.8017 9.03243 12.7263 8.96829 12.74 8.87566L12.7469 8.82578H12.7332L12.6099 8.81152H12.5963L12.5894 8.86141C12.5757 8.95404 12.4867 8.98967 12.3703 8.98255L12.2744 8.96829L12.2607 9.08944L12.3498 9.09656C12.4662 9.10369 12.5689 9.08231 12.6442 9.0253Z" fill="#374EA2"/>
<path d="M14.5331 10.186C14.4304 10.0648 14.4304 9.92231 14.5605 9.72278L14.5948 9.6729C14.5948 9.6729 14.5948 9.66577 14.6016 9.66577L14.6221 9.63727L14.5674 9.59451L14.5126 9.55176L14.4921 9.58026C14.4921 9.58026 14.492 9.58739 14.4852 9.58739L14.451 9.63727C14.3209 9.82967 14.1908 9.87955 14.0401 9.81542L13.9785 9.93656C14.0949 10.0007 14.2113 10.0078 14.3277 9.94369C14.3072 10.0862 14.3551 10.1931 14.451 10.2857L14.4715 10.3071L14.4304 10.3641L14.54 10.4425L14.8618 9.97219L14.9577 10.0435L15.0261 9.94369L14.8892 9.8368C14.8549 9.80829 14.807 9.82254 14.7796 9.85817L14.5468 10.2002L14.5331 10.186Z" fill="#374EA2"/>
<path d="M8.17383 16.1202L8.68736 15.7354L8.81061 15.9135C8.85169 15.9776 8.87224 16.0275 8.87224 16.0774C8.87224 16.1273 8.84485 16.17 8.80376 16.2057C8.77638 16.227 8.74899 16.2342 8.7216 16.2342C8.69421 16.2342 8.66682 16.227 8.63943 16.2128C8.65313 16.2413 8.65313 16.2769 8.63943 16.3054C8.63259 16.3339 8.61204 16.3624 8.58466 16.3838C8.53673 16.4194 8.4888 16.4337 8.44087 16.4194C8.39294 16.4052 8.35185 16.3696 8.31077 16.3126L8.17383 16.1202ZM8.46825 16.056L8.33131 16.1629L8.39294 16.2555C8.40663 16.2769 8.42717 16.2983 8.44771 16.2983C8.46825 16.3054 8.4888 16.2983 8.50934 16.2841C8.55727 16.2484 8.56411 16.2057 8.52988 16.1558L8.46825 16.056ZM8.54357 15.999L8.59835 16.0774C8.63259 16.1273 8.67367 16.1415 8.71475 16.1059C8.73529 16.0917 8.74899 16.0703 8.74899 16.0489C8.74899 16.0275 8.74214 16.0061 8.7216 15.9776L8.67367 15.9064L8.54357 15.999Z" fill="#374EA2"/>
<path d="M8.89219 16.8179L8.74156 16.654L8.61831 16.7181L8.5293 16.6183L9.13869 16.3262L9.22086 16.4117L8.92643 17.0388L8.83742 16.939L8.89219 16.8179ZM8.83742 16.6041L8.94012 16.7181L9.05653 16.4901L8.83742 16.6041Z" fill="#374EA2"/>
<path d="M9.39267 17.2095C9.40637 17.1881 9.41322 17.1667 9.40637 17.1454C9.39952 17.124 9.38583 17.0955 9.35844 17.0527C9.33105 17.01 9.31736 16.9815 9.30366 16.953C9.27627 16.8746 9.27627 16.8104 9.31736 16.7605C9.3379 16.732 9.36529 16.7107 9.39267 16.7035C9.42006 16.6964 9.4543 16.6893 9.49538 16.7035C9.52962 16.7107 9.56385 16.732 9.59809 16.7605C9.63232 16.7891 9.65971 16.8176 9.67341 16.8532C9.6871 16.8888 9.69395 16.9244 9.69395 16.9601C9.6871 16.9957 9.68025 17.0313 9.65287 17.0598L9.55701 16.9815C9.57755 16.9601 9.58439 16.9316 9.57755 16.9102C9.5707 16.8888 9.55701 16.8674 9.53646 16.8461C9.51592 16.8247 9.48853 16.8176 9.46799 16.8176C9.44745 16.8176 9.42691 16.8247 9.41322 16.8461C9.39952 16.8603 9.39952 16.8817 9.40637 16.9102C9.41322 16.9316 9.42691 16.9601 9.4543 16.9957C9.49538 17.0598 9.52277 17.1168 9.52277 17.1596C9.52962 17.2095 9.51592 17.2522 9.48853 17.295C9.4543 17.3378 9.41322 17.3591 9.36529 17.3663C9.31736 17.3663 9.26258 17.3449 9.21465 17.3021C9.18041 17.2736 9.15303 17.238 9.13248 17.2024C9.11194 17.1667 9.1051 17.124 9.11194 17.0883C9.11194 17.0527 9.13248 17.0171 9.15303 16.9815L9.24889 17.0598C9.2078 17.1168 9.21465 17.1739 9.27627 17.2237C9.29682 17.2451 9.3242 17.2522 9.34475 17.2522C9.35844 17.238 9.37898 17.2309 9.39267 17.2095Z" fill="#374EA2"/>
<path d="M9.85106 17.4164L9.76204 17.4449L9.67303 17.6088L9.56348 17.5447L9.8716 16.9746L9.98115 17.0387L9.83736 17.2953L9.92637 17.2525L10.1592 17.1456L10.2961 17.224L9.96746 17.3665L9.988 17.7941L9.8579 17.7228L9.85106 17.4164Z" fill="#374EA2"/>
<path d="M10.6042 17.7512L10.3851 17.6585L10.3235 17.8224L10.5837 17.9293L10.5426 18.0291L10.1729 17.8794L10.3988 17.2666L10.7754 17.4162L10.7343 17.5231L10.4741 17.4162L10.4193 17.5588L10.6453 17.6514L10.6042 17.7512Z" fill="#374EA2"/>
<path d="M11.3436 17.6728L11.1655 17.63L11.0491 18.1645L10.9259 18.136L11.0423 17.6015L10.8643 17.5659L10.8916 17.459L11.3641 17.5659L11.3436 17.6728Z" fill="#374EA2"/>
<path d="M11.4463 18.2425L11.4942 17.5869L11.7065 17.6012C11.7818 17.6083 11.8297 17.6297 11.8708 17.6582C11.905 17.6938 11.9187 17.7366 11.9187 17.7936C11.9187 17.8221 11.905 17.8506 11.8914 17.8791C11.8777 17.9076 11.8503 17.9218 11.8229 17.929C11.8503 17.9361 11.8777 17.9575 11.8914 17.986C11.905 18.0145 11.9119 18.043 11.9119 18.0786C11.905 18.1427 11.8845 18.1855 11.8503 18.214C11.8092 18.2425 11.7613 18.2568 11.6928 18.2496L11.4463 18.2425ZM11.5901 17.9646L11.5764 18.1427L11.6791 18.1499C11.7065 18.1499 11.7339 18.1427 11.7476 18.1356C11.7681 18.1214 11.775 18.1 11.775 18.0715C11.7818 18.0145 11.7544 17.9788 11.6996 17.9717L11.5901 17.9646ZM11.5969 17.872L11.6859 17.8791C11.7476 17.8791 11.7818 17.8577 11.7818 17.8078C11.7818 17.7793 11.775 17.7579 11.7613 17.7437C11.7476 17.7294 11.7202 17.7223 11.6859 17.7152L11.5969 17.7081V17.872Z" fill="#374EA2"/>
<path d="M12.4176 18.1149L12.1985 18.1292L12.1643 18.2646L12.0342 18.2717L12.2122 17.6019L12.3286 17.5947L12.5956 18.2361L12.4655 18.2432L12.4176 18.1149ZM12.2259 18.0223L12.3765 18.008L12.2875 17.7658L12.2259 18.0223Z" fill="#374EA2"/>
<path d="M12.8764 18.0716L13.1365 18.0146L13.1571 18.1214L12.7805 18.207L12.6436 17.5585L12.7668 17.5371L12.8764 18.0716Z" fill="#374EA2"/>
<path d="M13.4233 17.9225L13.6698 17.8299L13.7041 17.9297L13.3412 18.0651L13.1289 17.4451L13.2453 17.4023L13.4233 17.9225Z" fill="#374EA2"/>
<path d="M14.4302 17.281C14.4576 17.3452 14.4713 17.4022 14.4508 17.4592C14.4371 17.5162 14.396 17.5661 14.3343 17.6017C14.2659 17.6445 14.2043 17.6516 14.1358 17.6231C14.0673 17.5946 14.0125 17.5447 13.9646 17.4592L13.9441 17.4235C13.9098 17.3665 13.8961 17.3167 13.8893 17.2668C13.8824 17.2169 13.8893 17.167 13.9098 17.1243C13.9304 17.0815 13.9578 17.0459 14.0057 17.0245C14.0673 16.9889 14.1221 16.9746 14.1769 16.9889C14.2316 17.0031 14.2796 17.0387 14.3207 17.0957L14.2179 17.1599C14.1974 17.1243 14.17 17.1029 14.1426 17.0957C14.1152 17.0886 14.0879 17.0957 14.0536 17.1171C14.0194 17.1385 13.9988 17.167 13.9988 17.2098C13.9988 17.2454 14.0125 17.2953 14.0468 17.3523L14.0742 17.395C14.1084 17.4592 14.1426 17.4948 14.1769 17.5162C14.2111 17.5304 14.2453 17.5304 14.2796 17.5091C14.3138 17.4877 14.3343 17.4663 14.3412 17.4378C14.348 17.4093 14.3412 17.3808 14.3275 17.3452L14.4302 17.281Z" fill="#374EA2"/>
<path d="M14.7448 17.1746L14.9502 16.9965L15.0187 17.082L14.7174 17.3385L14.3203 16.8255L14.4162 16.7471L14.7448 17.1746Z" fill="#374EA2"/>
<path d="M14.9907 16.1768L15.292 16.476C15.34 16.5259 15.3673 16.5829 15.3673 16.6399C15.3673 16.697 15.3468 16.754 15.292 16.811C15.2441 16.8609 15.1893 16.8894 15.1345 16.8965C15.0798 16.8965 15.025 16.8751 14.9771 16.8252L14.6758 16.5259L14.7579 16.4333L15.0592 16.7326C15.0866 16.7611 15.114 16.7753 15.1414 16.7753C15.1688 16.7753 15.1962 16.7611 15.2167 16.7397C15.2646 16.6898 15.2646 16.6328 15.2099 16.5758L14.9086 16.2765L14.9907 16.1768Z" fill="#374EA2"/>
<path d="M15.5936 16.4472L15.0801 16.0696L15.2033 15.8914C15.2444 15.8273 15.2923 15.7916 15.3334 15.7774C15.3814 15.7631 15.4224 15.7703 15.4704 15.8059C15.4978 15.8273 15.5114 15.8486 15.5251 15.8772C15.5388 15.9057 15.5388 15.9342 15.532 15.9627C15.5594 15.9413 15.5868 15.9342 15.6142 15.927C15.6415 15.927 15.6758 15.9342 15.7032 15.9555C15.7511 15.9912 15.7785 16.0339 15.7853 16.0838C15.7922 16.1337 15.7716 16.1907 15.7306 16.2477L15.5936 16.4472ZM15.3677 16.1194L15.4224 16.0411C15.4567 15.984 15.4567 15.9484 15.4156 15.9128C15.395 15.8985 15.3677 15.8914 15.354 15.8985C15.3334 15.9057 15.3129 15.9199 15.2923 15.9484L15.2444 16.0197L15.3677 16.1194ZM15.443 16.1764L15.5799 16.2762L15.6415 16.1836C15.6552 16.1622 15.6621 16.1337 15.6621 16.1123C15.6621 16.0909 15.6484 16.0696 15.6278 16.0553C15.5799 16.0197 15.5388 16.0268 15.5046 16.0767L15.443 16.1764Z" fill="#374EA2"/>
<path d="M21.6443 10.6345C20.6518 11.0548 19.5224 11.411 18.3177 11.6674C18.2493 11.6817 18.1808 11.6959 18.1124 11.7102L17.3184 11.6745C17.2431 11.6745 17.1609 11.6674 17.072 11.6674C18.4272 11.3255 19.6867 10.8767 20.686 10.3781C21.0145 10.2142 21.2952 9.97914 21.5211 9.6942C22.1919 8.83937 22.5546 7.90619 22.6436 7.02999C22.6436 7.0015 22.6094 6.98725 22.5957 7.00862C21.5279 8.46183 19.1528 9.97914 16.2027 10.9408C15.792 11.0762 15.3881 11.1901 14.9843 11.297C14.9775 11.297 14.9638 11.3041 14.9569 11.3041C14.4436 11.4252 13.807 11.5178 13.102 11.5819C12.9651 11.5962 12.8419 11.646 12.7392 11.7315L12.7118 11.5748H11.3018L11.2744 11.7315C11.1718 11.6389 11.0349 11.5891 10.898 11.5819C10.1998 11.5249 9.57008 11.4252 9.05672 11.3041C9.04987 11.3041 9.03618 11.297 9.02934 11.297C8.63234 11.1973 8.22166 11.0762 7.81097 10.9408C4.86087 9.97201 2.48573 8.4547 1.41794 7.0015C1.39741 6.98013 1.36319 6.99438 1.37003 7.02287C1.45217 7.89907 1.82179 8.83225 2.48573 9.68707C2.71161 9.97201 2.99909 10.2071 3.32079 10.3709C4.32013 10.8767 5.57957 11.3184 6.93484 11.6603C6.81163 11.6674 6.68158 11.6674 6.53099 11.6745L5.89443 11.703C5.82598 11.6888 5.75753 11.6745 5.68909 11.6603C4.48441 11.411 3.35502 11.0548 2.36252 10.6345C2.35568 10.6274 2.34199 10.6416 2.34199 10.6488C2.43097 11.24 2.9854 11.8241 3.84784 12.3157C4.08741 12.451 4.34751 12.5436 4.6213 12.5935C4.88825 12.6362 5.16204 12.6718 5.44268 12.7003C5.77122 12.7359 6.08608 12.7573 6.40094 12.7644L6.41463 12.7929L6.38725 12.9639C5.42214 13.028 4.51179 12.9995 3.69726 12.8855C3.68357 12.8855 3.67672 12.8998 3.68357 12.9069C3.90944 13.3628 4.44334 13.6976 5.19626 13.9113C5.40845 13.9683 5.63433 13.9826 5.85336 13.9469C5.99026 13.9256 6.12715 13.9042 6.26405 13.8757L6.22982 14.1179C5.85336 14.2176 5.48374 14.296 5.12782 14.3601C5.11413 14.3601 5.11413 14.3744 5.12097 14.3815C5.33316 14.6308 5.68224 14.7804 6.12715 14.8516L5.97657 15.9344L6.55837 15.7919C6.70896 15.7563 6.86639 15.7207 7.01697 15.6851L7.29761 15.621L7.40713 14.7875C7.52349 14.6949 7.63985 14.6023 7.75621 14.5168C7.7699 14.6522 7.82466 14.7733 7.91364 14.8659C8.02316 14.9799 8.17374 15.0368 8.33117 15.0368C8.3654 15.0368 8.39278 15.0368 8.427 15.0297C8.74186 14.987 9.06356 14.9442 9.37158 14.9086C9.37158 14.9086 9.83018 14.8659 9.85071 14.8659C10.0218 14.8516 10.1998 14.8374 10.3778 14.8231L10.6652 14.8089C10.7816 14.8018 10.8911 14.7946 11.0075 14.7946L11.1991 14.7875C11.3497 14.7804 11.5071 14.7804 11.6577 14.7804L11.9931 14.7733L12.3285 14.7804C12.486 14.7804 12.6365 14.7875 12.7871 14.7875C12.7871 14.7875 13.1978 14.8018 13.2183 14.8018C13.4716 14.816 13.7317 14.8303 13.985 14.8516C14.0055 14.8516 14.0192 14.8516 14.0397 14.8516C14.1561 14.8516 14.2656 14.8231 14.3546 14.7662C14.4573 14.8445 14.5873 14.9015 14.7242 14.9157C15.0254 14.9514 15.3265 14.987 15.6277 15.0297C15.6619 15.0368 15.6962 15.0368 15.7235 15.0368C15.7578 15.0368 15.7988 15.0368 15.8331 15.0297C15.9083 15.2862 16.1342 15.4999 16.408 15.5569C16.7434 15.621 17.0788 15.6993 17.4074 15.7777L17.9892 15.9202L17.8386 14.8445C18.2903 14.7733 18.6463 14.6166 18.8653 14.3672C18.8721 14.3601 18.8653 14.3459 18.8584 14.3459C18.4957 14.2818 18.1192 14.1963 17.7359 14.0965L17.7017 13.8543C17.8454 13.8828 17.996 13.9042 18.1397 13.9256C18.3588 13.9612 18.5778 13.9469 18.7968 13.89C19.5498 13.6834 20.0837 13.3414 20.3095 12.8855C20.3164 12.8784 20.3095 12.8642 20.2958 12.8642C19.4471 12.9781 18.4957 13.0066 17.4895 12.9283L17.5853 12.7359C17.9002 12.7217 18.2219 12.7003 18.5504 12.6718C18.8311 12.6433 19.1049 12.6077 19.3718 12.565C19.6456 12.5222 19.9057 12.4296 20.1453 12.2872C21.0077 11.7956 21.5621 11.2115 21.6511 10.6203C21.6648 10.6416 21.6511 10.6274 21.6443 10.6345Z" fill="#374EA2"/>
<mask id="mask0_124_292921" style="mask-type:luminance" maskUnits="userSpaceOnUse" x="11" y="11" width="2" height="4">
<path d="M12.0069 12.4867C12.0754 12.8286 12.1438 13.1634 12.2122 13.5054C12.0754 13.5054 11.9385 13.5054 11.8016 13.5054C11.87 13.1634 11.9385 12.8286 12.0069 12.4867ZM11.6441 11.9453C11.5072 12.7431 11.3566 13.541 11.1992 14.3388C11.3566 14.3317 11.5141 14.3317 11.6647 14.3317C11.6852 14.1892 11.7057 14.0539 11.7331 13.9114C11.9111 13.9114 12.0959 13.9114 12.2738 13.9114C12.2944 14.0539 12.3149 14.1892 12.3423 14.3317C12.4997 14.3317 12.6572 14.3388 12.8077 14.3388C12.6503 13.5339 12.4997 12.7431 12.3628 11.9453C12.2396 11.9453 12.1233 11.9453 12.0001 11.9453C11.8837 11.9453 11.7605 11.9453 11.6441 11.9453Z" fill="white"/>
</mask>
<g mask="url(#mask0_124_292921)">
<path d="M12.8077 11.9453H11.1992V14.3388H12.8077V11.9453Z" fill="url(#paint0_linear_124_292921)"/>
</g>
<mask id="mask1_124_292921" style="mask-type:luminance" maskUnits="userSpaceOnUse" x="9" y="11" width="3" height="4">
<path d="M10.8584 11.9531C10.5709 11.9531 10.2834 11.9602 9.99594 11.9602C9.87273 11.9602 9.77006 12.0529 9.76321 12.1597C9.7153 12.8578 9.66054 13.5488 9.61263 14.2469C9.60578 14.3538 9.70846 14.4321 9.83851 14.425C10.0165 14.4107 10.1944 14.3965 10.3724 14.3823C10.4614 14.3538 10.5435 14.3181 10.6325 14.2896C10.6462 14.311 10.653 14.3395 10.6667 14.3609C10.7831 14.3538 10.8994 14.3466 11.0158 14.3466C11.0295 13.905 11.0432 13.4633 11.0569 13.0145C10.8584 13.0217 10.6599 13.0217 10.4614 13.0288C10.4066 13.157 10.3519 13.2852 10.304 13.4134C10.3929 13.4063 10.4751 13.4063 10.5641 13.3992C10.5572 13.5915 10.5435 13.7839 10.5367 13.9762C10.3998 13.9833 10.2629 13.9905 10.1328 13.9976C10.1671 13.4348 10.2013 12.8721 10.2287 12.3164C10.3587 12.3164 10.4888 12.3093 10.6188 12.3093C10.612 12.466 10.6051 12.6227 10.5983 12.7795C10.7557 12.6868 10.92 12.6014 11.0706 12.5088C11.0774 12.3805 11.0774 12.2523 11.0843 12.1312C11.0774 12.0386 10.9816 11.9531 10.8584 11.9531C10.8652 11.9531 10.8652 11.9531 10.8584 11.9531Z" fill="white"/>
</mask>
<g mask="url(#mask1_124_292921)">
<path d="M11.0839 11.9531H9.60547V14.4321H11.0839V11.9531Z" fill="url(#paint1_linear_124_292921)"/>
</g>
<mask id="mask2_124_292921" style="mask-type:luminance" maskUnits="userSpaceOnUse" x="15" y="12" width="3" height="4">
<path d="M15.9224 12.2144C15.9566 12.535 15.9977 12.8555 16.0319 13.1761C16.0387 13.2331 16.073 13.2758 16.114 13.3114C16.3673 13.4966 16.6206 13.689 16.8807 13.8884C16.9217 14.1876 16.9559 14.4939 16.997 14.7931C16.8807 14.7717 16.7643 14.7504 16.6479 14.729C16.6342 14.5937 16.6137 14.4654 16.6 14.3301C16.2852 14.1021 16.1277 14.0024 16.1277 14.0024C16.162 14.2873 16.1962 14.5794 16.2236 14.8643C16.2372 14.9783 16.3536 15.0994 16.4905 15.1208C16.8259 15.1849 17.1681 15.2633 17.5035 15.3487C17.4351 14.8216 17.3598 14.2945 17.2913 13.7673C17.2776 13.6676 17.2092 13.6106 17.1613 13.5679C16.9217 13.3755 16.6822 13.1974 16.4494 13.0265C16.4289 12.8413 16.4015 12.6489 16.381 12.4637C16.4905 12.4708 17.1339 12.5207 17.2434 12.535C17.3256 12.3782 17.4077 12.2215 17.483 12.0648C17.2092 12.0506 16.2988 12.0149 16.1277 12.0078H16.1209C15.9908 12.0078 15.9087 12.1004 15.9224 12.2144Z" fill="white"/>
</mask>
<g mask="url(#mask2_124_292921)">
<path d="M17.503 12.0078H15.9082V15.3487H17.503V12.0078Z" fill="url(#paint2_linear_124_292921)"/>
</g>
<mask id="mask3_124_292921" style="mask-type:luminance" maskUnits="userSpaceOnUse" x="12" y="11" width="3" height="4">
<path d="M12.9359 12.1386C12.9427 12.4022 12.9496 12.6658 12.9633 12.9293C12.9633 12.9792 12.9907 13.0148 13.0317 13.0433C13.2713 13.1929 13.5109 13.3425 13.7573 13.4992C13.7641 13.6631 13.7778 13.834 13.7846 13.9979C13.6683 13.9907 13.5519 13.9836 13.4356 13.9765C13.4287 13.8981 13.4287 13.8127 13.4219 13.7343C13.1207 13.5633 12.9701 13.485 12.9701 13.485C12.977 13.7058 12.9838 13.9266 12.9907 14.1546C12.9907 14.2614 13.107 14.3469 13.2371 14.354C13.4972 14.3683 13.7573 14.3825 14.0105 14.4039C14.1406 14.4182 14.2432 14.3398 14.2364 14.2258C14.2159 13.9409 14.1953 13.6488 14.1748 13.3639C14.168 13.2784 14.0995 13.2285 14.0584 13.2C13.8257 13.0504 13.5998 12.908 13.374 12.7655C13.3671 12.623 13.3603 12.4806 13.3534 12.3381C13.4629 12.3381 13.5725 12.3452 13.682 12.3452C13.682 12.3879 13.6888 12.4378 13.6888 12.4806C13.8326 12.5732 13.9831 12.6658 14.1337 12.7655C14.12 12.5589 14.1064 12.3595 14.0927 12.1529C14.0858 12.046 13.9831 11.9534 13.8599 11.9534C13.6204 11.9534 13.3808 11.9463 13.1412 11.9463C13.0249 11.9534 12.929 12.0389 12.9359 12.1386Z" fill="white"/>
</mask>
<g mask="url(#mask3_124_292921)">
<path d="M14.2507 11.9531H12.9297V14.425H14.2507V11.9531Z" fill="url(#paint3_linear_124_292921)"/>
</g>
<mask id="mask4_124_292921" style="mask-type:luminance" maskUnits="userSpaceOnUse" x="8" y="11" width="2" height="4">
<path d="M8.65232 11.9894C8.52912 11.9894 8.4196 12.0892 8.40591 12.2031C8.32377 12.9369 8.24848 13.6777 8.16634 14.4114C8.15265 14.5254 8.24848 14.6038 8.37853 14.5824C8.70023 14.5397 9.01509 14.4969 9.3368 14.4613C9.35049 14.326 9.35733 14.1906 9.37102 14.0553C9.13146 14.0766 8.89189 14.1051 8.65232 14.1336C8.6797 13.8772 8.70023 13.6207 8.72761 13.3643C8.89873 13.35 9.06301 13.3358 9.23413 13.3215C9.28889 13.1791 9.34364 13.0366 9.3984 12.9012C9.18621 12.9155 8.98087 12.9226 8.76868 12.9369C8.78922 12.7588 8.80291 12.5807 8.82344 12.3955C9.04932 12.3883 9.28204 12.3741 9.50792 12.367C9.52161 12.2316 9.52845 12.0963 9.54214 11.9609C9.24782 11.9752 8.95349 11.9823 8.65232 11.9894Z" fill="white"/>
</mask>
<g mask="url(#mask4_124_292921)">
<path d="M9.5428 11.9678H8.16016V14.6035H9.5428V11.9678Z" fill="url(#paint4_linear_124_292921)"/>
</g>
<mask id="mask5_124_292921" style="mask-type:luminance" maskUnits="userSpaceOnUse" x="14" y="11" width="2" height="4">
<path d="M14.5198 14.2613C14.5335 14.3681 14.643 14.4678 14.773 14.4821C15.081 14.5177 15.3822 14.5533 15.6902 14.6032C15.8203 14.6246 15.9161 14.5462 15.9024 14.4322C15.8134 13.6201 15.7245 12.8152 15.6355 12.0031C15.478 11.996 15.3275 11.996 15.17 11.9889C15.2385 12.7155 15.3138 13.4421 15.3822 14.1615C15.2522 14.1473 15.1221 14.133 14.9921 14.1188C14.9305 13.4064 14.862 12.6941 14.8004 11.9817C14.643 11.9817 14.4924 11.9746 14.335 11.9746C14.4034 12.7297 14.465 13.499 14.5198 14.2613Z" fill="white"/>
</mask>
<g mask="url(#mask5_124_292921)">
<path d="M15.9229 11.9678H14.3486V14.6177H15.9229V11.9678Z" fill="url(#paint5_linear_124_292921)"/>
</g>
<mask id="mask6_124_292921" style="mask-type:luminance" maskUnits="userSpaceOnUse" x="6" y="12" width="3" height="4">
<path d="M7.95404 12.0039C7.75554 12.011 6.72198 12.0538 6.53033 12.0609C6.61246 12.2247 6.68776 12.3815 6.76989 12.531C6.87257 12.5239 7.57073 12.4669 7.66656 12.4598C7.61865 12.8659 7.57073 13.2719 7.51597 13.6708C7.37908 13.7705 7.24218 13.8774 7.11213 13.9842C7.16005 13.6352 7.20112 13.2861 7.24903 12.9371C7.09844 12.9513 6.9547 12.9656 6.80412 12.9798L6.48926 15.3448C6.64669 15.3092 6.79727 15.2736 6.9547 15.238C6.98208 15.0029 7.01631 14.7678 7.04369 14.5256C7.26956 14.3475 7.4886 14.1695 7.71447 14.0056C7.85137 13.9059 7.97458 13.8062 7.99511 13.6281C8.04987 13.1508 8.10463 12.6806 8.15938 12.2034C8.15938 12.0965 8.07725 12.0039 7.95404 12.0039Z" fill="white"/>
</mask>
<g mask="url(#mask6_124_292921)">
<path d="M8.15939 12.0039H6.48242V15.352H8.15939V12.0039Z" fill="url(#paint6_linear_124_292921)"/>
</g>
<defs>
<linearGradient id="paint0_linear_124_292921" x1="12.0067" y1="11.936" x2="12.0067" y2="14.3505" gradientUnits="userSpaceOnUse">
<stop stop-color="white"/>
<stop offset="0.15" stop-color="white"/>
<stop offset="1" stop-color="#00AEEF"/>
</linearGradient>
<linearGradient id="paint1_linear_124_292921" x1="10.3416" y1="11.9576" x2="10.3416" y2="14.3507" gradientUnits="userSpaceOnUse">
<stop stop-color="white"/>
<stop offset="0.15" stop-color="white"/>
<stop offset="1" stop-color="#00AEEF"/>
</linearGradient>
<linearGradient id="paint2_linear_124_292921" x1="16.7027" y1="12.0475" x2="16.7027" y2="15.1511" gradientUnits="userSpaceOnUse">
<stop stop-color="white"/>
<stop offset="0.15" stop-color="white"/>
<stop offset="1" stop-color="#00AEEF"/>
</linearGradient>
<linearGradient id="paint3_linear_124_292921" x1="13.5945" y1="12.0291" x2="13.5945" y2="14.3692" gradientUnits="userSpaceOnUse">
<stop stop-color="white"/>
<stop offset="0.15" stop-color="white"/>
<stop offset="1" stop-color="#00AEEF"/>
</linearGradient>
<linearGradient id="paint4_linear_124_292921" x1="8.85355" y1="11.9895" x2="8.85355" y2="14.5521" gradientUnits="userSpaceOnUse">
<stop stop-color="white"/>
<stop offset="0.15" stop-color="white"/>
<stop offset="1" stop-color="#00AEEF"/>
</linearGradient>
<linearGradient id="paint5_linear_124_292921" x1="15.1346" y1="11.9883" x2="15.1346" y2="14.5376" gradientUnits="userSpaceOnUse">
<stop stop-color="white"/>
<stop offset="0.15" stop-color="white"/>
<stop offset="1" stop-color="#00AEEF"/>
</linearGradient>
<linearGradient id="paint6_linear_124_292921" x1="7.3224" y1="12.072" x2="7.3224" y2="15.2285" gradientUnits="userSpaceOnUse">
<stop stop-color="white"/>
<stop offset="0.15" stop-color="white"/>
<stop offset="1" stop-color="#00AEEF"/>
</linearGradient>
</defs>
</svg>
